{
.appVersion = "3228";
.formatVersion = 3;
axes = (
{
name = Weight;
tag = wght;
},
{
name = Italic;
tag = ital;
}
);
customParameters = (
{
name = fsType;
value = (
);
},
{
name = "Enforce Compatibility Check";
value = 1;
},
{
name = "Variable Font Origin";
value = "2DDB91A3-C239-4D5E-A91E-E145FA4A38E0";
},
{
name = "gasp Table";
value = {
};
},
{
name = "Axis Mappings";
value = {
ital = {
0 = 0;
1 = 1;
};
wght = {
100 = 100;
200 = 228;
300 = 324;
400 = 420;
500 = 504;
600 = 624;
700 = 732;
800 = 828;
900 = 900;
};
};
},
{
name = panose;
value = (
2,
11,
10,
4,
4,
2,
0,
0,
2,
3
);
},
{
name = "Use Typo Metrics";
value = 1;
},
{
name = "Export morx Table";
value = 1;
},
{
name = "meta Table";
value = (
{
data = Latn;
tag = dlng;
},
{
data = Latn;
tag = slng;
}
);
}
);
date = "2020-03-28 06:10:06 +0000";
familyName = Urbanist;
featurePrefixes = (
{
code = "languagesystem DFLT dflt;
languagesystem DFLT MAH;

languagesystem latn dflt;
languagesystem latn AZE;
languagesystem latn CRT;
languagesystem latn KAZ;
languagesystem latn TAT;
languagesystem latn TRK;
languagesystem latn ROM;
languagesystem latn MOL;
languagesystem latn MAH;
languagesystem latn CAT;
languagesystem latn NLD;
";
name = Languagesystems;
}
);
features = (
{
automatic = 1;
code = "feature locl;
feature subs;
feature sinf;
feature sups;
feature frac;
feature ordn;
feature case;
feature calt;
";
tag = aalt;
},
{
automatic = 1;
code = "lookup ccmp_Other_1 {
	@CombiningTopAccents = [acutecomb brevecomb caroncomb circumflexcomb commaturnedabovecomb dieresiscomb dotaccentcomb gravecomb hungarumlautcomb macroncomb ringcomb tildecomb];
	lookupflag UseMarkFilteringSet @CombiningTopAccents;
	sub i' @CombiningTopAccents by idotless;
	sub j' @CombiningTopAccents by jdotless;
} ccmp_Other_1;

lookup ccmp_latn_1 {
	lookupflag 0;
	sub fi by f i;
	sub fl by f l;
} ccmp_latn_1;

script latn;
lookup ccmp_latn_1;
";
tag = ccmp;
},
{
code = "script latn;
language AZE;
lookup locl_latn_0 {
	sub i by idotaccent;

glyphs = (
{
glyphname = A;
kernLeft = A;
kernRight = A;
lastChange = "2023-12-27 06:33:31 +0000";
layers = (
{
anchors = (
{
name = bottom;
pos = (697,0);
},
{
name = ogonek;
pos = (1374,0);
},
{
name = top;
pos = (697,1400);
}
);
hints = (
{
horizontal = 1;
origin = (0,0);
target = up;
type = BottomGhost;
},
{
horizontal = 1;
origin = (0,2);
target = (1,2);
type = Stem;
},
{
horizontal = 1;
origin = (0,7);
target = down;
type = TopGhost;
}
);
layerId = "10BC12B3-5274-42E3-B5BC-F74F362F0DF4";
shapes = (
{
closed = 1;
nodes = (
(20,0,l),
(338,0,l),
(418,220,l),
(976,220,l),
(1056,0,l),
(1374,0,l),
(866,1400,l),
(528,1400,l)
);
},
{
closed = 1;
nodes = (
(696,984,l),
(866,520,l),
(528,520,l)
);
}
);
width = 1394;
},
{
anchors = (
{
name = bottom;
pos = (576,0);
},
{
name = ogonek;
pos = (1132,0);
},
{
name = top;
pos = (576,1400);
}
);
hints = (
{
horizontal = 1;
origin = (0,0);
target = up;
type = BottomGhost;
},
{
horizontal = 1;
origin = (0,2);
target = (1,2);
type = Stem;
},
{
horizontal = 1;
origin = (0,7);
target = (1,0);
type = Stem;
}
);
layerId = "9AF1F7D9-E035-453E-B2A8-46DE370997D0";
shapes = (
{
closed = 1;
nodes = (
(20,0,l),
(84,0,l),
(208,340,l),
(944,340,l),
(1068,0,l),
(1132,0,l),
(622,1400,l),
(530,1400,l)
);
},
{
closed = 1;
nodes = (
(576,1350,l),
(922,400,l),
(230,400,l)
);
}
);
width = 1152;
}
);
unicode = 65;
},
{
glyphname = AE;
kernLeft = A;
kernRight = E;
lastChange = "2023-12-28 01:10:57 +0000";
layers = (
{
anchors = (
{
name = bottom;
pos = (795,0);
},
{
name = top;
pos = (1039,1400);
}
);
hints = (
{
horizontal = 1;
origin = (0,15);
target = (0,6);
type = Stem;
},
{
horizontal = 1;
origin = (0,7);
target = (0,10);
type = Stem;
},
{
horizontal = 1;
origin = (0,14);
target = (1,0);
type = Stem;
},
{
horizontal = 1;
origin = (0,1);
target = (1,3);
type = Stem;
},
{
origin = (0,3);
target = (0,6);
type = Stem;
}
);
layerId = "10BC12B3-5274-42E3-B5BC-F74F362F0DF4";
shapes = (
{
closed = 1;
nodes = (
(338,0,l),
(418,220,l),
(798,220,l),
(798,0,l),
(1550,0,l),
(1550,300,l),
(1098,300,l),
(1098,550,l),
(1454,550,l),
(1454,850,l),
(1098,850,l),
(1098,1100,l),
(1550,1100,l),
(1550,1400,l),
(528,1400,l),
(20,0,l)
);
},
{
closed = 1;
nodes = (
(738,1100,l),
(798,1100,l),
(798,520,l),
(528,520,l)
);
}
);
width = 1590;
},
{
anchors = (
{
name = bottom;
pos = (727,0);
},
{
name = top;
pos = (972,1400);
}
);
hints = (
{
horizontal = 1;
origin = (0,15);
target = (0,6);
type = Stem;
},
{
horizontal = 1;
origin = (0,1);
target = (1,3);
type = Stem;
},
{
horizontal = 1;
origin = (0,7);
target = (0,10);
type = Stem;
},
{
horizontal = 1;
origin = (0,14);
target = (1,0);
type = Stem;
},
{
origin = (0,3);
target = (0,6);
type = Stem;
}
);
layerId = "9AF1F7D9-E035-453E-B2A8-46DE370997D0";
shapes = (
{
closed = 1;
nodes = (
(84,0,l),
(208,340,l),
(722,340,l),
(722,0,l),
(1414,0,l),
(1414,60,l),
(782,60,l),
(782,670,l),
(1318,670,l),
(1318,730,l),
(782,730,l),
(782,1340,l),
(1414,1340,l),
(1414,1400,l),
(530,1400,l),
(20,0,l)
);
},
{
closed = 1;
nodes = (
(574,1340,l),
(722,1340,l),
(722,400,l),
(230,400,l)
);
}
);
width = 1464;
}
);
metricLeft = A;
metricRight = E;
unicode = 198;
},
{
glyphname = B;
kernLeft = H;
kernRight = B;
lastChange = "2023-12-28 01:02:01 +0000";
layers = (
{
anchors = (
{
name = bottom;
pos = (553,0);
},
{
name = center;
pos = (553,700);
},
{
name = top;
pos = (553,1400);
}
);
hints = (
{
horizontal = 1;
place = (0,254);
type = Stem;
},
{
horizontal = 1;
place = (625,250);
type = Stem;
},
{
horizontal = 1;
place = (1400,256);
type = Stem;
},
{
place = (120,300);
type = Stem;
},
{
place = (760,300);
type = Stem;
},
{
place = (860,266);
type = Stem;
}
);
layerId = "10BC12B3-5274-42E3-B5BC-F74F362F0DF4";
shapes = (
{
closed = 1;
nodes = (
(676,0,ls),
(897,0,o),
(1076,179,o),
(1076,400,cs),
(1076,574,o),
(965,723,o),
(809,777,c),
(914,833,o),
(986,943,o),
(986,1070,cs),
(986,1252,o),
(838,1400,o),
(656,1400,cs),
(70,1400,l),
(70,0,l)
);
},
{
closed = 1;
nodes = (
(369,625,l),
(625,625,ls),
(727,625,o),
(810,542,o),
(810,436,cs),
(810,333,o),
(727,250,o),
(625,250,cs),
(369,250,l)
);
},
{
closed = 1;
nodes = (
(369,1150,l),
(576,1150,ls),
(650,1150,o),
(710,1090,o),
(710,1010,cs),
(710,935,o),
(650,875,o),
(576,875,cs),
(369,875,l)
);
}
);
width = 1106;
},
{
anchors = (
{
name = bottom;
pos = (515,0);
},
{
name = center;
pos = (515,700);
},
{
name = top;
pos = (515,1400);
}
);
hints = (
{
horizontal = 1;
place = (0,60);
type = Stem;
},
{
horizontal = 1;
place = (740,60);
type = Stem;
},
{
horizontal = 1;
place = (1340,60);
type = Stem;
},
{
place = (120,60);
type = Stem;
},
{
place = (930,60);
type = Stem;
},
{
place = (852,60);
type = Stem;
}
);
layerId = "9AF1F7D9-E035-453E-B2A8-46DE370997D0";
shapes = (
{
closed = 1;
nodes = (
(570,0,ls),
(791,0,o),
(970,179,o),
(970,400,cs),
(970,572,o),
(862,718,o),
(710,775,c),
(818,829,o),
(892,941,o),
(892,1070,cs),
(892,1252,o),
(744,1400,o),
(562,1400,cs),
(100,1400,l),
(100,0,l)
);
},
{
closed = 1;
nodes = (
(160,740,l),
(570,740,ls),
(753,740,o),
(910,594,o),
(910,400,cs),
(910,205,o),
(752,60,o),
(570,60,cs),
(160,60,l)
);
},
{
closed = 1;
nodes = (
(160,1340,l),
(562,1340,ls),
(712,1340,o),
(832,1219,o),
(832,1070,cs),
(832,918,o),
(709,800,o),
(562,800,cs),
(160,800,l)
);
}
);
width = 1030;
}
);
metricLeft = H;
unicode = 66;
},
{
glyphname = C;
kernLeft = O;
kernRight = C;
lastChange = "2023-12-28 01:02:26 +0000";
layers = (
{
anchors = (
{
name = bottom;
pos = (728,0);
},
{
name = top;
pos = (728,1400);
}
);
hints = (
{
horizontal = 1;
origin = (0,25);
target = (0,6);
type = Stem;
},
{
horizontal = 1;
origin = (0,19);
target = (0,12);
type = Stem;
},
{
origin = (0,22);
target = (0,9);
type = Stem;
}
);
layerId = "10BC12B3-5274-42E3-B5BC-F74F362F0DF4";
shapes = (
{
closed = 1;
nodes = (
(954,-26,o),
(1152,88,o),
(1278,262,c),
(1010,408,l),
(940,326,o),
(840,274,o),
(728,274,cs),
(514,274,o),
(340,466,o),
(340,700,cs),
(340,936,o),
(514,1126,o),
(728,1126,cs),
(840,1126,o),
(940,1074,o),
(1010,994,c),
(1278,1138,l),
(1152,1312,o),
(954,1426,o),
(728,1426,cs),
(348,1426,o),
(40,1102,o),
(40,700,cs),
(40,300,o),
(348,-26,o),
(728,-26,cs)
);
}
);
width = 1298;
},
{
anchors = (
{
name = bottom;
pos = (738,0);
},
{
name = top;
pos = (738,1400);
}
);
hints = (
{
horizontal = 1;
origin = (0,25);
target = (0,6);
type = Stem;
},
{
horizontal = 1;
origin = (0,19);
target = (0,12);
type = Stem;
},
{
origin = (0,22);
target = (0,9);
type = Stem;
}
);
layerId = "9AF1F7D9-E035-453E-B2A8-46DE370997D0";
shapes = (
{
closed = 1;
nodes = (
(964,-26,o),
(1162,86,o),
(1288,262,c),
(1236,290,l),
(1126,138,o),
(942,34,o),
(738,34,cs),
(392,34,o),
(110,332,o),
(110,700,cs),
(110,1058,o),
(386,1366,o),
(738,1366,cs),
(932,1366,o),
(1122,1266,o),
(1236,1108,c),
(1288,1136,l),
(1162,1312,o),
(964,1426,o),
(738,1426,cs),
(358,1426,o),
(50,1100,o),
(50,700,cs),
(50,298,o),
(358,-26,o),
(738,-26,cs)
);
}
);
width = 1318;
}
);
metricLeft = O;
metricRight = "=O-20";
unicode = 67;
},
{
glyphname = D;
kernLeft = H;
kernRight = O;
lastChange = "2023-12-28 01:02:30 +0000";
layers = (
{
anchors = (
{
name = bottom;
pos = (602,0);
},
{
name = center;
pos = (622,700);
},
{
name = hbar;
pos = (284,750);
},
{
name = top;
pos = (602,1400);
}
);
hints = (
{
horizontal = 1;
origin = (0,8);
target = (1,8);
type = Stem;
},
{
horizontal = 1;
origin = (0,7);
target = (1,0);
type = Stem;
},
{
origin = (0,8);
target = (1,8);
type = Stem;
},
{
origin = (1,4);
target = (0,3);
type = Stem;
}
);
layerId = "10BC12B3-5274-42E3-B5BC-F74F362F0DF4";
shapes = (
{
closed = 1;
nodes = (
(534,0,ls),
(920,0,o),
(1234,314,o),
(1234,700,cs),
(1234,1086,o),
(920,1400,o),
(534,1400,cs),
(70,1400,l),
(70,0,l)
);
},
{
closed = 1;
nodes = (
(370,1100,l),
(534,1100,ls),
(752,1100,o),
(934,920,o),
(934,700,cs),
(934,478,o),
(750,300,o),
(534,300,cs),
(370,300,l)
);
}
);
width = 1274;
},
{
anchors = (
{
name = bottom;
pos = (652,0);
},
{
name = center;
pos = (651,700);
},
{
name = hbar;
pos = (284,750);
},
{
name = top;
pos = (632,1400);
}
);
hints = (
{
horizontal = 1;
origin = (0,8);
target = (1,8);
type = Stem;
},
{
horizontal = 1;
origin = (0,7);
target = (1,0);
type = Stem;
},
{
origin = (0,8);
target = (1,8);
type = Stem;
},
{
origin = (1,4);
target = (0,3);
type = Stem;
}
);
layerId = "9AF1F7D9-E035-453E-B2A8-46DE370997D0";
shapes = (
{
closed = 1;
nodes = (
(562,0,ls),
(950,0,o),
(1262,314,o),
(1262,700,cs),
(1262,1086,o),
(950,1400,o),
(562,1400,cs),
(100,1400,l),
(100,0,l)
);
},
{
closed = 1;
nodes = (
(160,1340,l),
(562,1340,ls),
(916,1340,o),
(1202,1054,o),
(1202,700,cs),
(1202,346,o),
(918,60,o),
(562,60,cs),
(160,60,l)
);
}
);
width = 1302;
}
);
metricLeft = H;
unicode = 68;
},
{
glyphname = E;
kernLeft = H;
kernRight = E;
lastChange = "2023-12-28 01:02:36 +0000";
layers = (
{
anchors = (
{
name = bottom;
pos = (506,0);
},
{
name = ogonek;
pos = (860,0);
},
{
name = top;
pos = (506,1400);
},
{
name = topleft;
pos = (-30,1400);
}
);
hints = (
{
horizontal = 1;
origin = (0,11);
target = (0,2);
type = Stem;
},
{
horizontal = 1;
origin = (0,3);
target = (0,6);
type = Stem;
},
{
horizontal = 1;
origin = (0,10);
target = (0,7);
type = Stem;
},
{
origin = (0,11);
target = (0,2);
type = Stem;
}
);
layerId = "10BC12B3-5274-42E3-B5BC-F74F362F0DF4";
shapes = (
{
closed = 1;
nodes = (
(952,0,l),
(952,300,l),
(370,300,l),
(370,600,l),
(811,600,l),
(811,900,l),
(370,900,l),
(370,1100,l),
(952,1100,l),
(952,1400,l),
(70,1400,l),
(70,0,l)
);
}
);
width = 992;
},
{
anchors = (
{
name = bottom;
pos = (506,0);
},
{
name = ogonek;
pos = (803,0);
},
{
name = top;
pos = (506,1400);
},
{
name = topleft;
pos = (0,1400);
}
);
hints = (
{
horizontal = 1;
origin = (0,11);
target = (0,2);
type = Stem;
},
{
horizontal = 1;
origin = (0,3);
target = (0,6);
type = Stem;
},
{
horizontal = 1;
origin = (0,10);
target = (0,7);
type = Stem;
},
{
origin = (0,11);
target = (0,2);
type = Stem;
}
);
layerId = "9AF1F7D9-E035-453E-B2A8-46DE370997D0";
shapes = (
{
closed = 1;
nodes = (
(932,0,l),
(932,60,l),
(160,60,l),
(160,720,l),
(816,720,l),
(816,780,l),
(160,780,l),
(160,1340,l),
(932,1340,l),
(932,1400,l),
(100,1400,l),
(100,0,l)
);
}
);
width = 982;
}
);
metricLeft = H;
unicode = 69;
},
{
glyphname = Schwa;
kernLeft = O;
kernRight = O;
lastChange = "2023-12-28 01:10:59 +0000";
layers = (
{
anchors = (
{
name = bottom;
pos = (738,0);
},
{
name = top;
pos = (738,1400);
}
);
layerId = "9AF1F7D9-E035-453E-B2A8-46DE370997D0";
shapes = (
{
closed = 1;
nodes = (
(1118,-26,o),
(1426,300,o),
(1426,700,cs),
(1426,1100,o),
(1118,1426,o),
(736,1426,cs),
(512,1426,o),
(312,1312,o),
(186,1138,c),
(240,1108,l),
(360,1272,o),
(546,1366,o),
(736,1366,cs),
(1102,1366,o),
(1385,1044,o),
(1364,642,c),
(50,642,l),
(74,272,o),
(376,-26,o),
(736,-26,cs)
);
},
{
closed = 1;
nodes = (
(422,34,o),
(164,282,o),
(118,582,c),
(1356,582,l),
(1303,273,o),
(1046,34,o),
(736,34,cs)
);
}
);
width = 1476;
},
{
anchors = (
{
name = bottom;
pos = (729,0);
},
{
name = top;
pos = (729,1400);
}
);
layerId = "10BC12B3-5274-42E3-B5BC-F74F362F0DF4";
shapes = (
{
closed = 1;
nodes = (
(1121,-26,o),
(1417,304,o),
(1417,702,cs),
(1417,1130,o),
(1079,1424,o),
(723,1424,cs),
(529,1424,o),
(331,1338,o),
(179,1136,c),
(447,992,l),
(529,1084,o),
(629,1126,o),
(727,1126,cs),
(916,1126,o),
(1095,971,o),
(1116,740,c),
(41,740,l),
(21,322,o),
(333,-26,o),
(729,-26,cs)
);
},
{
closed = 1;
nodes = (
(603,274,o),
(477,338,o),
(395,480,c),
(1063,480,l),
(995,356,o),
(869,274,o),
(725,274,cs)
);
}
);
width = 1457;
}
);
metricLeft = O;
metricRight = O;
unicode = 399;
},
{
glyphname = F;
kernLeft = H;
kernRight = F;
lastChange = "2023-12-28 01:02:47 +0000";
layers = (
{
anchors = (
{
name = bottom;
pos = (436,0);
},
{
name = top;
pos = (436,1400);
}
);
hints = (
{
horizontal = 1;
origin = (0,9);
target = up;
type = BottomGhost;
},
{
horizontal = 1;
origin = (0,1);
target = (0,4);
type = Stem;
},
{
horizontal = 1;
origin = (0,8);
target = (0,5);
type = Stem;
},
{
origin = (0,9);
target = (0,0);
type = Stem;
}
);
layerId = "10BC12B3-5274-42E3-B5BC-F74F362F0DF4";
shapes = (
{
closed = 1;
nodes = (
(370,0,l),
(370,600,l),
(811,600,l),
(811,900,l),
(370,900,l),
(370,1100,l),
(932,1100,l),
(932,1400,l),
(70,1400,l),
(70,0,l)
);
}
);
width = 912;
},
{
anchors = (
{
name = bottom;
pos = (456,0);
},
{
name = top;
pos = (456,1400);
}
);
hints = (
{
horizontal = 1;
origin = (0,9);
target = up;
type = BottomGhost;
},
{
horizontal = 1;
origin = (0,1);
target = (0,4);
type = Stem;
},
{
horizontal = 1;
origin = (0,8);
target = (0,5);
type = Stem;
},
{
origin = (0,9);
target = (0,0);
type = Stem;
}
);
layerId = "9AF1F7D9-E035-453E-B2A8-46DE370997D0";
shapes = (
{
closed = 1;
nodes = (
(160,0,l),
(160,720,l),
(816,720,l),
(816,780,l),
(160,780,l),
(160,1340,l),
(912,1340,l),
(912,1400,l),
(100,1400,l),
(100,0,l)
);
}
);
width = 892;
}
);
metricLeft = H;
unicode = 70;
},
{
glyphname = G;
kernLeft = O;
kernRight = O;
lastChange = "2023-12-28 01:02:56 +0000";
layers = (
{
anchors = (
{
name = bottom;
pos = (729,0);
},
{
name = top;
pos = (729,1400);
}
);
hints = (
{
horizontal = 1;
origin = (0,27);
target = (0,8);
type = Stem;
},
{
horizontal = 1;
origin = (0,4);
target = (0,3);
type = Stem;
},
{
horizontal = 1;
origin = (0,21);
target = (0,14);
type = Stem;
},
{
origin = (0,24);
target = (0,11);
type = Stem;
}
);
layerId = "10BC12B3-5274-42E3-B5BC-F74F362F0DF4";
shapes = (
{
closed = 1;
nodes = (
(1124,-26,o),
(1436,322,o),
(1416,740,c),
(824,740,l),
(824,480,l),
(1062,480,l),
(980,338,o),
(854,274,o),
(732,274,cs),
(516,274,o),
(340,460,o),
(340,696,cs),
(340,952,o),
(530,1126,o),
(730,1126,cs),
(828,1126,o),
(928,1084,o),
(1010,992,c),
(1278,1136,l),
(1126,1338,o),
(928,1424,o),
(734,1424,cs),
(378,1424,o),
(40,1130,o),
(40,702,cs),
(40,304,o),
(336,-26,o),
(728,-26,cs)
);
}
);
width = 1457;
},
{
anchors = (
{
name = bottom;
pos = (738,0);
},
{
name = top;
pos = (740,1400);
}
);
hints = (
{
horizontal = 1;
origin = (0,27);
target = (0,8);
type = Stem;
},
{
horizontal = 1;
origin = (0,4);
target = (0,3);
type = Stem;
},
{
horizontal = 1;
origin = (0,21);
target = (0,14);
type = Stem;
},
{
origin = (0,24);
target = (0,11);
type = Stem;
}
);
layerId = "9AF1F7D9-E035-453E-B2A8-46DE370997D0";
shapes = (
{
closed = 1;
nodes = (
(1100,-26,o),
(1402,272,o),
(1426,642,c),
(886,642,l),
(886,582,l),
(1358,582,l),
(1312,282,o),
(1054,34,o),
(740,34,cs),
(392,34,o),
(110,336,o),
(110,700,cs),
(110,1058,o),
(388,1366,o),
(740,1366,cs),
(930,1366,o),
(1116,1272,o),
(1236,1108,c),
(1290,1138,l),
(1164,1312,o),
(964,1426,o),
(740,1426,cs),
(358,1426,o),
(50,1100,o),
(50,700,cs),
(50,300,o),
(358,-26,o),
(740,-26,cs)
);
}
);
width = 1476;
}
);
metricLeft = O;
metricRight = O;
unicode = 71;
},
{
glyphname = H;
kernLeft = H;
kernRight = H;
lastChange = "2023-12-28 00:57:32 +0000";
layers = (
{
anchors = (
{
name = bottom;
pos = (618,0);
},
{
name = center;
pos = (618,700);
},
{
name = hbar;
pos = (618,1160);
},
{
name = top;
pos = (618,1400);
},
{
name = topleft;
pos = (-30,1400);
}
);
hints = (
{
horizontal = 1;
origin = (0,4);
target = up;
type = BottomGhost;
},
{
horizontal = 1;
origin = (0,6);
target = (0,1);
type = Stem;
},
{
horizontal = 1;
origin = (0,3);
target = down;
type = TopGhost;
},
{
origin = (0,4);
target = (0,5);
type = Stem;
},
{
origin = (0,8);
target = (0,9);
type = Stem;
}
);
layerId = "10BC12B3-5274-42E3-B5BC-F74F362F0DF4";
shapes = (
{
closed = 1;
nodes = (
(866,900,l),
(370,900,l),
(370,1400,l),
(70,1400,l),
(70,0,l),
(370,0,l),
(370,600,l),
(866,600,l),
(866,0,l),
(1166,0,l),
(1166,1400,l),
(866,1400,l)
);
}
);
width = 1236;
},
{
anchors = (
{
name = bottom;
pos = (587,0);
},
{
name = center;
pos = (587,700);
},
{
name = hbar;
pos = (587,1200);
},
{
name = top;
pos = (587,1400);
},
{
name = topleft;
pos = (0,1400);
}
);
hints = (
{
horizontal = 1;
origin = (0,4);
target = up;
type = BottomGhost;
},
{
horizontal = 1;
origin = (0,6);
target = (0,1);
type = Stem;
},
{
horizontal = 1;
origin = (0,3);
target = down;
type = TopGhost;
},
{
origin = (0,4);
target = (0,5);
type = Stem;
},
{
origin = (0,8);
target = (0,9);
type = Stem;
}
);
layerId = "9AF1F7D9-E035-453E-B2A8-46DE370997D0";
shapes = (
{
closed = 1;
nodes = (
(1014,780,l),
(160,780,l),
(160,1400,l),
(100,1400,l),
(100,0,l),
(160,0,l),
(160,720,l),
(1014,720,l),
(1014,0,l),
(1074,0,l),
(1074,1400,l),
(1014,1400,l)
);
}
);
width = 1174;
}
);
unicode = 72;
},
{
glyphname = I;
kernLeft = H;
kernRight = H;
lastChange = "2023-12-28 00:57:54 +0000";
layers = (
{
anchors = (
{
name = bottom;
pos = (220,0);
},
{
name = ogonek;
pos = (370,0);
},
{
name = top;
pos = (220,1400);
},
{
name = topleft;
pos = (-60,1400);
}
);
hints = (
{
horizontal = 1;
origin = (0,3);
target = up;
type = BottomGhost;
},
{
horizontal = 1;
origin = (0,2);
target = down;
type = TopGhost;
},
{
origin = (0,3);
target = (0,0);
type = Stem;
}
);
layerId = "10BC12B3-5274-42E3-B5BC-F74F362F0DF4";
shapes = (
{
closed = 1;
nodes = (
(370,0,l),
(370,1400,l),
(70,1400,l),
(70,0,l)
);
}
);
width = 440;
},
{
anchors = (
{
name = bottom;
pos = (130,0);
},
{
name = ogonek;
pos = (160,0);
},
{
name = top;
pos = (130,1400);
},
{
name = topleft;
pos = (-30,1400);
}
);
hints = (
{
horizontal = 1;
origin = (0,3);
target = up;
type = BottomGhost;
},
{
horizontal = 1;
origin = (0,2);
target = down;
type = TopGhost;
},
{
origin = (0,3);
target = (0,0);
type = Stem;
}
);
layerId = "9AF1F7D9-E035-453E-B2A8-46DE370997D0";
shapes = (
{
closed = 1;
nodes = (
(160,0,l),
(160,1400,l),
(100,1400,l),
(100,0,l)
);
}
);
width = 260;
}
);
metricLeft = H;
metricRight = H;
unicode = 73;
},
{
glyphname = J;
kernLeft = J;
kernRight = H;
lastChange = "2023-12-28 00:57:55 +0000";
layers = (
{
anchors = (
{
name = bottom;
pos = (437,0);
},
{
name = top;
pos = (634,1400);
}
);
hints = (
{
horizontal = 1;
origin = (0,15);
target = (0,8);
type = Stem;
},
{
horizontal = 1;
origin = (0,4);
target = down;
type = TopGhost;
},
{
origin = (0,5);
target = (0,2);
type = Stem;
}
);
layerId = "10BC12B3-5274-42E3-B5BC-F74F362F0DF4";
shapes = (
{
closed = 1;
nodes = (
(572,-26,o),
(784,186,o),
(784,446,cs),
(784,1400,l),
(484,1400,l),
(484,446,ls),
(484,352,o),
(406,274,o),
(312,274,cs),
(260,274,o),
(224,296,o),
(202,314,c),
(10,84,l),
(94,12,o),
(202,-26,o),
(312,-26,cs)
);
}
);
width = 854;
},
{
anchors = (
{
name = bottom;
pos = (339,0);
},
{
name = top;
pos = (558,1400);
}
);
hints = (
{
horizontal = 1;
origin = (0,15);
target = (0,8);
type = Stem;
},
{
horizontal = 1;
origin = (0,4);
target = down;
type = TopGhost;
},
{
origin = (0,5);
target = (0,2);
type = Stem;
}
);
layerId = "9AF1F7D9-E035-453E-B2A8-46DE370997D0";
shapes = (
{
closed = 1;
nodes = (
(430,-26,o),
(588,152,o),
(588,346,cs),
(588,1400,l),
(528,1400,l),
(528,346,ls),
(528,184,o),
(396,34,o),
(234,34,cs),
(166,34,o),
(100,58,o),
(48,102,c),
(10,56,l),
(74,0,o),
(152,-26,o),
(234,-26,cs)
);
}
);
width = 688;
}
);
metricRight = H;
unicode = 74;
},
{
glyphname = K;
kernLeft = H;
kernRight = K;
lastChange = "2023-12-28 00:57:57 +0000";
layers = (
{
anchors = (
{
name = bottom;
pos = (565,0);
},
{
name = top;
pos = (565,1400);
}
);
hints = (
{
horizontal = 1;
origin = (0,6);
target = up;
type = BottomGhost;
},
{
horizontal = 1;
origin = (0,5);
target = down;
type = TopGhost;
},
{
origin = (0,6);
target = (0,7);
type = Stem;
}
);
layerId = "10BC12B3-5274-42E3-B5BC-F74F362F0DF4";
shapes = (
{
closed = 1;
nodes = (
(606,740,l),
(1160,1400,l),
(768,1400,l),
(370,924,l),
(370,1400,l),
(70,1400,l),
(70,0,l),
(370,0,l),
(370,458,l),
(410,506,l),
(768,0,l),
(1160,0,l)
);
}
);
width = 1160;
},
{
anchors = (
{
name = bottom;
pos = (472,0);
},
{
name = top;
pos = (472,1400);
}
);
hints = (
{
horizontal = 1;
origin = (0,6);
target = up;
type = BottomGhost;
},
{
horizontal = 1;
origin = (0,5);
target = down;
type = TopGhost;
},
{
origin = (0,6);
target = (0,7);
type = Stem;
}
);
layerId = "9AF1F7D9-E035-453E-B2A8-46DE370997D0";
shapes = (
{
closed = 1;
nodes = (
(358,738,l),
(914,1400,l),
(836,1400,l),
(160,594,l),
(160,1400,l),
(100,1400,l),
(100,0,l),
(160,0,l),
(160,500,l),
(318,690,l),
(828,0,l),
(904,0,l)
);
}
);
width = 914;
}
);
metricLeft = H;
unicode = 75;
},
{
glyphname = L;
kernLeft = H;
kernRight = L;
lastChange = "2023-12-28 00:57:59 +0000";
layers = (
{
anchors = (
{
name = bottom;
pos = (495,0);
},
{
name = center;
pos = (485,700);
},
{
name = top;
pos = (220,1400);
},
{
name = topright;
pos = (624,1102);
}
);
hints = (
{
horizontal = 1;
origin = (0,5);
target = (0,2);
type = Stem;
},
{
horizontal = 1;
origin = (0,4);
target = down;
type = TopGhost;
},
{
origin = (0,5);
target = (0,2);
type = Stem;
}
);
layerId = "10BC12B3-5274-42E3-B5BC-F74F362F0DF4";
shapes = (
{
closed = 1;
nodes = (
(920,0,l),
(920,300,l),
(370,300,l),
(370,1400,l),
(70,1400,l),
(70,0,l)
);
}
);
width = 940;
},
{
anchors = (
{
name = bottom;
pos = (481,0);
},
{
name = center;
pos = (471,700);
},
{
name = top;
pos = (130,1400);
},
{
name = topright;
pos = (429,1102);
}
);
hints = (
{
horizontal = 1;
origin = (0,5);
target = (0,2);
type = Stem;
},
{
horizontal = 1;
origin = (0,4);
target = down;
type = TopGhost;
},
{
origin = (0,5);
target = (0,2);
type = Stem;
}
);
layerId = "9AF1F7D9-E035-453E-B2A8-46DE370997D0";
shapes = (
{
closed = 1;
nodes = (
(850,0,l),
(850,60,l),
(160,60,l),
(160,1400,l),
(100,1400,l),
(100,0,l)
);
}
);
width = 870;
}
);
metricLeft = H;
unicode = 76;
},
{
glyphname = Lslash;
kernLeft = H;
kernRight = L;
lastChange = "2023-12-28 00:58:00 +0000";
layers = (
{
layerId = "9AF1F7D9-E035-453E-B2A8-46DE370997D0";
shapes = (
{
closed = 1;
nodes = (
(198,1400,l),
(198,687,l),
(20,584,l),
(50,532,l),
(198,618,l),
(198,0,l),
(948,0,l),
(948,60,l),
(258,60,l),
(258,652,l),
(686,900,l),
(656,952,l),
(258,722,l),
(258,1400,l)
);
}
);
width = 968;
},
{
layerId = "10BC12B3-5274-42E3-B5BC-F74F362F0DF4";
shapes = (
{
closed = 1;
nodes = (
(229,1400,l),
(229,826,l),
(-10,688,l),
(140,428,l),
(229,479,l),
(229,0,l),
(1079,0,l),
(1079,300,l),
(529,300,l),
(529,652,l),
(961,902,l),
(811,1161,l),
(529,999,l),
(529,1400,l)
);
}
);
width = 1099;
}
);
metricLeft = "=H-80";
metricRight = L;
unicode = 321;
},
{
glyphname = M;
kernLeft = M;
kernRight = M;
lastChange = "2023-12-28 00:58:03 +0000";
layers = (
{
anchors = (
{
name = bottom;
pos = (852,0);
},
{
name = top;
pos = (852,1400);
}
);
hints = (
{
horizontal = 1;
origin = (0,12);
target = up;
type = BottomGhost;
},
{
horizontal = 1;
origin = (0,11);
target = down;
type = TopGhost;
}
);
layerId = "10BC12B3-5274-42E3-B5BC-F74F362F0DF4";
shapes = (
{
closed = 1;
nodes = (
(316,0,l),
(462,756,l),
(748,0,l),
(956,0,l),
(1242,756,l),
(1388,0,l),
(1694,0,l),
(1422,1400,l),
(1166,1400,l),
(852,574,l),
(538,1400,l),
(282,1400,l),
(10,0,l)
);
}
);
width = 1704;
},
{
anchors = (
{
name = bottom;
pos = (766,0);
},
{
name = top;
pos = (766,1400);
}
);
hints = (
{
horizontal = 1;
origin = (0,12);
target = up;
type = BottomGhost;
},
{
horizontal = 1;
origin = (0,11);
target = down;
type = TopGhost;
}
);
layerId = "9AF1F7D9-E035-453E-B2A8-46DE370997D0";
shapes = (
{
closed = 1;
nodes = (
(100,0,l),
(338,1228,l),
(750,138,l),
(780,138,l),
(1192,1228,l),
(1430,0,l),
(1492,0,l),
(1220,1400,l),
(1194,1400,l),
(766,268,l),
(336,1400,l),
(310,1400,l),
(40,0,l)
);
}
);
width = 1532;
}
);
metricLeft = "=H-60";
metricRight = "=H-60";
unicode = 77;
},
{
glyphname = N;
kernLeft = H;
kernRight = H;
lastChange = "2023-12-28 00:58:06 +0000";
layers = (
{
anchors = (
{
name = bottom;
pos = (638,0);
},
{
name = bottomright;
pos = (1206,0);
},
{
name = top;
pos = (638,1400);
}
);
hints = (
{
horizontal = 1;
origin = (0,9);
target = up;
type = BottomGhost;
},
{
horizontal = 1;
origin = (0,8);
target = down;
type = TopGhost;
},
{
origin = (0,9);
target = (0,0);
type = Stem;
},
{
origin = (0,6);
target = (0,3);
type = Stem;
}
);
layerId = "10BC12B3-5274-42E3-B5BC-F74F362F0DF4";
shapes = (
{
closed = 1;
nodes = (
(370,0,l),
(370,858,l),
(882,0,l),
(1206,0,l),
(1206,1400,l),
(906,1400,l),
(906,542,l),
(394,1400,l),
(70,1400,l),
(70,0,l)
);
}
);
width = 1276;
},
{
anchors = (
{
name = bottom;
pos = (589,0);
},
{
name = bottomright;
pos = (1078,0);
},
{
name = top;
pos = (589,1400);
}
);
hints = (
{
horizontal = 1;
origin = (0,9);
target = up;
type = BottomGhost;
},
{
horizontal = 1;
origin = (0,8);
target = down;
type = TopGhost;
},
{
origin = (0,9);
target = (0,0);
type = Stem;
},
{
origin = (0,6);
target = (0,3);
type = Stem;
}
);
layerId = "9AF1F7D9-E035-453E-B2A8-46DE370997D0";
shapes = (
{
closed = 1;
nodes = (
(160,0,l),
(160,1292,l),
(1014,0,l),
(1078,0,l),
(1078,1400,l),
(1018,1400,l),
(1018,108,l),
(166,1400,l),
(100,1400,l),
(100,0,l)
);
}
);
width = 1178;
}
);
metricLeft = H;
metricRight = H;
unicode = 78;
},
{
glyphname = O;
kernLeft = O;
kernRight = O;
lastChange = "2023-12-28 01:08:59 +0000";
layers = (
{
anchors = (
{
name = bottom;
pos = (730,0);
},
{
name = center;
pos = (730,700);
},
{
name = ogonek;
pos = (1346,10);
},
{
name = top;
pos = (730,1400);
},
{
name = topleft;
pos = (-20,1400);
},
{
name = topright;
pos = (1480,1400);
}
);
hints = (
{
horizontal = 1;
origin = (0,11);
target = (1,11);
type = Stem;
},
{
horizontal = 1;
origin = (0,5);
target = (1,5);
type = Stem;
},
{
origin = (0,8);
target = (1,2);
type = Stem;
},
{
origin = (1,8);
target = (0,2);
type = Stem;
}
);
layerId = "10BC12B3-5274-42E3-B5BC-F74F362F0DF4";
shapes = (
{
closed = 1;
nodes = (
(1110,-26,o),
(1420,300,o),
(1420,700,cs),
(1420,1100,o),
(1110,1426,o),
(730,1426,cs),
(350,1426,o),
(40,1100,o),
(40,700,cs),
(40,300,o),
(350,-26,o),
(730,-26,cs)
);
},
{
closed = 1;
nodes = (
(516,274,o),
(340,466,o),
(340,700,cs),
(340,934,o),
(516,1126,o),
(730,1126,cs),
(944,1126,o),
(1120,934,o),
(1120,700,cs),
(1120,466,o),
(944,274,o),
(730,274,cs)
);
}
);
width = 1460;
},
{
anchors = (
{
name = bottom;
pos = (740,0);
},
{
name = center;
pos = (740,700);
},
{
name = ogonek;
pos = (1356,10);
},
{
name = top;
pos = (740,1400);
},
{
name = topleft;
pos = (-10,1400);
},
{
name = topright;
pos = (1490,1400);
}
);
hints = (
{
horizontal = 1;
origin = (0,11);
target = (1,11);
type = Stem;
},
{
horizontal = 1;
origin = (0,5);
target = (1,5);
type = Stem;
},
{
origin = (0,8);
target = (1,2);
type = Stem;
},
{
origin = (1,8);
target = (0,2);
type = Stem;
}
);
layerId = "9AF1F7D9-E035-453E-B2A8-46DE370997D0";
shapes = (
{
closed = 1;
nodes = (
(1120,-26,o),
(1430,300,o),
(1430,700,cs),
(1430,1100,o),
(1120,1426,o),
(740,1426,cs),
(360,1426,o),
(50,1100,o),
(50,700,cs),
(50,300,o),
(360,-26,o),
(740,-26,cs)
);
},
{
closed = 1;
nodes = (
(392,34,o),
(110,334,o),
(110,700,cs),
(110,1060,o),
(388,1366,o),
(740,1366,cs),
(1088,1366,o),
(1370,1064,o),
(1370,700,cs),
(1370,340,o),
(1092,34,o),
(740,34,cs)
);
}
);
width = 1480;
}
);
unicode = 79;
},
{
glyphname = Oslash;
kernLeft = O;
kernRight = O;
lastChange = "2023-12-28 01:11:01 +0000";
layers = (
{
anchors = (
{
name = bottom;
pos = (730,0);
},
{
name = top;
pos = (730,1400);
}
);
hints = (
{
horizontal = 1;
origin = (0,3);
target = (2,9);
type = Stem;
},
{
horizontal = 1;
origin = (0,15);
target = (1,5);
type = Stem;
},
{
origin = (0,18);
target = (1,2);
type = Stem;
},
{
origin = (2,6);
target = (0,6);
type = Stem;
}
);
layerId = "10BC12B3-5274-42E3-B5BC-F74F362F0DF4";
shapes = (
{
closed = 1;
nodes = (
(508,14,l),
(578,-12,o),
(652,-26,o),
(730,-26,cs),
(1110,-26,o),
(1420,300,o),
(1420,700,cs),
(1420,906,o),
(1338,1092,o),
(1206,1226,c),
(1292,1372,l),
(1032,1522,l),
(954,1388,l),
(884,1412,o),
(810,1426,o),
(730,1426,cs),
(350,1426,o),
(40,1100,o),
(40,700,cs),
(40,494,o),
(124,308,o),
(254,176,c),
(170,28,l),
(430,-122,l)
);
},
{
closed = 1;
nodes = (
(368,522,o),
(340,608,o),
(340,700,cs),
(340,934,o),
(516,1126,o),
(730,1126,cs),
(754,1126,o),
(778,1124,o),
(800,1120,c),
(414,452,l)
);
},
{
closed = 1;
nodes = (
(708,274,o),
(684,276,o),
(662,282,c),
(1048,948,l),
(1094,878,o),
(1120,792,o),
(1120,700,cs),
(1120,466,o),
(944,274,o),
(730,274,cs)
);
}
);
width = 1460;
},
{
anchors = (
{
name = bottom;
pos = (740,0);
},
{
name = top;
pos = (740,1400);
}
);
hints = (
{
horizontal = 1;
origin = (0,3);
target = (2,9);
type = Stem;
},
{
horizontal = 1;
origin = (0,15);
target = (1,5);
type = Stem;
},
{
origin = (0,18);
target = (1,2);
type = Stem;
},
{
origin = (2,6);
target = (0,6);
type = Stem;
}
);
layerId = "9AF1F7D9-E035-453E-B2A8-46DE370997D0";
shapes = (
{
closed = 1;
nodes = (
(408,64,l),
(508,8,o),
(620,-26,o),
(740,-26,cs),
(1120,-26,o),
(1430,300,o),
(1430,700,cs),
(1430,952,o),
(1308,1174,o),
(1124,1304,c),
(1198,1432,l),
(1146,1462,l),
(1074,1336,l),
(974,1394,o),
(862,1426,o),
(740,1426,cs),
(360,1426,o),
(50,1100,o),
(50,700,cs),
(50,450,o),
(174,228,o),
(358,96,c),
(284,-32,l),
(336,-62,l)
);
},
{
closed = 1;
nodes = (
(220,270,o),
(110,472,o),
(110,700,cs),
(110,1060,o),
(388,1366,o),
(740,1366,cs),
(850,1366,o),
(954,1336,o),
(1044,1284,c),
(388,150,l)
);
},
{
closed = 1;
nodes = (
(632,34,o),
(528,64,o),
(438,116,c),
(1094,1252,l),
(1260,1130,o),
(1370,928,o),
(1370,700,cs),
(1370,340,o),
(1092,34,o),
(740,34,cs)
);
}
);
width = 1480;
}
);
metricLeft = O;
metricRight = O;
unicode = 216;
},
{
glyphname = OE;
kernLeft = O;
kernRight = E;
lastChange = "2023-12-28 01:11:03 +0000";
layers = (
{
anchors = (
{
name = bottom;
pos = (1008,0);
},
{
name = top;
pos = (1008,1400);
}
);
hints = (
{
horizontal = 1;
origin = (0,24);
target = (1,11);
type = Stem;
},
{
horizontal = 1;
origin = (0,7);
target = (0,10);
type = Stem;
},
{
horizontal = 1;
origin = (0,14);
target = (0,11);
type = Stem;
},
{
horizontal = 1;
origin = (0,3);
target = (0,6);
type = Stem;
},
{
horizontal = 1;
origin = (0,18);
target = (1,5);
type = Stem;
},
{
origin = (0,21);
target = (1,2);
type = Stem;
},
{
origin = (1,8);
target = (0,6);
type = Stem;
}
);
layerId = "10BC12B3-5274-42E3-B5BC-F74F362F0DF4";
shapes = (
{
closed = 1;
nodes = (
(876,-26,o),
(1012,22,o),
(1124,104,c),
(1124,0,l),
(1956,0,l),
(1956,300,l),
(1424,300,l),
(1424,550,l),
(1860,550,l),
(1860,850,l),
(1424,850,l),
(1424,1100,l),
(1956,1100,l),
(1956,1400,l),
(1124,1400,l),
(1124,1296,l),
(1012,1378,o),
(876,1426,o),
(730,1426,cs),
(350,1426,o),
(40,1100,o),
(40,700,cs),
(40,300,o),
(350,-26,o),
(730,-26,cs)
);
},
{
closed = 1;
nodes = (
(516,274,o),
(340,466,o),
(340,700,cs),
(340,934,o),
(516,1126,o),
(730,1126,cs),
(944,1126,o),
(1120,934,o),
(1120,700,cs),
(1120,466,o),
(944,274,o),
(730,274,cs)
);
}
);
width = 1996;
},
{
anchors = (
{
name = bottom;
pos = (1073,0);
},
{
name = top;
pos = (1073,1400);
}
);
hints = (
{
horizontal = 1;
origin = (0,24);
target = (1,11);
type = Stem;
},
{
horizontal = 1;
origin = (0,7);
target = (0,10);
type = Stem;
},
{
horizontal = 1;
origin = (0,14);
target = (0,11);
type = Stem;
},
{
horizontal = 1;
origin = (0,3);
target = (0,6);
type = Stem;
},
{
horizontal = 1;
origin = (0,18);
target = (1,5);
type = Stem;
},
{
origin = (0,21);
target = (1,2);
type = Stem;
},
{
origin = (0,3);
target = (0,6);
type = Stem;
}
);
layerId = "9AF1F7D9-E035-453E-B2A8-46DE370997D0";
shapes = (
{
closed = 1;
nodes = (
(1020,-26,o),
(1262,152,o),
(1370,404,c),
(1370,0,l),
(2076,0,l),
(2076,60,l),
(1430,60,l),
(1430,670,l),
(1980,670,l),
(1980,730,l),
(1430,730,l),
(1430,1340,l),
(2076,1340,l),
(2076,1400,l),
(1370,1400,l),
(1370,996,l),
(1262,1248,o),
(1020,1426,o),
(740,1426,cs),
(360,1426,o),
(50,1100,o),
(50,700,cs),
(50,300,o),
(360,-26,o),
(740,-26,cs)
);
},
{
closed = 1;
nodes = (
(392,34,o),
(110,334,o),
(110,700,cs),
(110,1060,o),
(388,1366,o),
(740,1366,cs),
(1088,1366,o),
(1370,1064,o),
(1370,700,cs),
(1370,340,o),
(1092,34,o),
(740,34,cs)
);
}
);
width = 2126;
}
);
metricLeft = O;
metricRight = E;
unicode = 338;
},
{
glyphname = P;
kernLeft = H;
kernRight = P;
lastChange = "2023-12-28 00:58:07 +0000";
layers = (
{
anchors = (
{
name = bottom;
pos = (520,0);
},
{
name = top;
pos = (520,1400);
}
);
hints = (
{
horizontal = 1;
origin = (0,10);
target = up;
type = BottomGhost;
},
{
horizontal = 1;
origin = (0,1);
target = (1,8);
type = Stem;
},
{
horizontal = 1;
origin = (0,9);
target = (1,0);
type = Stem;
},
{
origin = (0,10);
target = (0,0);
type = Stem;
},
{
origin = (1,4);
target = (0,5);
type = Stem;
}
);
layerId = "10BC12B3-5274-42E3-B5BC-F74F362F0DF4";
shapes = (
{
closed = 1;
nodes = (
(370,0,l),
(370,544,l),
(598,544,ls),
(820,544,o),
(1010,736,o),
(1010,972,cs),
(1010,1204,o),
(828,1400,o),
(598,1400,cs),
(70,1400,l),
(70,0,l)
);
},
{
closed = 1;
nodes = (
(370,1144,l),
(564,1144,ls),
(644,1144,o),
(710,1076,o),
(710,994,cs),
(710,912,o),
(644,844,o),
(564,844,cs),
(370,844,l)
);
}
);
width = 1030;
},
{
anchors = (
{
name = bottom;
pos = (480,0);
},
{
name = top;
pos = (480,1400);
}
);
hints = (
{
horizontal = 1;
origin = (0,10);
target = up;
type = BottomGhost;
},
{
horizontal = 1;
origin = (0,1);
target = (1,8);
type = Stem;
},
{
horizontal = 1;
origin = (0,9);
target = (1,0);
type = Stem;
},
{
origin = (0,10);
target = (0,0);
type = Stem;
},
{
origin = (1,4);
target = (0,5);
type = Stem;
}
);
layerId = "9AF1F7D9-E035-453E-B2A8-46DE370997D0";
shapes = (
{
closed = 1;
nodes = (
(160,0,l),
(160,600,l),
(508,600,ls),
(722,600,o),
(900,770,o),
(900,1000,cs),
(900,1228,o),
(728,1400,o),
(508,1400,cs),
(100,1400,l),
(100,0,l)
);
},
{
closed = 1;
nodes = (
(160,1340,l),
(508,1340,ls),
(690,1340,o),
(840,1196,o),
(840,1000,cs),
(840,804,o),
(690,660,o),
(508,660,cs),
(160,660,l)
);
}
);
width = 920;
}
);
metricLeft = H;
unicode = 80;
},
{
glyphname = Thorn;
kernLeft = l;
kernRight = o;
lastChange = "2023-12-28 00:58:09 +0000";
layers = (
{
anchors = (
{
name = bottom;
pos = (520,0);
},
{
name = top;
pos = (520,1400);
}
);
hints = (
{
horizontal = 1;
origin = (0,12);
target = up;
type = BottomGhost;
},
{
horizontal = 1;
origin = (0,1);
target = (1,8);
type = Stem;
},
{
horizontal = 1;
origin = (1,0);
target = (0,9);
type = Stem;
},
{
horizontal = 1;
origin = (0,11);
target = down;
type = TopGhost;
},
{
origin = (0,12);
target = (0,0);
type = Stem;
},
{
origin = (1,4);
target = (0,5);
type = Stem;
}
);
layerId = "10BC12B3-5274-42E3-B5BC-F74F362F0DF4";
shapes = (
{
closed = 1;
nodes = (
(370,0,l),
(370,272,l),
(598,272,ls),
(820,272,o),
(1010,464,o),
(1010,700,cs),
(1010,932,o),
(828,1128,o),
(598,1128,cs),
(370,1128,l),
(370,1400,l),
(70,1400,l),
(70,0,l)
);
},
{
closed = 1;
nodes = (
(370,872,l),
(564,872,ls),
(644,872,o),
(710,804,o),
(710,722,cs),
(710,640,o),
(644,572,o),
(564,572,cs),
(370,572,l)
);
}
);
width = 1050;
},
{
anchors = (
{
name = bottom;
pos = (480,0);
},
{
name = top;
pos = (480,1400);
}
);
hints = (
{
horizontal = 1;
origin = (0,12);
target = up;
type = BottomGhost;
},
{
horizontal = 1;
origin = (0,1);
target = (1,8);
type = Stem;
},
{
horizontal = 1;
origin = (1,0);
target = (0,9);
type = Stem;
},
{
horizontal = 1;
origin = (0,11);
target = down;
type = TopGhost;
},
{
origin = (0,12);
target = (0,0);
type = Stem;
},
{
origin = (1,4);
target = (0,5);
type = Stem;
}
);
layerId = "9AF1F7D9-E035-453E-B2A8-46DE370997D0";
shapes = (
{
closed = 1;
nodes = (
(160,0,l),
(160,300,l),
(508,300,ls),
(722,300,o),
(900,470,o),
(900,700,cs),
(900,928,o),
(728,1100,o),
(508,1100,cs),
(160,1100,l),
(160,1400,l),
(100,1400,l),
(100,0,l)
);
},
{
closed = 1;
nodes = (
(160,1040,l),
(508,1040,ls),
(690,1040,o),
(840,896,o),
(840,700,cs),
(840,504,o),
(690,360,o),
(508,360,cs),
(160,360,l)
);
}
);
width = 960;
}
);
metricLeft = H;
metricRight = o;
unicode = 222;
},
{
glyphname = Q;
kernLeft = O;
kernRight = O;
lastChange = "2023-12-28 01:04:01 +0000";
layers = (
{
anchors = (
{
name = bottom;
pos = (752,0);
},
{
name = top;
pos = (752,1400);
}
);
hints = (
{
horizontal = 1;
origin = (0,13);
target = (1,17);
type = Stem;
},
{
horizontal = 1;
origin = (1,5);
target = (0,7);
type = Stem;
},
{
origin = (0,10);
target = (1,2);
type = Stem;
},
{
origin = (1,8);
target = (0,4);
type = Stem;
}
);
layerId = "10BC12B3-5274-42E3-B5BC-F74F362F0DF4";
shapes = (
{
closed = 1;
nodes = (
(1464,160,l),
(1310,314,l),
(1378,428,o),
(1420,562,o),
(1420,708,cs),
(1420,1108,o),
(1110,1434,o),
(730,1434,cs),
(350,1434,o),
(40,1108,o),
(40,708,cs),
(40,306,o),
(350,-18,o),
(730,-18,cs),
(868,-18,o),
(996,24,o),
(1102,96,c),
(1252,-52,l)
);
},
{
closed = 1;
nodes = (
(516,282,o),
(340,472,o),
(340,708,cs),
(340,942,o),
(516,1134,o),
(730,1134,cs),
(944,1134,o),
(1120,942,o),
(1120,708,cs),
(1120,648,o),
(1108,590,o),
(1086,538,c),
(1012,612,l),
(800,400,l),
(884,316,l),
(836,294,o),
(784,282,o),
(730,282,cs)
);
}
);
width = 1504;
},
{
anchors = (
{
name = bottom;
pos = (739,0);
},
{
name = top;
pos = (739,1400);
}
);
hints = (
{
horizontal = 1;
origin = (0,17);
target = up;
type = BottomGhost;
},
{
horizontal = 1;
origin = (0,7);
target = (1,5);
type = Stem;
},
{
horizontal = 1;
origin = (0,13);
target = (1,17);
type = Stem;
},
{
origin = (0,10);
target = (1,2);
type = Stem;
},
{
origin = (1,8);
target = (0,4);
type = Stem;
}
);
layerId = "9AF1F7D9-E035-453E-B2A8-46DE370997D0";
shapes = (
{
closed = 1;
nodes = (
(1424,32,l),
(1246,208,l),
(1360,338,o),
(1428,510,o),
(1428,700,cs),
(1428,1100,o),
(1120,1426,o),
(740,1426,cs),
(358,1426,o),
(50,1100,o),
(50,700,cs),
(50,300,o),
(358,-26,o),
(740,-26,cs),
(918,-26,o),
(1082,46,o),
(1206,166,c),
(1382,-10,l)
);
},
{
closed = 1;
nodes = (
(394,34,o),
(110,334,o),
(110,700,cs),
(110,1058,o),
(388,1366,o),
(740,1366,cs),
(1084,1366,o),
(1368,1066,o),
(1368,700,cs),
(1368,536,o),
(1310,376,o),
(1204,252,c),
(936,520,l),
(894,476,l),
(1162,208,l),
(1052,98,o),
(894,34,o),
(740,34,cs)
);
}
);
width = 1478;
}
);
metricLeft = O;
metricRight = O;
unicode = 81;
},
{
glyphname = R;
kernLeft = H;
kernRight = R;
lastChange = "2023-12-28 00:58:10 +0000";
layers = (
{
anchors = (
{
name = bottom;
pos = (583,0);
},
{
name = top;
pos = (474,1400);
}
);
hints = (
{
horizontal = 1;
origin = (0,13);
target = up;
type = BottomGhost;
},
{
horizontal = 1;
origin = (0,1);
target = (1,8);
type = Stem;
},
{
horizontal = 1;
origin = (0,12);
target = (1,0);
type = Stem;
},
{
origin = (0,13);
target = (0,0);
type = Stem;
},
{
origin = (1,4);
target = (0,8);
type = Stem;
}
);
layerId = "10BC12B3-5274-42E3-B5BC-F74F362F0DF4";
shapes = (
{
closed = 1;
nodes = (
(370,0,l),
(370,544,l),
(474,544,l),
(790,0,l),
(1136,0,l),
(804,572,l),
(954,644,o),
(1050,792,o),
(1050,972,cs),
(1050,1206,o),
(870,1400,o),
(640,1400,cs),
(70,1400,l),
(70,0,l)
);
},
{
closed = 1;
nodes = (
(370,1144,l),
(604,1144,ls),
(684,1144,o),
(750,1076,o),
(750,994,cs),
(750,912,o),
(684,844,o),
(604,844,cs),
(370,844,l)
);
}
);
width = 1166;
},
{
anchors = (
{
name = bottom;
pos = (485,0);
},
{
name = top;
pos = (374,1400);
}
);
hints = (
{
horizontal = 1;
origin = (0,13);
target = up;
type = BottomGhost;
},
{
horizontal = 1;
origin = (0,1);
target = (1,8);
type = Stem;
},
{
horizontal = 1;
origin = (0,12);
target = (1,0);
type = Stem;
},
{
horizontal = 1;
origin = (0,5);
target = (1,8);
type = Stem;
},
{
origin = (0,13);
target = (0,0);
type = Stem;
},
{
origin = (1,4);
target = (0,8);
type = Stem;
}
);
layerId = "9AF1F7D9-E035-453E-B2A8-46DE370997D0";
shapes = (
{
closed = 1;
nodes = (
(160,0,l),
(160,600,l),
(492,600,l),
(840,0,l),
(910,0,l),
(562,602,l),
(760,618,o),
(920,782,o),
(920,1000,cs),
(920,1228,o),
(748,1400,o),
(528,1400,cs),
(100,1400,l),
(100,0,l)
);
},
{
closed = 1;
nodes = (
(160,1340,l),
(528,1340,ls),
(710,1340,o),
(860,1196,o),
(860,1000,cs),
(860,804,o),
(710,660,o),
(528,660,cs),
(160,660,l)
);
}
);
width = 990;
}
);
metricLeft = H;
unicode = 82;
},
{
glyphname = S;
kernLeft = S;
kernRight = S;
lastChange = "2023-12-28 01:01:35 +0000";
layers = (
{
anchors = (
{
name = bottom;
pos = (655,0);
},
{
name = top;
pos = (514,1400);
}
);
hints = (
{
horizontal = 1;
place = (-26,300);
type = Stem;
},
{
horizontal = 1;
place = (1401,-277);
type = Stem;
},
{
place = (100,300);
type = Stem;
},
{
place = (864,300);
type = Stem;
}
);
layerId = "10BC12B3-5274-42E3-B5BC-F74F362F0DF4";
shapes = (
{
closed = 1;
nodes = (
(823,-26,o),
(1045,156,o),
(1045,412,cs),
(1045,693,o),
(806,814,o),
(512,889,cs),
(448,905,o),
(375,951,o),
(375,1014,cs),
(375,1074,o),
(450,1111,o),
(513,1111,cs),
(569,1111,o),
(652,1085,o),
(683,1016,c),
(956,1144,l),
(890,1289,o),
(720,1413,o),
(514,1413,cs),
(281,1413,o),
(75,1247,o),
(75,1014,cs),
(75,807,o),
(244,633,o),
(569,576,cs),
(655,561,o),
(746,493,o),
(746,410,cs),
(746,326,o),
(648,276,o),
(561,276,cs),
(447,276,o),
(314,372,o),
(278,424,c),
(30,254,l),
(137,96,o),
(373,-26,o),
(563,-26,cs)
);
}
);
width = 1075;
},
{
anchors = (
{
name = bottom;
pos = (663,0);
},
{
name = top;
pos = (520,1400);
}
);
hints = (
{
horizontal = 1;
place = (-26,60);
type = Stem;
},
{
horizontal = 1;
place = (1418,60);
type = Stem;
},
{
place = (110,60);
type = Stem;
},
{
place = (1028,60);
type = Stem;
}
);
layerId = "9AF1F7D9-E035-453E-B2A8-46DE370997D0";
shapes = (
{
closed = 1;
nodes = (
(805,-26,o),
(1013,124,o),
(1013,349,cs),
(1013,559,o),
(831,711,o),
(493,780,cs),
(324,815,o),
(200,943,o),
(200,1083,cs),
(200,1241,o),
(351,1353,o),
(520,1353,cs),
(664,1353,o),
(807,1275,o),
(864,1149,c),
(918,1175,l),
(851,1323,o),
(683,1413,o),
(520,1413,cs),
(322,1413,o),
(141,1282,o),
(141,1082,cs),
(141,897,o),
(301,758,o),
(484,721,cs),
(798,656,o),
(953,525,o),
(953,349,cs),
(953,155,o),
(766,34,o),
(581,34,cs),
(394,34,o),
(187,168,o),
(109,280,c),
(60,247,l),
(138,127,o),
(368,-26,o),
(580,-26,cs)
);
}
);
width = 1093;
}
);
unicode = 83;
},
{
glyphname = Germandbls;
kernLeft = Germandbls;
kernRight = Germandbls;
lastChange = "2023-12-17 22:17:53 +0000";
layers = (
{
anchors = (
{
name = bottom;
pos = (623,0);
},
{
name = top;
pos = (623,1400);
}
);
hints = (
{
horizontal = 1;
origin = (0,37);
target = (0,19);
type = Stem;
},
{
horizontal = 1;
place = (594,144);
type = Stem;
},
{
horizontal = 1;
origin = (0,33);
target = (0,4);
type = Stem;
},
{
origin = (0,37);
target = (0,0);
type = Stem;
},
{
origin = (0,7);
target = (0,30);
type = Stem;
},
{
origin = (0,15);
target = (0,24);
type = Stem;
}
);
layerId = "10BC12B3-5274-42E3-B5BC-F74F362F0DF4";
shapes = (
{
closed = 1;
nodes = (
(420,0,l),
(420,950,ls),
(420,1058,o),
(508,1144,o),
(594,1144,cs),
(680,1144,o),
(758,1148,o),
(758,1074,cs),
(758,1040,o),
(590,858,o),
(590,704,cs),
(590,594,l),
(672,594,ls),
(776,594,o),
(920,556,o),
(920,424,cs),
(920,292,o),
(776,254,o),
(672,254,cs),
(590,254,l),
(650,0,l),
(704,0,ls),
(936,0,o),
(1186,150,o),
(1186,422,cs),
(1186,586,o),
(1010,770,o),
(832,734,c),
(974,906,o),
(1058,972,o),
(1058,1068,cs),
(1058,1248,o),
(858,1400,o),
(650,1400,cs),
(358,1400,o),
(120,1162,o),
(120,870,cs),
(120,0,l)
);
}
);
width = 1246;
},
{
anchors = (
{
name = bottom;
pos = (535,0);
},
{
name = top;
pos = (535,1400);
}
);
hints = (
{
horizontal = 1;
origin = (0,37);
target = (0,19);
type = Stem;
},
{
horizontal = 1;
origin = (0,11);
target = (0,27);
type = Stem;
},
{
horizontal = 1;
origin = (0,4);
target = (0,33);
type = Stem;
},
{
origin = (0,37);
target = (0,0);
type = Stem;
},
{
origin = (0,7);
target = (0,30);
type = Stem;
},
{
origin = (0,15);
target = (0,24);
type = Stem;
}
);
layerId = "9AF1F7D9-E035-453E-B2A8-46DE370997D0";
shapes = (
{
closed = 1;
nodes = (
(180,0,l),
(180,994,ls),
(180,1184,o),
(332,1338,o),
(522,1338,cs),
(672,1338,o),
(804,1282,o),
(806,1152,cs),
(808,1032,o),
(510,754,o),
(518,694,cs),
(522,662,l),
(588,662,ls),
(754,662,o),
(950,568,o),
(950,364,cs),
(950,156,o),
(756,60,o),
(590,60,cs),
(496,60,l),
(516,0,l),
(590,0,ls),
(788,0,o),
(1010,122,o),
(1010,362,cs),
(1010,588,o),
(802,740,o),
(602,720,c),
(800,992,o),
(876,1070,o),
(876,1152,cs),
(876,1320,o),
(716,1398,o),
(526,1398,cs),
(302,1398,o),
(120,1216,o),
(120,992,cs),
(120,0,l)
);
}
);
width = 1070;
}
);
unicode = 7838;
},
{
glyphname = T;
kernLeft = T;
kernRight = T;
lastChange = "2023-12-28 00:47:26 +0000";
layers = (
{
anchors = (
{
name = bottom;
pos = (570,0);
},
{
name = center;
pos = (570,700);
},
{
name = top;
pos = (570,1400);
}
);
hints = (
{
horizontal = 1;
origin = (0,3);
target = up;
type = BottomGhost;
},
{
horizontal = 1;
origin = (0,0);
target = (0,1);
type = Stem;
},
{
origin = (0,3);
target = (0,4);
type = Stem;
}
);
layerId = "10BC12B3-5274-42E3-B5BC-F74F362F0DF4";
shapes = (
{
closed = 1;
nodes = (
(20,1400,l),
(20,1100,l),
(420,1100,l),
(420,0,l),
(720,0,l),
(720,1100,l),
(1120,1100,l),
(1120,1400,l)
);
}
);
width = 1140;
},
{
anchors = (
{
name = bottom;
pos = (568,0);
},
{
name = center;
pos = (569,700);
},
{
name = top;
pos = (569,1400);
}
);
hints = (
{
horizontal = 1;
origin = (0,3);
target = up;
type = BottomGhost;
},
{
horizontal = 1;
origin = (0,0);
target = (0,1);
type = Stem;
},
{
origin = (0,3);
target = (0,4);
type = Stem;
}
);
layerId = "9AF1F7D9-E035-453E-B2A8-46DE370997D0";
shapes = (
{
closed = 1;
nodes = (
(20,1400,l),
(20,1340,l),
(538,1340,l),
(538,0,l),
(598,0,l),
(598,1340,l),
(1118,1340,l),
(1118,1400,l)
);
}
);
width = 1138;
}
);
unicode = 84;
},
{
glyphname = U;
kernLeft = H;
kernRight = H;
lastChange = "2023-12-28 00:58:12 +0000";
layers = (
{
anchors = (
{
name = bottom;
pos = (639,0);
},
{
name = ogonek;
pos = (812,0);
},
{
name = top;
pos = (639,1400);
},
{
name = topright;
pos = (1208,1400);
}
);
hints = (
{
horizontal = 1;
origin = (0,17);
target = (0,8);
type = Stem;
},
{
horizontal = 1;
origin = (0,13);
target = down;
type = TopGhost;
},
{
origin = (0,14);
target = (0,11);
type = Stem;
},
{
origin = (0,5);
target = (0,2);
type = Stem;
}
);
layerId = "10BC12B3-5274-42E3-B5BC-F74F362F0DF4";
shapes = (
{
closed = 1;
nodes = (
(976,-26,o),
(1208,246,o),
(1208,584,cs),
(1208,1400,l),
(908,1400,l),
(908,584,ls),
(908,412,o),
(812,274,o),
(640,274,cs),
(470,274,o),
(370,414,o),
(370,584,cs),
(370,1400,l),
(70,1400,l),
(70,584,ls),
(70,246,o),
(304,-26,o),
(640,-26,cs)
);
}
);
width = 1278;
},
{
anchors = (
{
name = bottom;
pos = (630,0);
},
{
name = ogonek;
pos = (719,-15);
},
{
name = top;
pos = (630,1400);
},
{
name = topright;
pos = (1160,1400);
}
);
hints = (
{
horizontal = 1;
origin = (0,17);
target = (0,8);
type = Stem;
},
{
horizontal = 1;
origin = (0,13);
target = down;
type = TopGhost;
},
{
origin = (0,14);
target = (0,11);
type = Stem;
},
{
origin = (0,5);
target = (0,2);
type = Stem;
}
);
layerId = "9AF1F7D9-E035-453E-B2A8-46DE370997D0";
shapes = (
{
closed = 1;
nodes = (
(966,-26,o),
(1160,246,o),
(1160,584,cs),
(1160,1400,l),
(1100,1400,l),
(1100,584,ls),
(1100,288,o),
(938,34,o),
(630,34,cs),
(326,34,o),
(160,284,o),
(160,584,cs),
(160,1400,l),
(100,1400,l),
(100,584,ls),
(100,246,o),
(294,-26,o),
(630,-26,cs)
);
}
);
width = 1260;
}
);
metricLeft = H;
metricRight = H;
unicode = 85;
},
{
glyphname = V;
kernLeft = W;
kernRight = W;
lastChange = "2023-12-28 01:00:37 +0000";
layers = (
{
anchors = (
{
name = bottom;
pos = (707,0);
},
{
name = top;
pos = (707,1400);
}
);
hints = (
{
horizontal = 1;
origin = (0,6);
target = up;
type = BottomGhost;
},
{
horizontal = 1;
origin = (0,5);
target = down;
type = TopGhost;
}
);
layerId = "10BC12B3-5274-42E3-B5BC-F74F362F0DF4";
shapes = (
{
closed = 1;
nodes = (
(901,0,l),
(1409,1400,l),
(1091,1400,l),
(707,344,l),
(323,1400,l),
(5,1400,l),
(513,0,l)
);
}
);
width = 1414;
},
{
anchors = (
{
name = bottom;
pos = (544,0);
},
{
name = top;
pos = (544,1400);
}
);
hints = (
{
horizontal = 1;
origin = (0,6);
target = up;
type = BottomGhost;
},
{
horizontal = 1;
origin = (0,5);
target = down;
type = TopGhost;
}
);
layerId = "9AF1F7D9-E035-453E-B2A8-46DE370997D0";
shapes = (
{
closed = 1;
nodes = (
(573,0,l),
(1083,1400,l),
(1019,1400,l),
(543,92,l),
(69,1400,l),
(5,1400,l),
(513,0,l)
);
}
);
width = 1088;
}
);
metricLeft = W;
metricRight = W;
unicode = 86;
},
{
glyphname = W;
kernLeft = W;
kernRight = W;
lastChange = "2023-12-28 01:01:01 +0000";
layers = (
{
anchors = (
{
name = bottom;
pos = (1036,0);
},
{
name = top;
pos = (1036,1400);
}
);
hints = (
{
horizontal = 1;
place = (0,21);
target = up;
type = BottomGhost;
},
{
horizontal = 1;
place = (1400,-20);
target = down;
type = TopGhost;
}
);
layerId = "10BC12B3-5274-42E3-B5BC-F74F362F0DF4";
shapes = (
{
closed = 1;
nodes = (
(513,0,l),
(851,0,l),
(1035,726,l),
(1221,0,l),
(1559,0,l),
(2067,1400,l),
(1749,1400,l),
(1411,468,l),
(1172,1400,l),
(896,1400,l),
(660,468,l),
(323,1400,l),
(5,1400,l)
);
}
);
width = 2072;
},
{
anchors = (
{
name = bottom;
pos = (912,0);
},
{
name = top;
pos = (912,1400);
}
);
hints = (
{
horizontal = 1;
origin = (0,0);
target = (0,10);
type = Stem;
},
{
horizontal = 1;
origin = (0,12);
target = down;
type = TopGhost;
}
);
layerId = "9AF1F7D9-E035-453E-B2A8-46DE370997D0";
shapes = (
{
closed = 1;
nodes = (
(513,0,l),
(591,0,l),
(911,1250,l),
(1231,0,l),
(1310,0,l),
(1820,1400,l),
(1756,1400,l),
(1271,86,l),
(935,1400,l),
(887,1400,l),
(553,86,l),
(69,1400,l),
(5,1400,l)
);
}
);
width = 1825;
}
);
unicode = 87;
},
{
glyphname = X;
kernLeft = X;
kernRight = X;
lastChange = "2023-12-28 00:47:29 +0000";
layers = (
{
anchors = (
{
name = bottom;
pos = (703,0);
},
{
name = top;
pos = (703,1400);
}
);
hints = (
{
horizontal = 1;
origin = (0,11);
target = up;
type = BottomGhost;
},
{
horizontal = 1;
origin = (0,9);
target = down;
type = TopGhost;
}
);
layerId = "10BC12B3-5274-42E3-B5BC-F74F362F0DF4";
shapes = (
{
closed = 1;
nodes = (
(377,0,l),
(703,448,l),
(1029,0,l),
(1401,0,l),
(889,704,l),
(1395,1400,l),
(1025,1400,l),
(703,958,l),
(381,1400,l),
(11,1400,l),
(517,704,l),
(5,0,l)
);
}
);
width = 1406;
},
{
anchors = (
{
name = bottom;
pos = (555,0);
},
{
name = top;
pos = (555,1400);
}
);
hints = (
{
horizontal = 1;
origin = (0,11);
target = up;
type = BottomGhost;
},
{
horizontal = 1;
origin = (0,9);
target = down;
type = TopGhost;
}
);
layerId = "9AF1F7D9-E035-453E-B2A8-46DE370997D0";
shapes = (
{
closed = 1;
nodes = (
(81,0,l),
(555,652,l),
(1031,0,l),
(1105,0,l),
(593,704,l),
(1099,1400,l),
(1025,1400,l),
(555,754,l),
(85,1400,l),
(11,1400,l),
(519,704,l),
(5,0,l)
);
}
);
width = 1110;
}
);
unicode = 88;
},
{
glyphname = Y;
kernLeft = Y;
kernRight = Y;
lastChange = "2023-12-28 00:47:31 +0000";
layers = (
{
anchors = (
{
name = bottom;
pos = (641,0);
},
{
name = top;
pos = (641,1400);
},
{
name = topleft;
pos = (-35,1400);
}
);
hints = (
{
horizontal = 1;
origin = (0,4);
target = up;
type = BottomGhost;
},
{
horizontal = 1;
origin = (0,2);
target = down;
type = TopGhost;
},
{
origin = (0,4);
target = (0,5);
type = Stem;
}
);
layerId = "10BC12B3-5274-42E3-B5BC-F74F362F0DF4";
shapes = (
{
closed = 1;
nodes = (
(641,956,l),
(359,1400,l),
(5,1400,l),
(491,630,l),
(491,0,l),
(791,0,l),
(791,630,l),
(1277,1400,l),
(923,1400,l)
);
}
);
width = 1282;
},
{
anchors = (
{
name = bottom;
pos = (499,0);
},
{
name = top;
pos = (499,1400);
},
{
name = topleft;
pos = (-35,1400);
}
);
hints = (
{
horizontal = 1;
origin = (0,4);
target = up;
type = BottomGhost;
},
{
horizontal = 1;
origin = (0,2);
target = down;
type = TopGhost;
},
{
origin = (0,4);
target = (0,5);
type = Stem;
}
);
layerId = "9AF1F7D9-E035-453E-B2A8-46DE370997D0";
shapes = (
{
closed = 1;
nodes = (
(499,702,l),
(75,1400,l),
(5,1400,l),
(469,636,l),
(469,0,l),
(529,0,l),
(529,636,l),
(993,1400,l),
(923,1400,l)
);
}
);
width = 998;
}
);
unicode = 89;
},
{
glyphname = Z;
kernLeft = Z;
kernRight = Z;
lastChange = "2023-12-28 00:47:34 +0000";
layers = (
{
anchors = (
{
name = bottom;
pos = (586,0);
},
{
name = center;
pos = (586,700);
},
{
name = top;
pos = (586,1400);
}
);
hints = (
{
horizontal = 1;
origin = (0,9);
target = (0,8);
type = Stem;
},
{
horizontal = 1;
origin = (0,5);
target = (0,6);
type = Stem;
}
);
layerId = "10BC12B3-5274-42E3-B5BC-F74F362F0DF4";
shapes = (
{
closed = 1;
nodes = (
(1152,0,l),
(1152,300,l),
(426,300,l),
(1152,1100,l),
(1152,1400,l),
(20,1400,l),
(20,1100,l),
(746,1100,l),
(20,300,l),
(20,0,l)
);
}
);
width = 1172;
},
{
anchors = (
{
name = bottom;
pos = (586,0);
},
{
name = center;
pos = (586,700);
},
{
name = top;
pos = (586,1400);
}
);
hints = (
{
horizontal = 1;
origin = (0,9);
target = (0,8);
type = Stem;
},
{
horizontal = 1;
origin = (0,5);
target = (0,6);
type = Stem;
}
);
layerId = "9AF1F7D9-E035-453E-B2A8-46DE370997D0";
shapes = (
{
closed = 1;
nodes = (
(1152,0,l),
(1152,60,l),
(98,60,l),
(1152,1340,l),
(1152,1400,l),
(20,1400,l),
(20,1340,l),
(1074,1340,l),
(20,60,l),
(20,0,l)
);
}
);
width = 1172;
}
);
unicode = 90;
},
{
glyphname = Saltillo;
kernLeft = H;
kernRight = H;
lastChange = "2023-12-17 22:17:53 +0000";
layers = (
{
layerId = "9AF1F7D9-E035-453E-B2A8-46DE370997D0";
shapes = (
{
closed = 1;
nodes = (
(60,1500,l),
(70,603,l),
(110,603,l),
(120,1500,l)
);
}
);
width = 180;
},
{
layerId = "10BC12B3-5274-42E3-B5BC-F74F362F0DF4";
shapes = (
{
closed = 1;
nodes = (
(60,1500,l),
(110,603,l),
(310,603,l),
(360,1500,l)
);
}
);
width = 420;
}
);
unicode = 42891;
},
{
glyphname = a;
kernLeft = o;
kernRight = n;
lastChange = "2023-12-28 00:58:13 +0000";
layers = (
{
anchors = (
{
name = bottom;
pos = (603,0);
},
{
name = ogonek;
pos = (1118,0);
},
{
name = top;
pos = (603,1000);
}
);
hints = (
{
horizontal = 1;
origin = (0,9);
target = (0,12);
type = Stem;
},
{
horizontal = 1;
origin = (0,16);
target = down;
type = TopGhost;
},
{
horizontal = 1;
origin = (0,3);
target = (0,0);
type = Stem;
},
{
horizontal = 1;
origin = (0,13);
target = up;
type = BottomGhost;
},
{
origin = (0,16);
target = (0,14);
type = Stem;
}
);
layerId = "10BC12B3-5274-42E3-B5BC-F74F362F0DF4";
shapes = (
{
closed = 1;
nodes = (
(832,904,l),
(758,974,o),
(665,1028,o),
(550,1028,cs),
(267,1028,o),
(39,798,o),
(40,514,cs),
(39,216,o),
(280,-26,o),
(578,-26,cs),
(678,-26,o),
(753,20,o),
(803,90,c),
(817,0,l),
(1118,0,l),
(1118,1000,l),
(818,1000,l)
);
},
{
closed = 1;
nodes = (
(448,262,o),
(348,368,o),
(348,500,cs),
(348,632,o),
(445,738,o),
(570,738,cs),
(694,738,o),
(794,632,o),
(794,500,cs),
(794,368,o),
(694,262,o),
(570,262,cs)
);
}
);
width = 1188;
},
{
anchors = (
{
name = bottom;
pos = (582,0);
},
{
name = ogonek;
pos = (1054,0);
},
{
name = top;
pos = (582,1000);
}
);
hints = (
{
horizontal = 1;
origin = (0,9);
target = (1,11);
type = Stem;
},
{
horizontal = 1;
origin = (0,16);
target = down;
type = TopGhost;
},
{
horizontal = 1;
origin = (0,3);
target = (1,5);
type = Stem;
},
{
horizontal = 1;
origin = (0,13);
target = up;
type = BottomGhost;
},
{
origin = (0,6);
target = (1,2);
type = Stem;
},
{
origin = (0,13);
target = (0,14);
type = Stem;
},
{
origin = (1,8);
target = (0,14);
type = Stem;
}
);
layerId = "9AF1F7D9-E035-453E-B2A8-46DE370997D0";
shapes = (
{
closed = 1;
nodes = (
(994,768,l),
(922,924,o),
(780,1028,o),
(586,1028,cs),
(296,1028,o),
(60,792,o),
(60,500,cs),
(60,210,o),
(296,-26,o),
(586,-26,cs),
(780,-26,o),
(922,78,o),
(994,234,c),
(994,0,l),
(1054,0,l),
(1054,1000,l),
(994,1000,l)
);
},
{
closed = 1;
nodes = (
(336,34,o),
(120,238,o),
(120,500,cs),
(120,758,o),
(328,968,o),
(586,968,cs),
(840,968,o),
(990,762,o),
(990,500,cs),
(990,244,o),
(844,34,o),
(586,34,cs)
);
}
);
width = 1154;
}
);
metricLeft = o;
metricRight = H;
unicode = 97;
},
{
glyphname = ae;
kernLeft = ae;
kernRight = e;
lastChange = "2023-12-28 00:57:06 +0000";
layers = (
{
anchors = (
{
name = bottom;
pos = (774,2);
},
{
name = top;
pos = (807,1002);
}
);
hints = (
{
horizontal = 1;
place = (-26,180);
type = Stem;
},
{
horizontal = 1;
place = (402,220);
type = Stem;
},
{
horizontal = 1;
place = (768,0);
type = Stem;
},
{
horizontal = 1;
place = (1028,-260);
type = Stem;
},
{
place = (80,290);
type = Stem;
}
);
layerId = "10BC12B3-5274-42E3-B5BC-F74F362F0DF4";
shapes = (
{
closed = 1;
nodes = (
(543,-26,o),
(702,61,o),
(774,145,c),
(866,40,o),
(997,-26,o),
(1143,-26,cs),
(1343,-26,o),
(1515,98,o),
(1596,276,c),
(1290,347,l),
(1254,303,o),
(1203,274,o),
(1146,274,cs),
(1051,274,o),
(995,329,o),
(967,401,c),
(1634,401,l),
(1692,718,o),
(1465,1028,o),
(1143,1028,cs),
(1014,1028,o),
(896,976,o),
(807,892,c),
(722,980,o),
(602,1028,o),
(476,1028,cs),
(368,1028,o),
(261,997,o),
(171,935,c),
(337,686,l),
(379,714,o),
(428,728,o),
(480,728,cs),
(555,728,o),
(609,682,o),
(631,621,c),
(370,621,ls),
(177,621,o),
(30,470,o),
(30,298,cs),
(30,126,o),
(174,-26,o),
(370,-26,cs)
);
},
{
closed = 1;
nodes = (
(326,234,o),
(290,277,o),
(290,321,cs),
(290,365,o),
(326,401,o),
(370,401,cs),
(630,401,l),
(611,364,o),
(587,331,o),
(558,305,cs),
(508,260,o),
(444,234,o),
(370,234,cs)
);
},
{
closed = 1;
nodes = (
(985,707,o),
(1058,768,o),
(1143,768,cs),
(1229,768,o),
(1302,707,o),
(1331,621,c),
(956,621,l)
);
}
);
width = 1683;
},
{
anchors = (
{
name = bottom;
pos = (788,0);
},
{
name = top;
pos = (801,1000);
}
);
hints = (
{
horizontal = 1;
place = (0,60);
type = Stem;
},
{
horizontal = 1;
place = (496,60);
type = Stem;
},
{
horizontal = 1;
place = (994,60);
type = Stem;
},
{
place = (70,60);
type = Stem;
},
{
place = (848,60);
type = Stem;
},
{
place = (1786,60);
type = Stem;
},
{
place = (848,60);
type = Stem;
}
);
layerId = "9AF1F7D9-E035-453E-B2A8-46DE370997D0";
shapes = (
{
closed = 1;
nodes = (
(524,-24,o),
(705,114,o),
(788,321,c),
(857,118,o),
(1042,-26,o),
(1258,-26,cs),
(1458,-26,o),
(1630,98,o),
(1710,276,c),
(1650,290,l),
(1570,130,o),
(1428,34,o),
(1258,34,cs),
(1028,34,o),
(838,220,o),
(818,470,c),
(1756,470,l),
(1750,804,o),
(1544,1028,o),
(1258,1028,cs),
(1054,1028,o),
(878,899,o),
(801,714,c),
(724,900,o),
(554,1028,o),
(352,1028,cs),
(295,1028,o),
(235,1017,o),
(177,994,c),
(208,941,l),
(255,959,o),
(304,968,o),
(352,968,cs),
(608,968,o),
(767,768,o),
(759,531,c),
(307,531,ls),
(131,531,o),
(30,400,o),
(30,250,cs),
(30,83,o),
(151,-24,o),
(315,-24,cs)
);
},
{
closed = 1;
nodes = (
(165,36,o),
(90,138,o),
(90,250,cs),
(90,375,o),
(173,471,o),
(307,471,cs),
(757,471,l),
(754,417,o),
(742,364,o),
(721,314,cs),
(654,156,o),
(503,36,o),
(315,36,cs)
);
},
{
closed = 1;
nodes = (
(834,772,o),
(1020,968,o),
(1258,968,cs),
(1494,968,o),
(1688,764,o),
(1696,530,c),
(818,530,l)
);
}
);
width = 1816;
}
);
metricRight = o;
unicode = 230;
},
{
glyphname = b;
kernLeft = H;
kernRight = o;
lastChange = "2023-12-28 00:58:16 +0000";
layers = (
{
anchors = (
{
name = bottom;
pos = (580,0);
},
{
name = center;
pos = (580,500);
},
{
name = top;
pos = (580,1900);
}
);
hints = (
{
horizontal = 1;
origin = (0,10);
target = (0,7);
type = Stem;
},
{
horizontal = 1;
origin = (0,16);
target = (0,2);
type = Stem;
},
{
horizontal = 1;
origin = (0,5);
target = up;
type = BottomGhost;
},
{
origin = (0,5);
target = (0,6);
type = Stem;
},
{
origin = (0,16);
target = (0,13);
type = Stem;
},
{
origin = (0,5);
target = (0,2);
type = Stem;
}
);
layerId = "10BC12B3-5274-42E3-B5BC-F74F362F0DF4";
shapes = (
{
closed = 1;
nodes = (
(516,1028,o),
(432,978,o),
(370,908,c),
(370,1500,l),
(70,1500,l),
(70,0,l),
(370,0,l),
(370,94,l),
(432,24,o),
(516,-26,o),
(622,-26,cs),
(914,-26,o),
(1150,210,o),
(1150,502,cs),
(1150,792,o),
(914,1028,o),
(622,1028,cs)
);
},
{
closed = 1;
nodes = (
(496,264,o),
(396,370,o),
(396,502,cs),
(396,632,o),
(496,740,o),
(618,740,cs),
(742,740,o),
(842,632,o),
(842,502,cs),
(842,370,o),
(742,264,o),
(618,264,cs)
);
}
);
width = 1190;
},
{
anchors = (
{
name = bottom;
pos = (567,0);
},
{
name = center;
pos = (567,500);
},
{
name = top;
pos = (567,1900);
}
);
hints = (
{
horizontal = 1;
origin = (0,10);
target = (1,11);
type = Stem;
},
{
horizontal = 1;
origin = (0,16);
target = (1,5);
type = Stem;
},
{
horizontal = 1;
origin = (0,5);
target = up;
type = BottomGhost;
},
{
origin = (0,5);
target = (0,6);
type = Stem;
},
{
origin = (1,8);
target = (0,13);
type = Stem;
},
{
origin = (0,5);
target = (1,2);
type = Stem;
}
);
layerId = "9AF1F7D9-E035-453E-B2A8-46DE370997D0";
shapes = (
{
closed = 1;
nodes = (
(374,1028,o),
(232,924,o),
(160,768,c),
(160,1500,l),
(100,1500,l),
(100,0,l),
(160,0,l),
(160,234,l),
(232,78,o),
(374,-26,o),
(568,-26,cs),
(858,-26,o),
(1094,210,o),
(1094,500,cs),
(1094,792,o),
(858,1028,o),
(568,1028,cs)
);
},
{
closed = 1;
nodes = (
(314,34,o),
(164,240,o),
(164,500,cs),
(164,756,o),
(310,968,o),
(568,968,cs),
(818,968,o),
(1034,764,o),
(1034,500,cs),
(1034,244,o),
(826,34,o),
(568,34,cs)
);
}
);
width = 1154;
}
);
metricLeft = H;
metricRight = o;
unicode = 98;
},
{
glyphname = c;
kernLeft = o;
kernRight = c;
lastChange = "2023-12-28 00:57:09 +0000";
layers = (
{
anchors = (
{
name = bottom;
pos = (540,0);
},
{
name = top;
pos = (540,1000);
}
);
hints = (
{
horizontal = 1;
origin = (0,21);
target = (0,2);
type = Stem;
},
{
horizontal = 1;
origin = (0,15);
target = (0,8);
type = Stem;
},
{
origin = (0,18);
target = (0,5);
type = Stem;
}
);
layerId = "10BC12B3-5274-42E3-B5BC-F74F362F0DF4";
shapes = (
{
closed = 1;
nodes = (
(634,294,o),
(588,274,o),
(540,274,cs),
(426,274,o),
(340,382,o),
(340,500,cs),
(340,620,o),
(426,728,o),
(540,728,cs),
(588,728,o),
(634,708,o),
(670,672,c),
(940,818,l),
(848,946,o),
(704,1028,o),
(540,1028,cs),
(264,1028,o),
(40,792,o),
(40,500,cs),
(40,210,o),
(264,-26,o),
(540,-26,cs),
(704,-26,o),
(848,56,o),
(940,182,c),
(670,328,l)
);
}
);
width = 960;
},
{
anchors = (
{
name = bottom;
pos = (560,0);
},
{
name = top;
pos = (560,1000);
}
);
hints = (
{
horizontal = 1;
origin = (0,21);
target = (0,2);
type = Stem;
},
{
horizontal = 1;
origin = (0,15);
target = (0,8);
type = Stem;
},
{
origin = (0,18);
target = (0,5);
type = Stem;
}
);
layerId = "9AF1F7D9-E035-453E-B2A8-46DE370997D0";
shapes = (
{
closed = 1;
nodes = (
(828,108,o),
(700,34,o),
(560,34,cs),
(318,34,o),
(120,242,o),
(120,500,cs),
(120,754,o),
(312,968,o),
(560,968,cs),
(688,968,o),
(820,904,o),
(906,790,c),
(958,818,l),
(868,946,o),
(722,1028,o),
(560,1028,cs),
(284,1028,o),
(60,792,o),
(60,500,cs),
(60,210,o),
(284,-26,o),
(560,-26,cs),
(722,-26,o),
(868,56,o),
(958,184,c),
(906,212,l)
);
}
);
width = 998;
}
);
metricLeft = o;
metricRight = "=o-20";
unicode = 99;
},
{
glyphname = d;
kernLeft = o;
kernRight = H;
lastChange = "2023-12-28 00:58:17 +0000";
layers = (
{
anchors = (
{
name = bottom;
pos = (600,0);
},
{
name = center;
pos = (600,500);
},
{
name = hbar;
pos = (911,1160);
},
{
name = top;
pos = (600,1900);
},
{
name = topright;
pos = (1240,1102);
}
);
hints = (
{
horizontal = 1;
origin = (0,9);
target = (1,11);
type = Stem;
},
{
horizontal = 1;
origin = (0,3);
target = (1,5);
type = Stem;
},
{
horizontal = 1;
origin = (0,13);
target = up;
type = BottomGhost;
},
{
origin = (0,6);
target = (1,2);
type = Stem;
},
{
origin = (0,13);
target = (0,14);
type = Stem;
},
{
origin = (1,8);
target = (0,14);
type = Stem;
}
);
layerId = "10BC12B3-5274-42E3-B5BC-F74F362F0DF4";
shapes = (
{
closed = 1;
nodes = (
(820,908,l),
(758,978,o),
(674,1026,o),
(566,1026,cs),
(276,1026,o),
(40,790,o),
(40,500,cs),
(40,210,o),
(276,-26,o),
(566,-26,cs),
(674,-26,o),
(758,22,o),
(820,92,c),
(820,0,l),
(1120,0,l),
(1120,1500,l),
(820,1500,l)
);
},
{
closed = 1;
nodes = (
(448,262,o),
(348,368,o),
(348,500,cs),
(348,632,o),
(445,738,o),
(570,738,cs),
(694,738,o),
(794,632,o),
(794,500,cs),
(794,368,o),
(694,262,o),
(570,262,cs)
);
}
);
width = 1190;
},
{
anchors = (
{
name = bottom;
pos = (602,0);
},
{
name = center;
pos = (602,500);
},
{
name = hbar;
pos = (874,1200);
},
{
name = top;
pos = (602,1900);
},
{
name = topright;
pos = (1174,1102);
}
);
hints = (
{
horizontal = 1;
origin = (0,9);
target = (1,11);
type = Stem;
},
{
horizontal = 1;
origin = (0,3);
target = (1,5);
type = Stem;
},
{
horizontal = 1;
origin = (0,13);
target = up;
type = BottomGhost;
},
{
origin = (0,6);
target = (1,2);
type = Stem;
},
{
origin = (0,13);
target = (0,14);
type = Stem;
},
{
origin = (1,8);
target = (0,14);
type = Stem;
}
);
layerId = "9AF1F7D9-E035-453E-B2A8-46DE370997D0";
shapes = (
{
closed = 1;
nodes = (
(994,768,l),
(922,924,o),
(780,1028,o),
(586,1028,cs),
(296,1028,o),
(60,792,o),
(60,500,cs),
(60,210,o),
(296,-26,o),
(586,-26,cs),
(780,-26,o),
(922,78,o),
(994,234,c),
(994,0,l),
(1054,0,l),
(1054,1500,l),
(994,1500,l)
);
},
{
closed = 1;
nodes = (
(336,34,o),
(120,238,o),
(120,500,cs),
(120,758,o),
(330,968,o),
(586,968,cs),
(840,968,o),
(990,762,o),
(990,500,cs),
(990,244,o),
(844,34,o),
(586,34,cs)
);
}
);
width = 1154;
}
);
metricLeft = o;
metricRight = H;
unicode = 100;
},
{
glyphname = eth;
kernLeft = o;
kernRight = eth;
lastChange = "2023-12-17 22:17:53 +0000";
layers = (
{
anchors = (
{
name = bottom;
pos = (563,0);
},
{
name = top;
pos = (563,1900);
}
);
hints = (
{
horizontal = 1;
origin = (0,3);
target = (0,1);
type = Stem;
},
{
origin = (0,2);
target = (0,0);
type = Stem;
}
);
layerId = "10BC12B3-5274-42E3-B5BC-F74F362F0DF4";
shapes = (
{
closed = 1;
nodes = (
(876,1450,l),
(736,1592,l),
(298,1160,l),
(440,1018,l)
);
},
{
ref = partialdiff;
}
);
width = 1126;
},
{
anchors = (
{
name = bottom;
pos = (562,0);
},
{
name = top;
pos = (562,1900);
}
);
layerId = "9AF1F7D9-E035-453E-B2A8-46DE370997D0";
shapes = (
{
closed = 1;
nodes = (
(866,1500,l),
(824,1542,l),
(384,1114,l),
(428,1070,l)
);
},
{
ref = partialdiff;
}
);
width = 1124;
}
);
unicode = 240;
},
{
glyphname = e;
kernLeft = o;
kernRight = o;
lastChange = "2023-12-28 00:57:12 +0000";
layers = (
{
anchors = (
{
name = bottom;
pos = (540,0);
},
{
name = ogonek;
pos = (695,0);
},
{
name = top;
pos = (540,1000);
}
);
hints = (
{
horizontal = 1;
origin = (0,19);
target = (0,6);
type = Stem;
},
{
horizontal = 1;
origin = (0,9);
target = (1,6);
type = Stem;
},
{
horizontal = 1;
origin = (0,13);
target = (1,2);
type = Stem;
}
);
layerId = "10BC12B3-5274-42E3-B5BC-F74F362F0DF4";
shapes = (
{
closed = 1;
nodes = (
(740,-26,o),
(912,98,o),
(993,276,c),
(687,347,l),
(650,302,o),
(598,273,o),
(540,274,cs),
(447,276,o),
(392,330,o),
(364,401,c),
(1031,401,l),
(1091,719,o),
(859,1028,o),
(540,1028,cs),
(264,1028,o),
(40,792,o),
(40,501,cs),
(40,210,o),
(264,-26,o),
(540,-26,cs)
);
},
{
closed = 1;
nodes = (
(382,707,o),
(455,768,o),
(540,768,cs),
(626,768,o),
(699,707,o),
(728,621,c),
(353,621,l)
);
}
);
width = 1080;
},
{
anchors = (
{
name = bottom;
pos = (559,0);
},
{
name = ogonek;
pos = (716,0);
},
{
name = top;
pos = (559,1000);
}
);
hints = (
{
horizontal = 1;
origin = (0,19);
target = (0,6);
type = Stem;
},
{
horizontal = 1;
origin = (0,9);
target = (1,6);
type = Stem;
},
{
horizontal = 1;
origin = (0,13);
target = (1,2);
type = Stem;
},
{
origin = (0,16);
target = (0,9);
type = Stem;
},
{
origin = (1,5);
target = (0,10);
type = Stem;
}
);
layerId = "9AF1F7D9-E035-453E-B2A8-46DE370997D0";
shapes = (
{
closed = 1;
nodes = (
(760,-26,o),
(932,98,o),
(1012,276,c),
(952,290,l),
(872,130,o),
(730,34,o),
(560,34,cs),
(330,34,o),
(140,220,o),
(120,470,c),
(1058,470,l),
(1052,804,o),
(846,1028,o),
(560,1028,cs),
(284,1028,o),
(60,792,o),
(60,500,cs),
(60,210,o),
(284,-26,o),
(560,-26,cs)
);
},
{
closed = 1;
nodes = (
(136,772,o),
(322,968,o),
(560,968,cs),
(796,968,o),
(990,764,o),
(998,530,c),
(120,530,l)
);
}
);
width = 1118;
}
);
metricLeft = o;
metricRight = o;
unicode = 101;
},
{
glyphname = f;
kernLeft = f;
kernRight = f;
lastChange = "2023-12-28 01:09:35 +0000";
layers = (
{
anchors = (
{
name = bottom;
pos = (331,0);
},
{
name = top;
pos = (331,1900);
}
);
hints = (
{
horizontal = 1;
origin = (0,17);
target = up;
type = BottomGhost;
},
{
horizontal = 1;
origin = (0,14);
target = (0,15);
type = Stem;
},
{
horizontal = 1;
origin = (0,2);
target = (0,9);
type = Stem;
},
{
horizontal = 1;
origin = (0,6);
target = down;
type = TopGhost;
},
{
origin = (0,17);
target = (0,18);
type = Stem;
}
);
layerId = "10BC12B3-5274-42E3-B5BC-F74F362F0DF4";
shapes = (
{
closed = 1;
nodes = (
(394,1206,o),
(414,1224,o),
(438,1224,cs),
(454,1224,o),
(473,1214,o),
(480,1194,c),
(696,1406,l),
(625,1487,o),
(530,1524,o),
(438,1524,cs),
(248,1524,o),
(94,1370,o),
(94,1182,cs),
(94,1000,l),
(0,1000,l),
(0,700,l),
(94,700,l),
(94,0,l),
(394,0,l),
(394,700,l),
(652,700,l),
(652,1000,l),
(394,1000,l),
(394,1182,ls)
);
}
);
width = 696;
},
{
anchors = (
{
name = bottom;
pos = (260,0);
},
{
name = top;
pos = (260,1900);
}
);
hints = (
{
horizontal = 1;
origin = (0,17);
target = up;
type = BottomGhost;
},
{
horizontal = 1;
origin = (0,14);
target = (0,15);
type = Stem;
},
{
horizontal = 1;
origin = (0,2);
target = (0,9);
type = Stem;
},
{
origin = (0,17);
target = (0,18);
type = Stem;
}
);
layerId = "9AF1F7D9-E035-453E-B2A8-46DE370997D0";
shapes = (
{
closed = 1;
nodes = (
(218,1390,o),
(292,1464,o),
(382,1464,cs),
(426,1464,o),
(468,1446,o),
(498,1416,c),
(540,1458,l),
(498,1500,o),
(442,1524,o),
(382,1524,cs),
(258,1524,o),
(158,1424,o),
(158,1300,cs),
(158,1000,l),
(0,1000,l),
(0,940,l),
(158,940,l),
(158,0,l),
(218,0,l),
(218,940,l),
(540,940,l),
(540,1000,l),
(218,1000,l),
(218,1300,ls)
);
}
);
width = 570;
}
);
unicode = 102;
},
{
glyphname = g;
kernLeft = o;
kernRight = g;
lastChange = "2023-12-28 01:06:31 +0000";
layers = (
{
anchors = (
{
name = bottom;
pos = (607,-500);
},
{
name = top;
pos = (607,1000);
}
);
hints = (
{
horizontal = 1;
origin = (0,23);
target = (0,16);
type = Stem;
},
{
horizontal = 1;
origin = (0,9);
target = (1,11);
type = Stem;
},
{
horizontal = 1;
origin = (0,28);
target = down;
type = TopGhost;
},
{
horizontal = 1;
origin = (0,3);
target = (1,5);
type = Stem;
},
{
origin = (0,6);
target = (1,2);
type = Stem;
},
{
origin = (0,13);
target = (0,26);
type = Stem;
},
{
origin = (1,8);
target = (0,26);
type = Stem;
}
);
layerId = "10BC12B3-5274-42E3-B5BC-F74F362F0DF4";
shapes = (
{
closed = 1;
nodes = (
(814,912,l),
(754,980,o),
(672,1026,o),
(566,1026,cs),
(276,1026,o),
(40,790,o),
(40,500,cs),
(40,210,o),
(276,-26,o),
(566,-26,cs),
(672,-26,o),
(754,20,o),
(814,88,c),
(814,-10,ls),
(814,-140,o),
(684,-198,o),
(546,-198,cs),
(452,-198,o),
(366,-146,o),
(324,-56,c),
(50,-180,l),
(138,-370,o),
(334,-500,o),
(546,-500,cs),
(850,-500,o),
(1114,-314,o),
(1114,-10,cs),
(1114,1000,l),
(814,1000,l)
);
},
{
closed = 1;
nodes = (
(448,262,o),
(348,368,o),
(348,500,cs),
(348,632,o),
(448,738,o),
(570,738,cs),
(694,738,o),
(794,632,o),
(794,500,cs),
(794,368,o),
(694,262,o),
(570,262,cs)
);
}
);
width = 1184;
},
{
anchors = (
{
name = bottom;
pos = (568,-500);
},
{
name = top;
pos = (568,1000);
}
);
hints = (
{
horizontal = 1;
origin = (0,23);
target = (0,16);
type = Stem;
},
{
horizontal = 1;
origin = (0,9);
target = (1,11);
type = Stem;
},
{
horizontal = 1;
origin = (0,28);
target = down;
type = TopGhost;
},
{
horizontal = 1;
origin = (0,3);
target = (1,5);
type = Stem;
},
{
origin = (0,6);
target = (1,2);
type = Stem;
},
{
origin = (0,13);
target = (0,26);
type = Stem;
},
{
origin = (1,8);
target = (0,26);
type = Stem;
}
);
layerId = "9AF1F7D9-E035-453E-B2A8-46DE370997D0";
shapes = (
{
closed = 1;
nodes = (
(956,770,l),
(882,924,o),
(742,1028,o),
(560,1028,cs),
(284,1028,o),
(60,792,o),
(60,500,cs),
(60,210,o),
(284,-26,o),
(560,-26,cs),
(742,-26,o),
(882,78,o),
(956,232,c),
(956,-50,ls),
(956,-250,o),
(754,-440,o),
(548,-440,cs),
(370,-440,o),
(180,-290,o),
(146,-110,c),
(90,-136,l),
(136,-330,o),
(340,-500,o),
(548,-500,cs),
(784,-500,o),
(1016,-282,o),
(1016,-50,cs),
(1016,1000,l),
(956,1000,l)
);
},
{
closed = 1;
nodes = (
(320,34,o),
(120,240,o),
(120,500,cs),
(120,758,o),
(314,968,o),
(560,968,cs),
(804,968,o),
(954,754,o),
(954,500,cs),
(954,252,o),
(808,34,o),
(560,34,cs)
);
}
);
width = 1116;
}
);
metricLeft = o;
metricRight = H;
unicode = 103;
},
{
glyphname = h;
kernLeft = H;
kernRight = n;
lastChange = "2023-12-28 01:05:31 +0000";
layers = (
{
anchors = (
{
name = bottom;
pos = (580,0);
},
{
name = center;
pos = (580,950);
},
{
name = hbar;
pos = (280,1160);
},
{
name = top;
pos = (580,1425);
}
);
hints = (
{
horizontal = 1;
place = (0,21);
target = up;
type = BottomGhost;
},
{
horizontal = 1;
place = (1026,288);
type = Stem;
},
{
place = (120,300);
type = Stem;
},
{
place = (798,300);
type = Stem;
},
{
place = (120,302);
type = Stem;
}
);
layerId = "10BC12B3-5274-42E3-B5BC-F74F362F0DF4";
shapes = (
{
closed = 1;
nodes = (
(1009,854,o),
(835,1028,o),
(620,1028,cs),
(525,1028,o),
(438,994,o),
(371,937,c),
(370,1500,l),
(70,1500,l),
(71,0,l),
(371,0,l),
(371,555,ls),
(371,649,o),
(446,724,o),
(540,724,cs),
(633,724,o),
(709,649,o),
(709,555,cs),
(709,0,l),
(1009,0,l),
(1009,639,ls)
);
}
);
width = 1079;
},
{
anchors = (
{
name = bottom;
pos = (519,0);
},
{
name = center;
pos = (519,950);
},
{
name = hbar;
pos = (280,1200);
},
{
name = top;
pos = (519,1425);
}
);
hints = (
{
horizontal = 1;
place = (0,21);
target = up;
type = BottomGhost;
},
{
horizontal = 1;
place = (1026,60);
type = Stem;
},
{
place = (120,60);
type = Stem;
},
{
place = (898,60);
type = Stem;
}
);
layerId = "9AF1F7D9-E035-453E-B2A8-46DE370997D0";
shapes = (
{
closed = 1;
nodes = (
(938,841,o),
(751,1028,o),
(519,1028,cs),
(367,1028,o),
(233,947,o),
(160,825,c),
(160,1500,l),
(100,1500,l),
(100,0,l),
(160,0,l),
(160,609,ls),
(160,808,o),
(321,968,o),
(519,968,cs),
(717,968,o),
(878,808,o),
(878,609,cs),
(878,0,l),
(938,0,l),
(938,609,ls)
);
}
);
width = 1038;
}
);
metricLeft = H;
metricRight = n;
unicode = 104;
},
{
glyphname = idotless;
kernLeft = i;
kernRight = i;
lastChange = "2023-12-28 00:58:22 +0000";
layers = (
{
anchors = (
{
name = bottom;
pos = (220,0);
},
{
name = ogonek;
pos = (370,0);
},
{
name = top;
pos = (220,1000);
}
);
hints = (
{
horizontal = 1;
origin = (0,0);
target = up;
type = BottomGhost;
},
{
horizontal = 1;
origin = (0,3);
target = down;
type = TopGhost;
},
{
origin = (0,0);
target = (0,1);
type = Stem;
}
);
layerId = "10BC12B3-5274-42E3-B5BC-F74F362F0DF4";
shapes = (
{
closed = 1;
nodes = (
(70,0,l),
(370,0,l),
(370,1000,l),
(70,1000,l)
);
}
);
width = 440;
},
{
anchors = (
{
name = bottom;
pos = (130,0);
},
{
name = ogonek;
pos = (160,0);
},
{
name = top;
pos = (130,1000);
}
);
hints = (
{
horizontal = 1;
origin = (0,0);
target = up;
type = BottomGhost;
},
{
horizontal = 1;
origin = (0,3);
target = down;
type = TopGhost;
},
{
origin = (0,0);
target = (0,1);
type = Stem;
}
);
layerId = "9AF1F7D9-E035-453E-B2A8-46DE370997D0";
shapes = (
{
closed = 1;
nodes = (
(100,0,l),
(160,0,l),
(160,1000,l),
(100,1000,l)
);
}
);
width = 260;
}
);
metricLeft = H;
metricRight = H;
unicode = 305;
},
{
glyphname = jdotless;
kernLeft = j;
kernRight = g;
lastChange = "2023-12-28 00:58:37 +0000";
layers = (
{
anchors = (
{
name = bottom;
pos = (77,-500);
},
{
name = top;
pos = (130,1000);
}
);
layerId = "9AF1F7D9-E035-453E-B2A8-46DE370997D0";
shapes = (
{
closed = 1;
nodes = (
(6,-500,o),
(160,-344,o),
(160,-148,cs),
(160,1000,l),
(100,1000,l),
(100,-148,ls),
(100,-314,o),
(-30,-440,o),
(-206,-440,c),
(-206,-500,l)
);
}
);
width = 260;
},
{
anchors = (
{
name = bottom;
pos = (264,-500);
},
{
name = top;
pos = (250,1000);
}
);
layerId = "10BC12B3-5274-42E3-B5BC-F74F362F0DF4";
shapes = (
{
closed = 1;
nodes = (
(190,-500,o),
(400,-288,o),
(400,-28,cs),
(400,1000,l),
(100,1000,l),
(100,-28,ls),
(100,-124,o),
(22,-200,o),
(-72,-200,c),
(-72,-500,l)
);
}
);
width = 470;
}
);
metricRight = g;
unicode = 567;
},
{
glyphname = k;
kernLeft = H;
kernRight = k;
lastChange = "2023-12-28 00:58:24 +0000";
layers = (
{
anchors = (
{
name = bottom;
pos = (509,0);
},
{
name = top;
pos = (640,1400);
}
);
hints = (
{
horizontal = 1;
origin = (0,6);
target = up;
type = BottomGhost;
},
{
horizontal = 1;
origin = (0,2);
target = down;
type = TopGhost;
},
{
origin = (0,6);
target = (0,7);
type = Stem;
}
);
layerId = "10BC12B3-5274-42E3-B5BC-F74F362F0DF4";
shapes = (
{
closed = 1;
nodes = (
(684,588,l),
(1028,1000,l),
(636,1000,l),
(370,682,l),
(370,1500,l),
(70,1500,l),
(70,0,l),
(370,0,l),
(370,216,l),
(478,344,l),
(678,0,l),
(1024,0,l)
);
}
);
width = 1028;
},
{
anchors = (
{
name = bottom;
pos = (422,0);
},
{
name = top;
pos = (446,1400);
}
);
hints = (
{
horizontal = 1;
origin = (0,6);
target = up;
type = BottomGhost;
},
{
horizontal = 1;
origin = (0,2);
target = down;
type = TopGhost;
},
{
origin = (0,6);
target = (0,7);
type = Stem;
}
);
layerId = "9AF1F7D9-E035-453E-B2A8-46DE370997D0";
shapes = (
{
closed = 1;
nodes = (
(446,602,l),
(782,1000,l),
(704,1000,l),
(160,352,l),
(160,1500,l),
(100,1500,l),
(100,0,l),
(160,0,l),
(160,258,l),
(406,552,l),
(726,0,l),
(794,0,l)
);
}
);
width = 794;
}
);
metricLeft = H;
unicode = 107;
},
{
glyphname = l;
kernLeft = H;
kernRight = H;
lastChange = "2023-12-28 00:58:26 +0000";
layers = (
{
anchors = (
{
name = bottom;
pos = (220,0);
},
{
name = center;
pos = (220,950);
},
{
name = top;
pos = (220,1500);
},
{
name = topright;
pos = (480,1102);
}
);
hints = (
{
horizontal = 1;
origin = (0,3);
target = up;
type = BottomGhost;
},
{
origin = (0,3);
target = (0,0);
type = Stem;
}
);
layerId = "10BC12B3-5274-42E3-B5BC-F74F362F0DF4";
shapes = (
{
closed = 1;
nodes = (
(370,0,l),
(370,1500,l),
(70,1500,l),
(70,0,l)
);
}
);
width = 440;
},
{
anchors = (
{
name = bottom;
pos = (130,0);
},
{
name = center;
pos = (130,950);
},
{
name = top;
pos = (130,1500);
},
{
name = topright;
pos = (261,1102);
}
);
hints = (
{
origin = (0,3);
target = (0,0);
type = Stem;
}
);
layerId = "9AF1F7D9-E035-453E-B2A8-46DE370997D0";
shapes = (
{
closed = 1;
nodes = (
(160,0,l),
(160,1500,l),
(100,1500,l),
(100,0,l)
);
}
);
width = 260;
}
);
metricLeft = H;
metricRight = H;
unicode = 108;
},
{
glyphname = lslash;
kernLeft = H;
kernRight = H;
lastChange = "2023-12-28 00:58:28 +0000";
layers = (
{
layerId = "9AF1F7D9-E035-453E-B2A8-46DE370997D0";
shapes = (
{
closed = 1;
nodes = (
(209,1500,l),
(209,836,l),
(0,715,l),
(30,663,l),
(209,766,l),
(209,0,l),
(269,0,l),
(269,801,l),
(478,922,l),
(448,974,l),
(269,870,l),
(269,1500,l)
);
}
);
width = 478;
},
{
layerId = "10BC12B3-5274-42E3-B5BC-F74F362F0DF4";
shapes = (
{
closed = 1;
nodes = (
(206,1500,l),
(206,905,l),
(-30,769,l),
(120,509,l),
(206,559,l),
(206,0,l),
(506,0,l),
(506,732,l),
(742,868,l),
(592,1128,l),
(506,1078,l),
(506,1500,l)
);
}
);
width = 712;
}
);
metricLeft = "=H-100";
metricRight = "=H-100";
unicode = 322;
},
{
glyphname = m;
kernLeft = n;
kernRight = n;
lastChange = "2023-12-28 01:06:55 +0000";
layers = (
{
anchors = (
{
name = bottom;
pos = (858,0);
},
{
name = top;
pos = (939,1000);
}
);
hints = (
{
horizontal = 1;
place = (0,21);
target = up;
type = BottomGhost;
},
{
horizontal = 1;
place = (1003,300);
type = Stem;
},
{
horizontal = 1;
place = (1000,-20);
target = down;
type = TopGhost;
},
{
place = (120,300);
type = Stem;
},
{
place = (763,300);
type = Stem;
},
{
place = (1406,300);
type = Stem;
}
);
layerId = "10BC12B3-5274-42E3-B5BC-F74F362F0DF4";
shapes = (
{
closed = 1;
nodes = (
(370,0,l),
(370,555,ls),
(370,648,o),
(446,724,o),
(539,724,cs),
(633,724,o),
(708,648,o),
(708,555,cs),
(708,0,l),
(1008,0,l),
(1008,555,ls),
(1008,648,o),
(1084,724,o),
(1178,724,cs),
(1271,724,o),
(1347,648,o),
(1347,555,cs),
(1347,0,l),
(1647,0,l),
(1647,639,ls),
(1647,854,o),
(1473,1028,o),
(1258,1028,cs),
(1126,1028,o),
(1009,962,o),
(939,861,c),
(869,962,o),
(752,1028,o),
(619,1028,cs),
(524,1028,o),
(437,994,o),
(370,937,c),
(370,1000,l),
(70,1000,l),
(70,0,l)
);
}
);
width = 1717;
},
{
anchors = (
{
name = bottom;
pos = (889,0);
},
{
name = top;
pos = (889,1000);
}
);
hints = (
{
horizontal = 1;
place = (0,21);
target = up;
type = BottomGhost;
},
{
horizontal = 1;
place = (1028,-60);
type = Stem;
},
{
horizontal = 1;
place = (1000,-20);
target = down;
type = TopGhost;
},
{
place = (120,60);
type = Stem;
},
{
place = (836,60);
type = Stem;
},
{
place = (1552,60);
type = Stem;
}
);
layerId = "9AF1F7D9-E035-453E-B2A8-46DE370997D0";
shapes = (
{
closed = 1;
nodes = (
(160,0,l),
(160,605,ls),
(160,798,o),
(317,968,o),
(509,968,cs),
(702,968,o),
(859,818,o),
(859,605,cs),
(859,0,l),
(919,0,l),
(919,605,ls),
(919,818,o),
(1075,968,o),
(1268,968,cs),
(1461,968,o),
(1617,798,o),
(1617,605,cs),
(1617,0,l),
(1677,0,l),
(1677,609,ls),
(1677,841,o),
(1490,1028,o),
(1258,1028,cs),
(1098,1028,o),
(959,939,o),
(889,807,c),
(818,939,o),
(679,1028,o),
(519,1028,cs),
(367,1028,o),
(234,947,o),
(160,825,c),
(160,1000,l),
(100,1000,l),
(100,0,l)
);
}
);
width = 1777;
}
);
metricLeft = n;
metricRight = n;
unicode = 109;
},
{
glyphname = n;
kernLeft = n;
kernRight = n;
lastChange = "2023-12-28 01:05:28 +0000";
layers = (
{
anchors = (
{
name = bottom;
pos = (540,0);
},
{
name = bottomright;
pos = (1009,0);
},
{
name = top;
pos = (560,1000);
}
);
hints = (
{
horizontal = 1;
place = (0,21);
target = up;
type = BottomGhost;
},
{
horizontal = 1;
place = (1000,-20);
target = down;
type = TopGhost;
},
{
horizontal = 1;
place = (1028,288);
type = Stem;
},
{
place = (100,300);
type = Stem;
},
{
place = (816,300);
type = Stem;
}
);
layerId = "10BC12B3-5274-42E3-B5BC-F74F362F0DF4";
shapes = (
{
closed = 1;
nodes = (
(1009,854,o),
(835,1028,o),
(620,1028,cs),
(525,1028,o),
(438,994,o),
(371,937,c),
(370,1000,l),
(70,1000,l),
(71,0,l),
(371,0,l),
(371,555,ls),
(371,649,o),
(446,724,o),
(540,724,cs),
(633,724,o),
(709,649,o),
(709,555,cs),
(709,0,l),
(1009,0,l),
(1009,639,ls)
);
}
);
width = 1079;
},
{
anchors = (
{
name = bottom;
pos = (519,0);
},
{
name = bottomright;
pos = (938,0);
},
{
name = top;
pos = (519,1000);
}
);
hints = (
{
horizontal = 1;
place = (0,21);
target = up;
type = BottomGhost;
},
{
horizontal = 1;
place = (1028,60);
type = Stem;
},
{
horizontal = 1;
place = (1000,-20);
target = down;
type = TopGhost;
},
{
place = (100,60);
type = Stem;
},
{
place = (878,60);
type = Stem;
}
);
layerId = "9AF1F7D9-E035-453E-B2A8-46DE370997D0";
shapes = (
{
closed = 1;
nodes = (
(938,841,o),
(751,1028,o),
(519,1028,cs),
(367,1028,o),
(233,947,o),
(160,825,c),
(160,1000,l),
(100,1000,l),
(100,0,l),
(160,0,l),
(160,609,ls),
(160,808,o),
(321,968,o),
(519,968,cs),
(717,968,o),
(878,808,o),
(878,609,cs),
(878,0,l),
(938,0,l),
(938,609,ls)
);
}
);
width = 1038;
}
);
metricLeft = H;
metricRight = H;
unicode = 110;
},
{
glyphname = o;
kernLeft = o;
kernRight = o;
lastChange = "2023-12-28 01:09:47 +0000";
layers = (
{
anchors = (
{
name = bottom;
pos = (540,0);
},
{
name = center;
pos = (540,500);
},
{
name = ogonek;
pos = (988,10);
},
{
name = top;
pos = (540,1000);
},
{
name = topright;
pos = (1080,1000);
}
);
hints = (
{
horizontal = 1;
origin = (0,11);
target = (1,11);
type = Stem;
},
{
horizontal = 1;
origin = (0,5);
target = (1,5);
type = Stem;
},
{
origin = (0,8);
target = (1,2);
type = Stem;
},
{
origin = (1,8);
target = (0,2);
type = Stem;
}
);
layerId = "10BC12B3-5274-42E3-B5BC-F74F362F0DF4";
shapes = (
{
closed = 1;
nodes = (
(816,-26,o),
(1040,210,o),
(1040,500,cs),
(1040,792,o),
(816,1028,o),
(540,1028,cs),
(264,1028,o),
(40,792,o),
(40,500,cs),
(40,210,o),
(264,-26,o),
(540,-26,cs)
);
},
{
closed = 1;
nodes = (
(432,274,o),
(340,372,o),
(340,500,cs),
(340,622,o),
(428,728,o),
(540,728,cs),
(648,728,o),
(740,626,o),
(740,500,cs),
(740,378,o),
(654,274,o),
(540,274,cs)
);
}
);
width = 1080;
},
{
anchors = (
{
name = bottom;
pos = (560,0);
},
{
name = center;
pos = (560,500);
},
{
name = ogonek;
pos = (1008,10);
},
{
name = top;
pos = (560,1000);
},
{
name = topright;
pos = (1100,1000);
}
);
hints = (
{
horizontal = 1;
origin = (0,11);
target = (1,11);
type = Stem;
},
{
horizontal = 1;
origin = (0,5);
target = (1,5);
type = Stem;
},
{
origin = (0,8);
target = (1,2);
type = Stem;
},
{
origin = (1,8);
target = (0,2);
type = Stem;
}
);
layerId = "9AF1F7D9-E035-453E-B2A8-46DE370997D0";
shapes = (
{
closed = 1;
nodes = (
(836,-26,o),
(1060,210,o),
(1060,500,cs),
(1060,792,o),
(836,1028,o),
(560,1028,cs),
(284,1028,o),
(60,792,o),
(60,500,cs),
(60,210,o),
(284,-26,o),
(560,-26,cs)
);
},
{
closed = 1;
nodes = (
(320,34,o),
(120,240,o),
(120,500,cs),
(120,752,o),
(310,968,o),
(560,968,cs),
(808,968,o),
(1000,752,o),
(1000,500,cs),
(1000,250,o),
(808,34,o),
(560,34,cs)
);
}
);
width = 1120;
}
);
unicode = 111;
},
{
glyphname = oslash;
kernLeft = o;
kernRight = o;
lastChange = "2023-12-28 00:57:15 +0000";
layers = (
{
anchors = (
{
name = top;
pos = (540,1000);
}
);
hints = (
{
horizontal = 1;
origin = (0,0);
target = up;
type = BottomGhost;
},
{
horizontal = 1;
origin = (0,12);
target = down;
type = TopGhost;
},
{
horizontal = 1;
origin = (0,3);
target = (2,6);
type = Stem;
},
{
horizontal = 1;
origin = (0,15);
target = (1,5);
type = Stem;
},
{
origin = (0,18);
target = (1,2);
type = Stem;
},
{
origin = (2,3);
target = (0,6);
type = Stem;
}
);
layerId = "10BC12B3-5274-42E3-B5BC-F74F362F0DF4";
shapes = (
{
closed = 1;
nodes = (
(388,-2,l),
(436,-18,o),
(486,-26,o),
(540,-26,cs),
(816,-26,o),
(1040,210,o),
(1040,500,cs),
(1040,646,o),
(984,778,o),
(894,874,c),
(948,968,l),
(740,1088,l),
(690,1004,l),
(644,1020,o),
(592,1028,o),
(540,1028,cs),
(264,1028,o),
(40,792,o),
(40,500,cs),
(40,356,o),
(96,224,o),
(186,128,c),
(132,34,l),
(340,-86,l)
);
},
{
closed = 1;
nodes = (
(322,412,o),
(316,444,o),
(316,482,cs),
(316,632,o),
(422,762,o),
(556,766,c),
(334,380,l)
);
},
{
closed = 1;
nodes = (
(746,622,l),
(756,590,o),
(764,556,o),
(764,518,cs),
(764,368,o),
(662,240,o),
(524,236,c)
);
}
);
width = 1080;
},
{
anchors = (
{
name = top;
pos = (560,1000);
}
);
hints = (
{
horizontal = 1;
place = (-26,59);
type = Stem;
},
{
horizontal = 1;
place = (969,59);
type = Stem;
},
{
horizontal = 1;
origin = (0,10);
target = down;
type = TopGhost;
},
{
horizontal = 1;
origin = (0,22);
target = up;
type = BottomGhost;
},
{
origin = (0,18);
target = (1,2);
type = Stem;
},
{
origin = (2,3);
target = (0,6);
type = Stem;
}
);
layerId = "9AF1F7D9-E035-453E-B2A8-46DE370997D0";
shapes = (
{
closed = 1;
nodes = (
(326,36,l),
(394,0,o),
(476,-26,o),
(560,-26,cs),
(836,-26,o),
(1060,210,o),
(1060,500,cs),
(1060,682,o),
(976,840,o),
(846,936,c),
(892,1014,l),
(840,1044,l),
(794,968,l),
(726,1006,o),
(646,1028,o),
(560,1028,cs),
(284,1028,o),
(60,792,o),
(60,500,cs),
(60,322,o),
(146,164,o),
(276,68,c),
(230,-10,l),
(282,-40,l)
);
},
{
closed = 1;
nodes = (
(194,206,o),
(120,344,o),
(120,500,cs),
(120,846,o),
(472,1080,o),
(764,916,c),
(306,122,l)
);
},
{
closed = 1;
nodes = (
(816,882,l),
(928,796,o),
(1000,656,o),
(1000,500,cs),
(1000,162,o),
(660,-80,o),
(356,88,c)
);
}
);
width = 1120;
}
);
metricLeft = o;
metricRight = o;
unicode = 248;
},
{
glyphname = oe;
kernLeft = o;
kernRight = o;
lastChange = "2023-12-28 00:57:17 +0000";
layers = (
{
anchors = (
{
name = bottom;
pos = (890,0);
},
{
name = top;
pos = (890,1000);
}
);
hints = (
{
horizontal = 1;
origin = (0,31);
target = (1,11);
type = Stem;
},
{
horizontal = 1;
origin = (0,15);
target = (2,6);
type = Stem;
},
{
horizontal = 1;
origin = (0,25);
target = (2,2);
type = Stem;
},
{
horizontal = 1;
origin = (0,25);
target = (1,5);
type = Stem;
},
{
origin = (0,28);
target = (1,2);
type = Stem;
}
);
layerId = "10BC12B3-5274-42E3-B5BC-F74F362F0DF4";
shapes = (
{
closed = 1;
nodes = (
(676,-26,o),
(800,32,o),
(890,124,c),
(980,32,o),
(1104,-26,o),
(1240,-26,cs),
(1440,-26,o),
(1612,98,o),
(1692,276,c),
(1386,348,l),
(1350,302,o),
(1298,274,o),
(1240,274,cs),
(1146,276,o),
(1092,330,o),
(1064,402,c),
(1730,402,l),
(1790,722,o),
(1558,1028,o),
(1240,1028,cs),
(1104,1028,o),
(980,970,o),
(890,878,c),
(800,970,o),
(676,1028,o),
(540,1028,cs),
(264,1028,o),
(40,792,o),
(40,500,cs),
(40,210,o),
(264,-26,o),
(540,-26,cs)
);
},
{
closed = 1;
nodes = (
(432,274,o),
(340,372,o),
(340,500,cs),
(340,622,o),
(428,728,o),
(540,728,cs),
(648,728,o),
(740,626,o),
(740,500,cs),
(740,378,o),
(654,274,o),
(540,274,cs)
);
},
{
closed = 1;
nodes = (
(1080,708,o),
(1154,768,o),
(1240,768,cs),
(1326,768,o),
(1398,708,o),
(1426,622,c),
(1052,622,l)
);
}
);
width = 1779;
},
{
anchors = (
{
name = bottom;
pos = (1029,0);
},
{
name = top;
pos = (1029,1000);
}
);
hints = (
{
horizontal = 1;
origin = (0,31);
target = (1,11);
type = Stem;
},
{
horizontal = 1;
origin = (0,15);
target = (2,6);
type = Stem;
},
{
horizontal = 1;
origin = (0,25);
target = (1,5);
type = Stem;
},
{
origin = (0,28);
target = (1,2);
type = Stem;
},
{
origin = (1,8);
target = (0,15);
type = Stem;
},
{
origin = (2,5);
target = (0,16);
type = Stem;
}
);
layerId = "9AF1F7D9-E035-453E-B2A8-46DE370997D0";
shapes = (
{
closed = 1;
nodes = (
(776,-26,o),
(960,118,o),
(1030,320,c),
(1100,118,o),
(1284,-26,o),
(1500,-26,cs),
(1700,-26,o),
(1872,98,o),
(1952,276,c),
(1892,290,l),
(1812,130,o),
(1670,34,o),
(1500,34,cs),
(1270,34,o),
(1080,220,o),
(1060,470,c),
(1998,470,l),
(1992,804,o),
(1786,1028,o),
(1500,1028,cs),
(1284,1028,o),
(1100,884,o),
(1030,680,c),
(960,884,o),
(776,1028,o),
(560,1028,cs),
(284,1028,o),
(60,792,o),
(60,500,cs),
(60,210,o),
(284,-26,o),
(560,-26,cs)
);
},
{
closed = 1;
nodes = (
(320,34,o),
(120,240,o),
(120,500,cs),
(120,752,o),
(310,968,o),
(560,968,cs),
(808,968,o),
(1000,752,o),
(1000,500,cs),
(1000,250,o),
(808,34,o),
(560,34,cs)
);
},
{
closed = 1;
nodes = (
(1076,772,o),
(1262,968,o),
(1500,968,cs),
(1736,968,o),
(1930,764,o),
(1938,530,c),
(1060,530,l)
);
}
);
width = 2058;
}
);
metricLeft = o;
metricRight = o;
unicode = 339;
},
{
glyphname = p;
kernLeft = p;
kernRight = o;
lastChange = "2023-12-28 01:07:11 +0000";
layers = (
{
anchors = (
{
name = bottom;
pos = (589,0);
},
{
name = top;
pos = (589,1000);
}
);
hints = (
{
horizontal = 1;
origin = (0,15);
target = up;
type = BottomGhost;
},
{
horizontal = 1;
origin = (0,3);
target = (1,5);
type = Stem;
},
{
horizontal = 1;
origin = (0,9);
target = (1,11);
type = Stem;
},
{
horizontal = 1;
origin = (0,14);
target = down;
type = TopGhost;
},
{
origin = (0,15);
target = (0,16);
type = Stem;
},
{
origin = (1,2);
target = (0,6);
type = Stem;
},
{
origin = (0,15);
target = (1,8);
type = Stem;
}
);
layerId = "10BC12B3-5274-42E3-B5BC-F74F362F0DF4";
shapes = (
{
closed = 1;
nodes = (
(370,92,l),
(432,22,o),
(514,-28,o),
(622,-28,cs),
(914,-28,o),
(1148,208,o),
(1148,500,cs),
(1148,790,o),
(914,1026,o),
(622,1026,cs),
(514,1026,o),
(432,976,o),
(370,906,c),
(370,1000,l),
(70,1000,l),
(70,-500,l),
(370,-500,l)
);
},
{
closed = 1;
nodes = (
(742,738,o),
(842,630,o),
(842,500,cs),
(842,368,o),
(742,262,o),
(618,262,cs),
(496,262,o),
(396,368,o),
(396,500,cs),
(396,630,o),
(496,738,o),
(618,738,cs)
);
}
);
width = 1188;
},
{
anchors = (
{
name = bottom;
pos = (577,0);
},
{
name = top;
pos = (577,1000);
}
);
hints = (
{
horizontal = 1;
origin = (0,15);
target = up;
type = BottomGhost;
},
{
horizontal = 1;
origin = (0,3);
target = (1,5);
type = Stem;
},
{
horizontal = 1;
origin = (0,9);
target = (1,11);
type = Stem;
},
{
horizontal = 1;
origin = (0,14);
target = down;
type = TopGhost;
},
{
origin = (0,15);
target = (0,16);
type = Stem;
},
{
origin = (1,2);
target = (0,6);
type = Stem;
},
{
origin = (0,15);
target = (1,8);
type = Stem;
}
);
layerId = "9AF1F7D9-E035-453E-B2A8-46DE370997D0";
shapes = (
{
closed = 1;
nodes = (
(160,232,l),
(232,76,o),
(374,-28,o),
(568,-28,cs),
(858,-28,o),
(1094,208,o),
(1094,500,cs),
(1094,790,o),
(858,1026,o),
(568,1026,cs),
(374,1026,o),
(232,922,o),
(160,766,c),
(160,1000,l),
(100,1000,l),
(100,-500,l),
(160,-500,l)
);
},
{
closed = 1;
nodes = (
(826,966,o),
(1034,756,o),
(1034,500,cs),
(1034,236,o),
(818,32,o),
(568,32,cs),
(310,32,o),
(164,244,o),
(164,500,cs),
(164,760,o),
(314,966,o),
(568,966,cs)
);
}
);
width = 1154;
}
);
metricLeft = H;
metricRight = o;
unicode = 112;
},
{
glyphname = thorn;
kernLeft = H;
kernRight = o;
lastChange = "2023-12-28 00:58:38 +0000";
layers = (
{
anchors = (
{
name = bottom;
pos = (589,0);
},
{
name = top;
pos = (589,1000);
}
);
hints = (
{
horizontal = 1;
origin = (0,16);
target = up;
type = BottomGhost;
},
{
horizontal = 1;
origin = (0,4);
target = (1,11);
type = Stem;
},
{
horizontal = 1;
origin = (0,10);
target = (1,5);
type = Stem;
},
{
horizontal = 1;
origin = (0,15);
target = down;
type = TopGhost;
},
{
origin = (0,16);
target = (0,0);
type = Stem;
},
{
origin = (1,8);
target = (0,7);
type = Stem;
},
{
origin = (0,16);
target = (1,2);
type = Stem;
}
);
layerId = "10BC12B3-5274-42E3-B5BC-F74F362F0DF4";
shapes = (
{
closed = 1;
nodes = (
(370,-500,l),
(370,92,l),
(432,22,o),
(514,-28,o),
(622,-28,cs),
(914,-28,o),
(1148,208,o),
(1148,500,cs),
(1148,790,o),
(914,1026,o),
(622,1026,cs),
(514,1026,o),
(432,976,o),
(370,906,c),
(370,1400,l),
(70,1400,l),
(70,-500,l)
);
},
{
closed = 1;
nodes = (
(496,262,o),
(396,368,o),
(396,500,cs),
(396,630,o),
(496,738,o),
(618,738,cs),
(742,738,o),
(842,630,o),
(842,500,cs),
(842,368,o),
(742,262,o),
(618,262,cs)
);
}
);
width = 1188;
},
{
anchors = (
{
name = bottom;
pos = (577,0);
},
{
name = top;
pos = (577,1000);
}
);
hints = (
{
horizontal = 1;
origin = (0,16);
target = up;
type = BottomGhost;
},
{
horizontal = 1;
origin = (0,4);
target = (1,11);
type = Stem;
},
{
horizontal = 1;
origin = (0,10);
target = (1,5);
type = Stem;
},
{
horizontal = 1;
origin = (0,15);
target = down;
type = TopGhost;
},
{
origin = (0,16);
target = (0,0);
type = Stem;
},
{
origin = (1,8);
target = (0,7);
type = Stem;
},
{
origin = (0,16);
target = (1,2);
type = Stem;
}
);
layerId = "9AF1F7D9-E035-453E-B2A8-46DE370997D0";
shapes = (
{
closed = 1;
nodes = (
(160,-500,l),
(160,232,l),
(232,76,o),
(374,-28,o),
(568,-28,cs),
(858,-28,o),
(1094,208,o),
(1094,500,cs),
(1094,790,o),
(858,1026,o),
(568,1026,cs),
(374,1026,o),
(232,922,o),
(160,766,c),
(160,1400,l),
(100,1400,l),
(100,-500,l)
);
},
{
closed = 1;
nodes = (
(310,32,o),
(164,244,o),
(164,500,cs),
(164,760,o),
(314,966,o),
(568,966,cs),
(826,966,o),
(1034,756,o),
(1034,500,cs),
(1034,236,o),
(818,32,o),
(568,32,cs)
);
}
);
width = 1154;
}
);
metricLeft = H;
metricRight = o;
unicode = 254;
},
{
glyphname = q;
kernLeft = o;
kernRight = g;
lastChange = "2023-12-28 01:07:15 +0000";
layers = (
{
anchors = (
{
name = bottom;
pos = (599,0);
},
{
name = top;
pos = (599,1000);
}
);
hints = (
{
horizontal = 1;
origin = (0,3);
target = up;
type = BottomGhost;
},
{
horizontal = 1;
origin = (0,16);
target = (1,5);
type = Stem;
},
{
horizontal = 1;
origin = (0,10);
target = (1,11);
type = Stem;
},
{
horizontal = 1;
origin = (0,6);
target = down;
type = TopGhost;
},
{
origin = (0,13);
target = (1,8);
type = Stem;
},
{
origin = (0,3);
target = (0,4);
type = Stem;
},
{
origin = (1,2);
target = (0,4);
type = Stem;
}
);
layerId = "10BC12B3-5274-42E3-B5BC-F74F362F0DF4";
shapes = (
{
closed = 1;
nodes = (
(674,-28,o),
(756,22,o),
(818,92,c),
(818,-500,l),
(1118,-500,l),
(1118,1000,l),
(818,1000,l),
(818,906,l),
(756,976,o),
(674,1026,o),
(566,1026,cs),
(276,1026,o),
(40,790,o),
(40,500,cs),
(40,208,o),
(276,-28,o),
(566,-28,cs)
);
},
{
closed = 1;
nodes = (
(694,738,o),
(792,630,o),
(792,500,cs),
(792,368,o),
(694,262,o),
(570,262,cs),
(446,262,o),
(348,368,o),
(348,500,cs),
(348,630,o),
(446,738,o),
(570,738,cs)
);
}
);
width = 1188;
},
{
anchors = (
{
name = bottom;
pos = (577,0);
},
{
name = top;
pos = (577,1000);
}
);
hints = (
{
horizontal = 1;
origin = (0,3);
target = up;
type = BottomGhost;
},
{
horizontal = 1;
origin = (0,16);
target = (1,5);
type = Stem;
},
{
horizontal = 1;
origin = (0,10);
target = (1,11);
type = Stem;
},
{
horizontal = 1;
origin = (0,6);
target = down;
type = TopGhost;
},
{
origin = (0,13);
target = (1,8);
type = Stem;
},
{
origin = (0,3);
target = (0,4);
type = Stem;
},
{
origin = (1,2);
target = (0,4);
type = Stem;
}
);
layerId = "9AF1F7D9-E035-453E-B2A8-46DE370997D0";
shapes = (
{
closed = 1;
nodes = (
(780,-28,o),
(922,76,o),
(994,232,c),
(994,-500,l),
(1054,-500,l),
(1054,1000,l),
(994,1000,l),
(994,766,l),
(922,922,o),
(780,1026,o),
(586,1026,cs),
(296,1026,o),
(60,790,o),
(60,500,cs),
(60,208,o),
(296,-28,o),
(586,-28,cs)
);
},
{
closed = 1;
nodes = (
(840,966,o),
(990,760,o),
(990,500,cs),
(990,244,o),
(844,32,o),
(586,32,cs),
(336,32,o),
(120,236,o),
(120,500,cs),
(120,756,o),
(328,966,o),
(586,966,cs)
);
}
);
width = 1154;
}
);
metricLeft = o;
metricRight = H;
unicode = 113;
},
{
glyphname = r;
kernLeft = n;
kernRight = r;
lastChange = "2023-12-28 01:09:19 +0000";
layers = (
{
anchors = (
{
name = bottom;
pos = (221,0);
},
{
name = top;
pos = (415,1000);
}
);
hints = (
{
horizontal = 1;
place = (0,21);
target = up;
type = BottomGhost;
},
{
horizontal = 1;
place = (1026,288);
type = Stem;
},
{
horizontal = 1;
place = (1014,-20);
target = down;
type = TopGhost;
},
{
horizontal = 1;
place = (738,262);
type = Stem;
},
{
place = (120,300);
type = Stem;
},
{
place = (120,302);
type = Stem;
}
);
layerId = "10BC12B3-5274-42E3-B5BC-F74F362F0DF4";
shapes = (
{
closed = 1;
nodes = (
(371,0,l),
(371,555,ls),
(371,649,o),
(446,724,o),
(540,724,cs),
(566,724,o),
(590,718,o),
(612,708,c),
(730,1012,l),
(695,1022,o),
(658,1028,o),
(620,1028,cs),
(525,1028,o),
(438,994,o),
(371,937,c),
(370,1000,l),
(70,1000,l),
(71,0,l)
);
}
);
width = 690;
},
{
anchors = (
{
name = bottom;
pos = (130,0);
},
{
name = top;
pos = (340,1000);
}
);
hints = (
{
horizontal = 1;
place = (0,21);
target = up;
type = BottomGhost;
},
{
horizontal = 1;
place = (1028,60);
type = Stem;
},
{
horizontal = 1;
place = (1028,-20);
target = down;
type = TopGhost;
},
{
horizontal = 1;
place = (1000,-20);
target = down;
type = TopGhost;
},
{
place = (120,60);
type = Stem;
}
);
layerId = "9AF1F7D9-E035-453E-B2A8-46DE370997D0";
shapes = (
{
closed = 1;
nodes = (
(160,0,l),
(160,609,ls),
(160,808,o),
(321,968,o),
(519,968,cs),
(549,968,o),
(578,964,o),
(606,957,c),
(632,1013,l),
(596,1023,o),
(558,1028,o),
(519,1028,cs),
(367,1028,o),
(233,947,o),
(160,825,c),
(160,1000,l),
(100,1000,l),
(100,0,l)
);
}
);
width = 632;
}
);
metricLeft = n;
unicode = 114;
},
{
glyphname = s;
kernLeft = s;
kernRight = s;
lastChange = "2023-12-28 01:00:23 +0000";
layers = (
{
anchors = (
{
name = bottom;
pos = (464,0);
},
{
name = top;
pos = (407,1000);
}
);
hints = (
{
horizontal = 1;
origin = (0,37);
target = up;
type = BottomGhost;
},
{
horizontal = 1;
origin = (0,11);
target = (0,18);
type = Stem;
},
{
origin = (0,21);
target = (0,8);
type = Stem;
},
{
origin = (0,27);
target = (0,2);
type = Stem;
}
);
layerId = "10BC12B3-5274-42E3-B5BC-F74F362F0DF4";
shapes = (
{
closed = 1;
nodes = (
(590,-38,o),
(794,102,o),
(794,302,cs),
(800,474,o),
(638,578,o),
(466,634,cs),
(422,648,o),
(318,650,o),
(318,708,cs),
(318,770,o),
(370,786,o),
(440,780,cs),
(492,774,o),
(534,738,o),
(558,708,c),
(794,848,l),
(708,968,o),
(570,1034,o),
(414,1034,cs),
(216,1034,o),
(38,906,o),
(38,700,cs),
(38,516,o),
(216,400,o),
(394,372,cs),
(444,364,o),
(518,354,o),
(518,298,cs),
(518,248,o),
(464,234,o),
(412,234,cs),
(334,234,o),
(292,282,o),
(272,304,c),
(20,196,l),
(84,66,o),
(226,-4,o),
(378,-18,cs)
);
}
);
width = 814;
},
{
anchors = (
{
name = bottom;
pos = (488,0);
},
{
name = top;
pos = (426,1000);
}
);
hints = (
{
horizontal = 1;
origin = (0,37);
target = (0,30);
type = Stem;
},
{
horizontal = 1;
origin = (0,11);
target = (0,18);
type = Stem;
},
{
origin = (0,21);
target = (0,8);
type = Stem;
},
{
origin = (0,27);
target = (0,2);
type = Stem;
}
);
layerId = "9AF1F7D9-E035-453E-B2A8-46DE370997D0";
shapes = (
{
closed = 1;
nodes = (
(626,-20,o),
(798,88,o),
(798,258,cs),
(798,424,o),
(628,478,o),
(440,538,cs),
(250,598,o),
(140,618,o),
(140,756,cs),
(140,890,o),
(282,974,o),
(440,974,cs),
(566,974,o),
(708,912,o),
(750,806,c),
(802,836,l),
(754,952,o),
(606,1034,o),
(440,1034,cs),
(252,1034,o),
(80,926,o),
(80,756,cs),
(80,590,o),
(210,550,o),
(440,478,cs),
(588,432,o),
(738,394,o),
(738,258,cs),
(738,128,o),
(596,40,o),
(440,40,cs),
(314,40,o),
(144,112,o),
(106,220,c),
(50,196,l),
(92,76,o),
(268,-20,o),
(440,-20,cs)
);
}
);
width = 852;
}
);
unicode = 115;
},
{
glyphname = germandbls;
kernLeft = h;
kernRight = B;
lastChange = "2023-12-17 22:17:53 +0000";
layers = (
{
anchors = (
{
name = bottom;
pos = (593,0);
},
{
name = top;
pos = (593,1000);
}
);
hints = (
{
horizontal = 1;
origin = (0,38);
target = (0,20);
type = Stem;
},
{
horizontal = 1;
origin = (0,4);
target = (0,34);
type = Stem;
},
{
origin = (0,38);
target = (0,0);
type = Stem;
},
{
origin = (0,7);
target = (0,31);
type = Stem;
},
{
origin = (0,16);
target = (0,25);
type = Stem;
}
);
layerId = "10BC12B3-5274-42E3-B5BC-F74F362F0DF4";
shapes = (
{
closed = 1;
nodes = (
(420,0,l),
(420,950,ls),
(420,1058,o),
(506,1144,o),
(614,1144,cs),
(694,1144,o),
(760,1076,o),
(760,994,cs),
(760,912,o),
(694,857,o),
(614,844,cs),
(590,840,l),
(590,598,l),
(672,594,ls),
(776,589,o),
(860,516,o),
(860,424,cs),
(860,332,o),
(776,254,o),
(672,254,cs),
(590,254,l),
(630,0,l),
(704,0,ls),
(936,0,o),
(1126,170,o),
(1126,402,cs),
(1126,526,o),
(1108,710,o),
(930,734,c),
(1034,782,o),
(1060,906,o),
(1060,994,cs),
(1060,1228,o),
(880,1400,o),
(650,1400,cs),
(356,1400,o),
(120,1162,o),
(120,870,cs),
(120,0,l)
);
}
);
width = 1186;
},
{
anchors = (
{
name = bottom;
pos = (505,0);
},
{
name = top;
pos = (505,1000);
}
);
hints = (
{
horizontal = 1;
origin = (0,38);
target = (0,20);
type = Stem;
},
{
horizontal = 1;
origin = (0,12);
target = (0,11);
type = Stem;
},
{
horizontal = 1;
origin = (0,4);
target = (0,34);
type = Stem;
},
{
origin = (0,38);
target = (0,0);
type = Stem;
},
{
origin = (0,16);
target = (0,25);
type = Stem;
},
{
origin = (0,7);
target = (0,31);
type = Stem;
}
);
layerId = "9AF1F7D9-E035-453E-B2A8-46DE370997D0";
shapes = (
{
closed = 1;
nodes = (
(180,0,l),
(180,994,ls),
(180,1184,o),
(334,1340,o),
(524,1340,cs),
(682,1340,o),
(812,1200,o),
(812,1030,cs),
(812,860,o),
(682,722,o),
(524,722,cs),
(496,722,l),
(496,662,l),
(590,662,ls),
(756,662,o),
(890,528,o),
(890,362,cs),
(890,196,o),
(756,60,o),
(590,60,cs),
(496,60,l),
(516,0,l),
(590,0,ls),
(788,0,o),
(950,162,o),
(950,362,cs),
(950,526,o),
(842,664,o),
(692,708,c),
(798,770,o),
(872,892,o),
(872,1030,cs),
(872,1232,o),
(716,1400,o),
(524,1400,cs),
(300,1400,o),
(120,1216,o),
(120,994,cs),
(120,0,l)
);
}
);
width = 1010;
}
);
unicode = 223;
},
{
glyphname = t;
kernLeft = t;
kernRight = f;
lastChange = "2023-12-28 00:13:46 +0000";
layers = (
{
anchors = (
{
name = bottom;
pos = (350,0);
},
{
name = center;
pos = (365,500);
},
{
name = top;
pos = (350,1314);
},
{
name = topright;
pos = (608,1102);
}
);
hints = (
{
horizontal = 1;
origin = (0,8);
target = up;
type = BottomGhost;
},
{
horizontal = 1;
origin = (0,5);
target = (0,6);
type = Stem;
},
{
origin = (0,8);
target = (0,9);
type = Stem;
},
{
origin = (0,6);
target = (0,9);
type = Stem;
}
);
layerId = "10BC12B3-5274-42E3-B5BC-F74F362F0DF4";
shapes = (
{
closed = 1;
nodes = (
(670,1000,l),
(500,1000,l),
(500,1314,l),
(200,1314,l),
(200,1000,l),
(70,1000,l),
(70,700,l),
(200,700,l),
(200,0,l),
(500,0,l),
(500,700,l),
(670,700,l)
);
}
);
width = 730;
},
{
anchors = (
{
name = bottom;
pos = (244,0);
},
{
name = center;
pos = (273,500);
},
{
name = top;
pos = (244,1314);
},
{
name = topright;
pos = (456,1102);
}
);
hints = (
{
horizontal = 1;
origin = (0,8);
target = up;
type = BottomGhost;
},
{
horizontal = 1;
origin = (0,5);
target = (0,6);
type = Stem;
},
{
place = (277,60);
type = Stem;
}
);
layerId = "9AF1F7D9-E035-453E-B2A8-46DE370997D0";
shapes = (
{
closed = 1;
nodes = (
(550,1000,l),
(276,1000,l),
(274,1314,l),
(214,1314,l),
(216,1000,l),
(10,1000,l),
(10,940,l),
(216,940,l),
(214,0,l),
(274,0,l),
(276,940,l),
(550,940,l)
);
}
);
width = 580;
}
);
unicode = 116;
},
{
glyphname = u;
kernLeft = u;
kernRight = u;
lastChange = "2023-12-28 01:07:24 +0000";
layers = (
{
anchors = (
{
name = bottom;
pos = (578,2);
},
{
name = ogonek;
pos = (1009,2);
},
{
name = top;
pos = (578,1000);
},
{
name = topright;
pos = (1008,1000);
}
);
hints = (
{
horizontal = 1;
place = (0,21);
target = up;
type = BottomGhost;
},
{
horizontal = 1;
place = (1000,-20);
target = down;
type = TopGhost;
},
{
horizontal = 1;
place = (-28,290);
type = Stem;
},
{
place = (120,300);
type = Stem;
},
{
place = (836,300);
type = Stem;
}
);
layerId = "10BC12B3-5274-42E3-B5BC-F74F362F0DF4";
shapes = (
{
closed = 1;
nodes = (
(70,148,o),
(244,-26,o),
(459,-26,cs),
(554,-26,o),
(641,8,o),
(708,65,c),
(709,0,l),
(1009,0,l),
(1008,1000,l),
(708,1000,l),
(708,447,ls),
(708,353,o),
(633,278,o),
(539,278,cs),
(446,278,o),
(370,353,o),
(370,447,cs),
(370,1000,l),
(70,1000,l),
(70,363,ls)
);
}
);
width = 1079;
},
{
anchors = (
{
name = bottom;
pos = (519,0);
},
{
name = ogonek;
pos = (938,0);
},
{
name = top;
pos = (519,1000);
},
{
name = topright;
pos = (938,1000);
}
);
hints = (
{
horizontal = 1;
place = (-26,60);
type = Stem;
},
{
horizontal = 1;
place = (1000,-20);
target = down;
type = TopGhost;
},
{
horizontal = 1;
place = (0,21);
target = up;
type = BottomGhost;
},
{
place = (120,60);
type = Stem;
},
{
place = (898,60);
type = Stem;
}
);
layerId = "9AF1F7D9-E035-453E-B2A8-46DE370997D0";
shapes = (
{
closed = 1;
nodes = (
(100,161,o),
(287,-26,o),
(519,-26,cs),
(671,-26,o),
(805,55,o),
(878,177,c),
(878,0,l),
(938,0,l),
(938,1000,l),
(878,1000,l),
(878,393,ls),
(878,194,o),
(717,34,o),
(519,34,cs),
(321,34,o),
(160,194,o),
(160,393,cs),
(160,1000,l),
(100,1000,l),
(100,393,ls)
);
}
);
width = 1038;
}
);
metricLeft = n;
metricRight = n;
unicode = 117;
},
{
glyphname = v;
kernLeft = w;
kernRight = w;
lastChange = "2023-12-28 00:56:02 +0000";
layers = (
{
anchors = (
{
name = bottom;
pos = (568,0);
},
{
name = top;
pos = (568,1000);
}
);
hints = (
{
horizontal = 1;
origin = (0,5);
target = up;
type = BottomGhost;
},
{
horizontal = 1;
origin = (0,4);
target = down;
type = TopGhost;
}
);
layerId = "10BC12B3-5274-42E3-B5BC-F74F362F0DF4";
shapes = (
{
closed = 1;
nodes = (
(1126,1000,l),
(806,1000,l),
(568,344,l),
(330,1000,l),
(10,1000,l),
(374,0,l),
(762,0,l)
);
}
);
width = 1136;
},
{
anchors = (
{
name = bottom;
pos = (412,0);
},
{
name = top;
pos = (412,1000);
}
);
hints = (
{
horizontal = 1;
origin = (0,5);
target = up;
type = BottomGhost;
},
{
horizontal = 1;
origin = (0,4);
target = down;
type = TopGhost;
},
{
horizontal = 1;
origin = (0,5);
target = (0,2);
type = Stem;
}
);
layerId = "9AF1F7D9-E035-453E-B2A8-46DE370997D0";
shapes = (
{
closed = 1;
nodes = (
(814,1004,l),
(750,1004,l),
(412,74,l),
(74,1004,l),
(10,1004,l),
(376,0,l),
(448,0,l)
);
}
);
width = 824;
}
);
metricLeft = w;
metricRight = w;
unicode = 118;
},
{
glyphname = w;
kernLeft = w;
kernRight = w;
lastChange = "2023-12-28 00:33:15 +0000";
layers = (
{
anchors = (
{
name = bottom;
pos = (824,0);
},
{
name = top;
pos = (824,1000);
}
);
hints = (
{
horizontal = 1;
origin = (0,11);
target = up;
type = BottomGhost;
},
{
horizontal = 1;
origin = (0,10);
target = down;
type = TopGhost;
}
);
layerId = "10BC12B3-5274-42E3-B5BC-F74F362F0DF4";
shapes = (
{
closed = 1;
nodes = (
(824,562,l),
(1010,0,l),
(1304,0,l),
(1638,1000,l),
(1344,1000,l),
(1156,438,l),
(970,1000,l),
(678,1000,l),
(492,438,l),
(304,1000,l),
(10,1000,l),
(344,0,l),
(638,0,l)
);
}
);
width = 1648;
},
{
anchors = (
{
name = bottom;
pos = (732,0);
},
{
name = top;
pos = (732,1000);
}
);
hints = (
{
horizontal = 1;
origin = (0,11);
target = (0,8);
type = Stem;
},
{
horizontal = 1;
origin = (0,10);
target = down;
type = TopGhost;
},
{
horizontal = 1;
origin = (0,10);
target = (0,0);
type = Stem;
}
);
layerId = "9AF1F7D9-E035-453E-B2A8-46DE370997D0";
shapes = (
{
closed = 1;
nodes = (
(730,940,l),
(1048,0,l),
(1118,0,l),
(1454,1000,l),
(1394,1000,l),
(1082,72,l),
(770,1000,l),
(694,1000,l),
(382,72,l),
(68,1000,l),
(10,1000,l),
(346,0,l),
(414,0,l)
);
}
);
width = 1464;
}
);
unicode = 119;
},
{
glyphname = x;
kernLeft = x;
kernRight = x;
lastChange = "2023-12-28 01:09:59 +0000";
layers = (
{
anchors = (
{
name = bottom;
pos = (561,0);
},
{
name = top;
pos = (561,1000);
}
);
hints = (
{
horizontal = 1;
origin = (0,11);
target = up;
type = BottomGhost;
},
{
horizontal = 1;
origin = (0,9);
target = down;
type = TopGhost;
}
);
layerId = "10BC12B3-5274-42E3-B5BC-F74F362F0DF4";
shapes = (
{
closed = 1;
nodes = (
(380,0,l),
(560,248,l),
(742,0,l),
(1112,0,l),
(746,502,l),
(1108,1000,l),
(738,1000,l),
(560,758,l),
(384,1000,l),
(14,1000,l),
(376,502,l),
(10,0,l)
);
}
);
width = 1122;
},
{
anchors = (
{
name = bottom;
pos = (413,0);
},
{
name = top;
pos = (413,1000);
}
);
hints = (
{
horizontal = 1;
origin = (0,11);
target = up;
type = BottomGhost;
},
{
horizontal = 1;
origin = (0,9);
target = down;
type = TopGhost;
}
);
layerId = "9AF1F7D9-E035-453E-B2A8-46DE370997D0";
shapes = (
{
closed = 1;
nodes = (
(84,0,l),
(414,452,l),
(742,0,l),
(816,0,l),
(450,502,l),
(816,1004,l),
(742,1004,l),
(414,554,l),
(84,1004,l),
(10,1004,l),
(376,502,l),
(10,0,l)
);
}
);
width = 826;
}
);
unicode = 120;
},
{
glyphname = y;
kernLeft = y;
kernRight = y;
lastChange = "2023-12-28 01:10:02 +0000";
layers = (
{
anchors = (
{
name = bottom;
pos = (795,0);
},
{
name = top;
pos = (533,1000);
}
);
hints = (
{
horizontal = 1;
origin = (0,4);
target = up;
type = BottomGhost;
},
{
horizontal = 1;
origin = (0,2);
target = down;
type = TopGhost;
}
);
layerId = "10BC12B3-5274-42E3-B5BC-F74F362F0DF4";
shapes = (
{
closed = 1;
nodes = (
(520,410,l),
(338,1000,l),
(10,1000,l),
(370,0,l),
(190,-500,l),
(508,-500,l),
(1056,1000,l),
(736,1000,l)
);
}
);
width = 1066;
},
{
anchors = (
{
name = bottom;
pos = (560,0);
},
{
name = top;
pos = (403,1000);
}
);
hints = (
{
horizontal = 1;
origin = (0,4);
target = up;
type = BottomGhost;
},
{
horizontal = 1;
origin = (0,2);
target = down;
type = TopGhost;
}
);
layerId = "9AF1F7D9-E035-453E-B2A8-46DE370997D0";
shapes = (
{
closed = 1;
nodes = (
(398,84,l),
(76,1000,l),
(10,1000,l),
(368,0,l),
(186,-500,l),
(250,-500,l),
(796,1000,l),
(734,1000,l)
);
}
);
width = 806;
}
);
unicode = 121;
},
{
glyphname = z;
kernLeft = z;
kernRight = z;
lastChange = "2023-12-28 01:10:26 +0000";
layers = (
{
anchors = (
{
name = bottom;
pos = (437,0);
},
{
name = center;
pos = (437,500);
},
{
name = top;
pos = (437,1000);
}
);
background = {
shapes = (
{
closed = 1;
nodes = (
(864,1000,l),
(10,1000,l),
(10,700,l),
(430,700,l),
(10,300,l),
(10,0,l),
(864,0,l),
(864,300,l),
(444,300,l),
(864,700,l)
);
}
);
};
hints = (
{
horizontal = 1;
origin = (0,5);
target = (0,4);
type = Stem;
},
{
horizontal = 1;
origin = (0,1);
target = (0,2);
type = Stem;
},
{
origin = (0,5);
target = (0,6);
type = Stem;
}
);
layerId = "10BC12B3-5274-42E3-B5BC-F74F362F0DF4";
shapes = (
{
closed = 1;
nodes = (
(864,1000,l),
(10,1000,l),
(10,700,l),
(430,700,l),
(10,300,l),
(10,0,l),
(864,0,l),
(864,300,l),
(444,300,l),
(864,700,l)
);
}
);
width = 874;
},
{
anchors = (
{
name = bottom;
pos = (437,0);
},
{
name = center;
pos = (437,500);
},
{
name = top;
pos = (437,1000);
}
);
hints = (
{
horizontal = 1;
origin = (0,5);
target = (0,4);
type = Stem;
},
{
horizontal = 1;
origin = (0,1);
target = (0,2);
type = Stem;
}
);
layerId = "9AF1F7D9-E035-453E-B2A8-46DE370997D0";
shapes = (
{
closed = 1;
nodes = (
(864,1000,l),
(10,1000,l),
(10,940,l),
(784,940,l),
(10,60,l),
(10,0,l),
(864,0,l),
(864,60,l),
(90,60,l),
(864,940,l)
);
}
);
width = 874;
}
);
unicode = 122;
},
{
glyphname = saltillo;
kernLeft = H;
kernRight = H;
lastChange = "2023-12-17 22:17:53 +0000";
layers = (
{
layerId = "9AF1F7D9-E035-453E-B2A8-46DE370997D0";
shapes = (
{
closed = 1;
nodes = (
(60,1500,l),
(70,953,l),
(110,953,l),
(120,1500,l)
);
}
);
width = 180;
},
{
layerId = "10BC12B3-5274-42E3-B5BC-F74F362F0DF4";
shapes = (
{
closed = 1;
nodes = (
(60,1500,l),
(110,953,l),
(310,953,l),
(360,1500,l)
);
}
);
width = 420;
}
);
unicode = 42892;
},
{
glyphname = ordfeminine;
kernLeft = o;
kernRight = n;
lastChange = "2023-12-17 22:17:53 +0000";
layers = (
{
layerId = "10BC12B3-5274-42E3-B5BC-F74F362F0DF4";
shapes = (
{
closed = 1;
nodes = (
(498,730,o),
(572,764,o),
(625,820,c),
(625,747,l),
(775,747,l),
(775,1411,l),
(625,1411,l),
(625,1340,l),
(572,1396,o),
(498,1430,o),
(404,1430,cs),
(214,1430,o),
(60,1273,o),
(60,1080,cs),
(60,887,o),
(214,730,o),
(404,730,cs)
);
},
{
closed = 1;
nodes = (
(264,1167,o),
(329,1237,o),
(412,1237,cs),
(494,1237,o),
(561,1167,o),
(561,1079,cs),
(561,992,o),
(494,921,o),
(412,921,cs),
(331,921,o),
(264,992,o),
(264,1079,cs)
);
}
);
width = 835;
},
{
layerId = "9AF1F7D9-E035-453E-B2A8-46DE370997D0";
shapes = (
{
closed = 1;
nodes = (
(529,730,o),
(619,790,o),
(670,882,c),
(670,747,l),
(730,747,l),
(730,1411,l),
(670,1411,l),
(670,1277,l),
(619,1369,o),
(529,1430,o),
(404,1430,cs),
(214,1430,o),
(60,1273,o),
(60,1080,cs),
(60,887,o),
(214,730,o),
(404,730,cs)
);
},
{
closed = 1;
nodes = (
(120,1248,o),
(256,1370,o),
(404,1370,cs),
(562,1370,o),
(657,1251,o),
(657,1079,cs),
(657,931,o),
(579,790,o),
(404,790,cs),
(259,790,o),
(120,909,o),
(120,1080,cs)
);
}
);
width = 790;
}
);
unicode = 170;
},
{
glyphname = ordmasculine;
kernLeft = o;
kernRight = o;
lastChange = "2023-12-17 22:17:53 +0000";
layers = (
{
layerId = "10BC12B3-5274-42E3-B5BC-F74F362F0DF4";
shapes = (
{
closed = 1;
nodes = (
(575,730,o),
(724,887,o),
(724,1079,cs),
(724,1273,o),
(575,1430,o),
(392,1430,cs),
(208,1430,o),
(60,1273,o),
(60,1079,cs),
(60,887,o),
(208,730,o),
(392,730,cs)
);
},
{
closed = 1;
nodes = (
(210,1176,o),
(280,1280,o),
(392,1280,cs),
(497,1280,o),
(574,1185,o),
(574,1079,cs),
(574,981,o),
(502,880,o),
(392,880,cs),
(291,880,o),
(210,971,o),
(210,1079,cs)
);
}
);
width = 784;
},
{
layerId = "9AF1F7D9-E035-453E-B2A8-46DE370997D0";
shapes = (
{
closed = 1;
nodes = (
(575,730,o),
(724,887,o),
(724,1079,cs),
(724,1273,o),
(575,1430,o),
(392,1430,cs),
(209,1430,o),
(60,1273,o),
(60,1079,cs),
(60,887,o),
(209,730,o),
(392,730,cs)
);
},
{
closed = 1;
nodes = (
(120,1239,o),
(239,1370,o),
(392,1370,cs),
(548,1370,o),
(664,1234,o),
(664,1079,cs),
(664,920,o),
(542,790,o),
(392,790,cs),
(242,790,o),
(120,920,o),
(120,1079,cs)
);
}
);
width = 784;
}
);
unicode = 186;
},
{
glyphname = Omega;
kernLeft = O;
kernRight = O;
lastChange = "2023-12-17 22:17:53 +0000";
layers = (
{
layerId = "9AF1F7D9-E035-453E-B2A8-46DE370997D0";
shapes = (
{
closed = 1;
nodes = (
(576,0,l),
(576,60,l),
(313,140,o),
(120,398,o),
(120,700,cs),
(120,1060,o),
(398,1366,o),
(750,1366,cs),
(1098,1366,o),
(1380,1064,o),
(1380,700,cs),
(1380,402,o),
(1190,141,o),
(925,60,c),
(925,0,l),
(1440,0,l),
(1440,60,l),
(1076,60,l),
(1292,183,o),
(1440,424,o),
(1440,700,cs),
(1440,1100,o),
(1130,1426,o),
(750,1426,cs),
(370,1426,o),
(60,1100,o),
(60,700,cs),
(60,424,o),
(208,183,o),
(425,60,c),
(60,60,l),
(60,0,l)
);
}
);
width = 1500;
},
{
layerId = "10BC12B3-5274-42E3-B5BC-F74F362F0DF4";
shapes = (
{
closed = 1;
nodes = (
(600,0,l),
(600,307,l),
(460,372,o),
(360,524,o),
(360,700,cs),
(360,934,o),
(536,1126,o),
(750,1126,cs),
(964,1126,o),
(1140,934,o),
(1140,700,cs),
(1140,524,o),
(1041,372,o),
(900,307,c),
(900,0,l),
(1440,0,l),
(1440,300,l),
(1326,300,l),
(1398,415,o),
(1440,552,o),
(1440,700,cs),
(1440,1100,o),
(1130,1426,o),
(750,1426,cs),
(370,1426,o),
(60,1100,o),
(60,700,cs),
(60,552,o),
(103,415,o),
(175,300,c),
(60,300,l),
(60,0,l)
);
}
);
width = 1500;
}
);
unicode = 937;
},
{
glyphname = mu;
kernLeft = p;
kernRight = u;
lastChange = "2023-12-17 22:17:53 +0000";
layers = (
{
hints = (
{
horizontal = 1;
origin = (0,1);
target = up;
type = BottomGhost;
},
{
horizontal = 1;
origin = (0,20);
target = down;
type = TopGhost;
},
{
horizontal = 1;
origin = (0,4);
target = (0,15);
type = Stem;
},
{
origin = (0,21);
target = (0,0);
type = Stem;
},
{
origin = (0,8);
target = (0,9);
type = Stem;
}
);
layerId = "10BC12B3-5274-42E3-B5BC-F74F362F0DF4";
shapes = (
{
closed = 1;
nodes = (
(380,-432,l),
(380,0,l),
(430,-18,o),
(484,-28,o),
(544,-28,cs),
(652,-28,o),
(734,22,o),
(796,92,c),
(796,0,l),
(1096,0,l),
(1096,1000,l),
(796,1000,l),
(796,500,ls),
(796,368,o),
(728,262,o),
(598,262,cs),
(466,262,o),
(380,368,o),
(380,500,cs),
(380,1000,l),
(80,1000,l),
(80,-432,l)
);
}
);
width = 1176;
},
{
hints = (
{
horizontal = 1;
origin = (0,4);
target = (0,15);
type = Stem;
},
{
horizontal = 1;
origin = (0,20);
target = down;
type = TopGhost;
},
{
horizontal = 1;
origin = (0,8);
target = up;
type = BottomGhost;
},
{
origin = (0,21);
target = (0,0);
type = Stem;
},
{
origin = (0,8);
target = (0,9);
type = Stem;
}
);
layerId = "9AF1F7D9-E035-453E-B2A8-46DE370997D0";
shapes = (
{
closed = 1;
nodes = (
(140,-432,l),
(140,208,l),
(212,70,o),
(342,-26,o),
(500,-26,cs),
(648,-26,o),
(776,60,o),
(858,206,c),
(858,0,l),
(918,0,l),
(918,1000,l),
(858,1000,l),
(858,452,ls),
(858,222,o),
(696,34,o),
(500,34,cs),
(302,34,o),
(140,222,o),
(140,452,cs),
(140,1000,l),
(80,1000,l),
(80,-432,l)
);
}
);
width = 998;
}
);
unicode = 956;
},
{
glyphname = pi;
kernLeft = pi;
kernRight = pi;
lastChange = "2023-12-17 22:17:53 +0000";
layers = (
{
layerId = "9AF1F7D9-E035-453E-B2A8-46DE370997D0";
shapes = (
{
closed = 1;
nodes = (
(316,0,l),
(316,940,l),
(778,940,l),
(778,199,ls),
(778,89,o),
(867,0,o),
(977,0,c),
(977,60,l),
(898,60,o),
(838,123,o),
(838,199,cs),
(838,940,l),
(1034,940,l),
(1034,1000,l),
(60,1000,l),
(60,940,l),
(256,940,l),
(256,0,l)
);
}
);
width = 1094;
},
{
layerId = "10BC12B3-5274-42E3-B5BC-F74F362F0DF4";
shapes = (
{
closed = 1;
nodes = (
(436,0,l),
(436,700,l),
(658,700,l),
(658,375,ls),
(658,169,o),
(821,0,o),
(1034,0,c),
(1034,300,l),
(992,300,o),
(958,333,o),
(958,375,cs),
(958,700,l),
(1034,700,l),
(1034,1000,l),
(60,1000,l),
(60,700,l),
(136,700,l),
(136,0,l)
);
}
);
width = 1094;
}
);
unicode = 960;
},
{
glyphname = zero;
kernLeft = zero;
kernRight = zero;
lastChange = "2023-12-24 20:18:58 +0000";
layers = (
{
hints = (
{
horizontal = 1;
origin = (0,11);
target = (1,11);
type = Stem;
},
{
horizontal = 1;
origin = (0,5);
target = (1,5);
type = Stem;
},
{
origin = (0,8);
target = (1,2);
type = Stem;
},
{
origin = (1,8);
target = (0,2);
type = Stem;
}
);
layerId = "10BC12B3-5274-42E3-B5BC-F74F362F0DF4";
shapes = (
{
closed = 1;
nodes = (
(901,-26,o),
(1129,300,o),
(1129,700,cs),
(1129,1100,o),
(901,1426,o),
(581,1426,cs),
(261,1426,o),
(31,1100,o),
(31,700,cs),
(31,300,o),
(261,-26,o),
(581,-26,cs)
);
},
{
closed = 1;
nodes = (
(397,274,o),
(311,484,o),
(311,700,cs),
(311,918,o),
(395,1126,o),
(581,1126,cs),
(759,1126,o),
(849,930,o),
(849,700,cs),
(849,482,o),
(767,274,o),
(581,274,cs)
);
}
);
width = 1160;
},
{
hints = (
{
horizontal = 1;
origin = (0,11);
target = (1,11);
type = Stem;
},
{
horizontal = 1;
origin = (0,5);
target = (1,5);
type = Stem;
},
{
origin = (0,8);
target = (1,2);
type = Stem;
},
{
origin = (1,8);
target = (0,2);
type = Stem;
}
);
layerId = "9AF1F7D9-E035-453E-B2A8-46DE370997D0";
shapes = (
{
closed = 1;
nodes = (
(921,-26,o),
(1109,300,o),
(1109,700,cs),
(1109,1102,o),
(921,1426,o),
(581,1426,cs),
(239,1426,o),
(51,1102,o),
(51,700,cs),
(51,300,o),
(239,-26,o),
(581,-26,cs)
);
},
{
closed = 1;
nodes = (
(277,34,o),
(111,332,o),
(111,700,cs),
(111,1058,o),
(267,1366,o),
(581,1366,cs),
(879,1366,o),
(1049,1082,o),
(1049,700,cs),
(1049,336,o),
(885,34,o),
(581,34,cs)
);
}
);
width = 1160;
}
);
unicode = 48;
},
{
glyphname = one;
kernLeft = one;
kernRight = one;
lastChange = "2023-12-28 01:08:47 +0000";
layers = (
{
hints = (
{
horizontal = 1;
origin = (0,5);
target = up;
type = BottomGhost;
},
{
horizontal = 1;
origin = (0,2);
target = (0,3);
type = Stem;
},
{
origin = (0,5);
target = (0,0);
type = Stem;
}
);
layerId = "10BC12B3-5274-42E3-B5BC-F74F362F0DF4";
shapes = (
{
closed = 1;
nodes = (
(745,0,l),
(745,1400,l),
(335,1400,l),
(255,1100,l),
(445,1100,l),
(445,0,l)
);
}
);
width = 1160;
},
{
hints = (
{
horizontal = 1;
origin = (0,5);
target = up;
type = BottomGhost;
},
{
horizontal = 1;
origin = (0,2);
target = (0,3);
type = Stem;
},
{
origin = (0,5);
target = (0,0);
type = Stem;
}
);
layerId = "9AF1F7D9-E035-453E-B2A8-46DE370997D0";
shapes = (
{
closed = 1;
nodes = (
(680,0,l),
(680,1400,l),
(500,1400,l),
(480,1340,l),
(620,1340,l),
(620,0,l)
);
}
);
width = 1160;
}
);
unicode = 49;
},
{
glyphname = two;
kernLeft = two;
kernRight = two;
lastChange = "2023-12-23 06:40:25 +0000";
layers = (
{
hints = (
{
horizontal = 1;
origin = (0,22);
target = (0,2);
type = Stem;
},
{
horizontal = 1;
origin = (0,8);
target = (0,15);
type = Stem;
},
{
origin = (0,11);
target = (0,12);
type = Stem;
},
{
origin = (0,18);
target = (0,0);
type = Stem;
}
);
layerId = "10BC12B3-5274-42E3-B5BC-F74F362F0DF4";
shapes = (
{
closed = 1;
nodes = (
(1066,0,l),
(1066,300,l),
(646,300,l),
(914,560,o),
(1066,718,o),
(1066,940,cs),
(1066,1210,o),
(848,1426,o),
(582,1426,cs),
(320,1426,o),
(96,1216,o),
(96,940,c),
(396,940,l),
(396,1042,o),
(480,1126,o),
(582,1126,cs),
(684,1126,o),
(766,1042,o),
(766,940,cs),
(766,772,o),
(280,384,o),
(94,268,c),
(94,0,l)
);
}
);
width = 1160;
},
{
hints = (
{
horizontal = 1;
origin = (0,22);
target = (0,2);
type = Stem;
},
{
horizontal = 1;
origin = (0,8);
target = (0,15);
type = Stem;
},
{
origin = (0,11);
target = (0,12);
type = Stem;
},
{
origin = (0,18);
target = (0,5);
type = Stem;
}
);
layerId = "9AF1F7D9-E035-453E-B2A8-46DE370997D0";
shapes = (
{
closed = 1;
nodes = (
(999,0,l),
(999,60,l),
(249,60,l),
(525,314,o),
(967,780,o),
(967,1026,cs),
(967,1246,o),
(789,1426,o),
(571,1426,cs),
(351,1426,o),
(173,1246,o),
(173,1026,c),
(233,1026,l),
(233,1212,o),
(385,1366,o),
(571,1366,cs),
(757,1366,o),
(907,1212,o),
(907,1026,cs),
(907,782,o),
(471,372,o),
(151,52,c),
(151,0,l)
);
}
);
width = 1150;
}
);
unicode = 50;
},
{
glyphname = three;
kernLeft = three;
kernRight = three;
lastChange = "2023-12-23 06:40:38 +0000";
layers = (
{
hints = (
{
horizontal = 1;
origin = (0,38);
target = (0,31);
type = Stem;
},
{
horizontal = 1;
origin = (0,25);
target = (0,24);
type = Stem;
},
{
horizontal = 1;
origin = (0,18);
target = (0,11);
type = Stem;
},
{
horizontal = 1;
origin = (0,14);
target = (0,11);
type = Stem;
},
{
horizontal = 1;
origin = (0,38);
target = (0,35);
type = Stem;
},
{
origin = (0,35);
target = (0,34);
type = Stem;
},
{
origin = (0,28);
target = (0,2);
type = Stem;
},
{
origin = (0,21);
target = (0,8);
type = Stem;
}
);
layerId = "10BC12B3-5274-42E3-B5BC-F74F362F0DF4";
shapes = (
{
closed = 1;
nodes = (
(834,-26,o),
(1042,182,o),
(1042,436,cs),
(1042,556,o),
(988,704,o),
(884,744,c),
(964,786,o),
(1004,902,o),
(1004,996,cs),
(1004,1236,o),
(804,1428,o),
(570,1428,cs),
(332,1428,o),
(118,1234,o),
(118,996,c),
(418,996,l),
(418,1068,o),
(500,1128,o),
(574,1128,cs),
(646,1128,o),
(704,1068,o),
(704,996,cs),
(704,896,o),
(614,846,o),
(468,846,c),
(468,618,l),
(634,618,o),
(742,558,o),
(742,436,cs),
(742,348,o),
(668,274,o),
(580,274,cs),
(492,274,o),
(418,348,o),
(418,436,c),
(118,436,l),
(118,180,o),
(328,-26,o),
(580,-26,cs)
);
}
);
width = 1160;
},
{
background = {
shapes = (
{
closed = 1;
nodes = (
(1012,708,o),
(926,746,c),
(1010,804,o),
(1046,902,o),
(1046,1000,c),
(1046,1248,o),
(846,1424,o),
(602,1424,c),
(356,1424,o),
(158,1246,o),
(158,1000,c),
(458,1000,l),
(458,1080,o),
(522,1144,o),
(602,1144,c),
(680,1144,o),
(746,1080,o),
(746,1000,c),
(746,936,o),
(672,830,o),
(494,830,c),
(494,648,l),
(722,648,o),
(782,530,o),
(782,446,c),
(782,352,o),
(704,274,o),
(608,274,c),
(514,274,o),
(436,352,o),
(436,446,c),
(136,446,l),
(136,184,o),
(348,-26,o),
(608,-26,c),
(868,-26,o),
(1082,186,o),
(1082,446,c),
(1082,560,o)
);
}
);
};
hints = (
{
horizontal = 1;
origin = (0,38);
target = (0,31);
type = Stem;
},
{
horizontal = 1;
origin = (0,25);
target = (0,24);
type = Stem;
},
{
horizontal = 1;
origin = (0,11);
target = (0,18);
type = Stem;
},
{
origin = (0,35);
target = (0,34);
type = Stem;
},
{
origin = (0,28);
target = (0,2);
type = Stem;
},
{
origin = (0,14);
target = (0,15);
type = Stem;
},
{
origin = (0,21);
target = (0,8);
type = Stem;
}
);
layerId = "9AF1F7D9-E035-453E-B2A8-46DE370997D0";
shapes = (
{
closed = 1;
nodes = (
(798,-26,o),
(996,152,o),
(996,370,cs),
(996,546,o),
(900,678,o),
(718,738,c),
(858,784,o),
(952,906,o),
(952,1066,cs),
(952,1264,o),
(770,1426,o),
(572,1426,cs),
(372,1426,o),
(190,1264,o),
(190,1066,c),
(250,1066,l),
(250,1230,o),
(406,1366,o),
(572,1366,cs),
(736,1366,o),
(892,1230,o),
(892,1066,cs),
(892,870,o),
(740,766,o),
(516,766,c),
(516,706,l),
(756,706,o),
(936,594,o),
(936,370,cs),
(936,184,o),
(764,34,o),
(580,34,cs),
(354,34,o),
(224,184,o),
(224,370,c),
(164,370,l),
(164,152,o),
(322,-26,o),
(580,-26,cs)
);
}
);
width = 1160;
}
);
unicode = 51;
},
{
glyphname = four;
kernLeft = four;
kernRight = four;
lastChange = "2023-12-25 06:33:59 +0000";
layers = (
{
hints = (
{
horizontal = 1;
origin = (0,10);
target = up;
type = BottomGhost;
},
{
horizontal = 1;
origin = (0,8);
target = (0,7);
type = Stem;
},
{
horizontal = 1;
origin = (0,6);
target = down;
type = TopGhost;
},
{
origin = (0,10);
target = (0,0);
type = Stem;
},
{
origin = (0,10);
target = (0,2);
type = Stem;
}
);
layerId = "10BC12B3-5274-42E3-B5BC-F74F362F0DF4";
shapes = (
{
closed = 1;
nodes = (
(975,0,l),
(975,310,l),
(1077,310,l),
(1077,610,l),
(975,610,l),
(975,1400,l),
(607,1400,l),
(83,610,l),
(83,310,l),
(675,310,l),
(675,0,l)
);
},
{
closed = 1;
nodes = (
(675,996,l),
(675,610,l),
(429,610,l)
);
}
);
width = 1160;
},
{
hints = (
{
horizontal = 1;
origin = (0,10);
target = up;
type = BottomGhost;
},
{
horizontal = 1;
origin = (0,8);
target = (1,1);
type = Stem;
},
{
horizontal = 1;
origin = (0,6);
target = down;
type = TopGhost;
},
{
horizontal = 1;
place = (434,62);
type = Stem;
},
{
horizontal = 1;
origin = (0,6);
target = (1,0);
type = Stem;
},
{
origin = (0,10);
target = (0,0);
type = Stem;
},
{
place = (688,62);
type = Stem;
}
);
layerId = "9AF1F7D9-E035-453E-B2A8-46DE370997D0";
shapes = (
{
closed = 1;
nodes = (
(830,0,l),
(830,434,l),
(1000,434,l),
(1000,494,l),
(830,494,l),
(830,1400,l),
(750,1400,l),
(160,498,l),
(160,434,l),
(770,434,l),
(770,0,l)
);
},
{
closed = 1;
nodes = (
(766,1302,l),
(770,494,l),
(236,498,l)
);
}
);
width = 1160;
}
);
unicode = 52;
},
{
glyphname = five;
kernLeft = five;
kernRight = five;
lastChange = "2023-12-25 06:24:34 +0000";
layers = (
{
hints = (
{
horizontal = 1;
origin = (0,25);
target = (0,18);
type = Stem;
},
{
horizontal = 1;
place = (660,299);
type = Stem;
},
{
horizontal = 1;
origin = (0,10);
target = (0,7);
type = Stem;
},
{
origin = (0,22);
target = (0,21);
type = Stem;
},
{
origin = (0,15);
target = (0,2);
type = Stem;
}
);
layerId = "10BC12B3-5274-42E3-B5BC-F74F362F0DF4";
shapes = (
{
closed = 1;
nodes = (
(853,-26,o),
(1071,196,o),
(1071,464,cs),
(1071,732,o),
(871,946,o),
(587,958,cs),
(523,960,l),
(553,1100,l),
(1015,1100,l),
(1015,1400,l),
(309,1400,l),
(153,660,l),
(523,660,ls),
(723,660,o),
(771,570,o),
(771,464,cs),
(771,358,o),
(685,274,o),
(581,274,cs),
(475,274,o),
(389,358,o),
(389,464,c),
(89,464,l),
(89,200,o),
(303,-26,o),
(581,-26,cs)
);
}
);
width = 1160;
},
{
hints = (
{
horizontal = 1;
origin = (0,25);
target = (0,18);
type = Stem;
},
{
horizontal = 1;
origin = (0,11);
target = (0,6);
type = Stem;
},
{
horizontal = 1;
origin = (0,10);
target = (0,7);
type = Stem;
},
{
origin = (0,22);
target = (0,21);
type = Stem;
},
{
origin = (0,15);
target = (0,2);
type = Stem;
}
);
layerId = "9AF1F7D9-E035-453E-B2A8-46DE370997D0";
shapes = (
{
closed = 1;
nodes = (
(822,-26,o),
(1022,172,o),
(1022,416,cs),
(1022,682,o),
(826,858,o),
(540,858,cs),
(328,858,l),
(422,1340,l),
(1004,1340,l),
(1004,1400,l),
(374,1400,l),
(254,798,l),
(580,798,ls),
(790,798,o),
(962,626,o),
(962,416,cs),
(962,206,o),
(790,34,o),
(580,34,cs),
(368,34,o),
(198,206,o),
(198,416,c),
(138,416,l),
(138,172,o),
(334,-26,o),
(580,-26,cs)
);
}
);
width = 1160;
}
);
unicode = 53;
},
{
glyphname = six;
kernLeft = six;
kernRight = six;
lastChange = "2023-12-23 06:41:37 +0000";
layers = (
{
hints = (
{
horizontal = 1;
origin = (0,14);
target = (1,11);
type = Stem;
},
{
horizontal = 1;
origin = (0,7);
target = down;
type = TopGhost;
},
{
origin = (0,11);
target = (1,2);
type = Stem;
},
{
origin = (1,8);
target = (0,2);
type = Stem;
}
);
layerId = "10BC12B3-5274-42E3-B5BC-F74F362F0DF4";
shapes = (
{
closed = 1;
nodes = (
(856,-26,o),
(1080,200,o),
(1080,474,cs),
(1080,730,o),
(890,942,o),
(636,972,c),
(884,1400,l),
(536,1400,l),
(146,724,ls),
(100,646,o),
(80,560,o),
(80,474,cs),
(80,198,o),
(306,-26,o),
(578,-26,cs)
);
},
{
closed = 1;
nodes = (
(476,274,o),
(380,358,o),
(380,472,cs),
(380,576,o),
(460,674,o),
(580,674,cs),
(694,674,o),
(780,582,o),
(780,472,cs),
(780,372,o),
(694,274,o),
(578,274,cs)
);
}
);
width = 1160;
},
{
hints = (
{
horizontal = 1;
origin = (0,14);
target = (1,11);
type = Stem;
},
{
horizontal = 1;
place = (864,61);
type = Stem;
},
{
horizontal = 1;
origin = (0,7);
target = down;
type = TopGhost;
},
{
origin = (0,11);
target = (1,2);
type = Stem;
},
{
origin = (1,8);
target = (0,2);
type = Stem;
}
);
layerId = "9AF1F7D9-E035-453E-B2A8-46DE370997D0";
shapes = (
{
closed = 1;
nodes = (
(841,-26,o),
(1055,188,o),
(1055,450,cs),
(1055,820,o),
(649,1044,o),
(337,858,c),
(649,1400,l),
(579,1400,l),
(179,704,l),
(131,610,o),
(105,560,o),
(105,450,cs),
(105,188,o),
(319,-26,o),
(579,-26,cs)
);
},
{
closed = 1;
nodes = (
(357,34,o),
(165,216,o),
(165,452,cs),
(165,672,o),
(345,864,o),
(581,864,cs),
(809,864,o),
(995,680,o),
(995,452,cs),
(995,232,o),
(821,34,o),
(579,34,cs)
);
}
);
width = 1160;
}
);
unicode = 54;
},
{
glyphname = seven;
kernLeft = seven;
kernRight = seven;
lastChange = "2023-12-23 06:41:49 +0000";
layers = (
{
hints = (
{
horizontal = 1;
origin = (0,6);
target = up;
type = BottomGhost;
},
{
horizontal = 1;
origin = (0,3);
target = (0,4);
type = Stem;
}
);
layerId = "10BC12B3-5274-42E3-B5BC-F74F362F0DF4";
shapes = (
{
closed = 1;
nodes = (
(462,0,l),
(1098,1100,l),
(1098,1400,l),
(62,1400,l),
(62,1100,l),
(750,1100,l),
(116,0,l)
);
}
);
width = 1160;
},
{
hints = (
{
horizontal = 1;
origin = (0,6);
target = up;
type = BottomGhost;
},
{
horizontal = 1;
origin = (0,3);
target = (0,4);
type = Stem;
}
);
layerId = "9AF1F7D9-E035-453E-B2A8-46DE370997D0";
shapes = (
{
closed = 1;
nodes = (
(289,0,l),
(1063,1340,l),
(1063,1400,l),
(97,1400,l),
(97,1340,l),
(993,1340,l),
(221,0,l)
);
}
);
width = 1160;
}
);
unicode = 55;
},
{
glyphname = eight;
kernLeft = eight;
kernRight = eight;
lastChange = "2023-12-23 06:41:58 +0000";
layers = (
{
hints = (
{
horizontal = 1;
origin = (0,23);
target = (1,11);
type = Stem;
},
{
horizontal = 1;
origin = (1,5);
target = (2,11);
type = Stem;
},
{
horizontal = 1;
origin = (0,11);
target = (2,5);
type = Stem;
},
{
origin = (0,20);
target = (1,2);
type = Stem;
},
{
origin = (1,8);
target = (0,2);
type = Stem;
},
{
origin = (0,14);
target = (2,2);
type = Stem;
},
{
origin = (2,8);
target = (0,8);
type = Stem;
}
);
layerId = "10BC12B3-5274-42E3-B5BC-F74F362F0DF4";
shapes = (
{
closed = 1;
nodes = (
(843,-26,o),
(1055,176,o),
(1055,426,cs),
(1055,542,o),
(1009,652,o),
(925,736,c),
(987,810,o),
(1025,902,o),
(1025,1002,cs),
(1025,1236,o),
(825,1426,o),
(579,1426,cs),
(333,1426,o),
(133,1236,o),
(133,1002,cs),
(133,902,o),
(171,810,o),
(233,736,c),
(151,652,o),
(105,542,o),
(105,426,cs),
(105,174,o),
(315,-26,o),
(579,-26,cs)
);
},
{
closed = 1;
nodes = (
(491,274,o),
(419,342,o),
(419,426,cs),
(419,510,o),
(491,578,o),
(579,578,cs),
(667,578,o),
(739,510,o),
(739,426,cs),
(739,342,o),
(667,274,o),
(579,274,cs)
);
},
{
closed = 1;
nodes = (
(507,878,o),
(449,934,o),
(449,1002,cs),
(449,1070,o),
(507,1126,o),
(579,1126,cs),
(651,1126,o),
(709,1070,o),
(709,1002,cs),
(709,934,o),
(651,878,o),
(579,878,cs)
);
}
);
width = 1160;
},
{
hints = (
{
horizontal = 1;
origin = (0,23);
target = (1,11);
type = Stem;
},
{
horizontal = 1;
origin = (1,5);
target = (2,11);
type = Stem;
},
{
horizontal = 1;
origin = (0,11);
target = (2,5);
type = Stem;
},
{
origin = (0,20);
target = (1,2);
type = Stem;
},
{
origin = (1,8);
target = (0,2);
type = Stem;
},
{
origin = (0,14);
target = (2,2);
type = Stem;
},
{
origin = (2,8);
target = (0,8);
type = Stem;
}
);
layerId = "9AF1F7D9-E035-453E-B2A8-46DE370997D0";
shapes = (
{
closed = 1;
nodes = (
(818,-26,o),
(1012,152,o),
(1012,370,cs),
(1012,536,o),
(900,678,o),
(742,738,c),
(876,794,o),
(974,920,o),
(974,1066,cs),
(974,1264,o),
(796,1426,o),
(580,1426,cs),
(364,1426,o),
(186,1264,o),
(186,1066,cs),
(186,920,o),
(284,794,o),
(418,738,c),
(262,678,o),
(148,536,o),
(148,370,cs),
(148,152,o),
(342,-26,o),
(580,-26,cs)
);
},
{
closed = 1;
nodes = (
(380,34,o),
(214,184,o),
(214,370,cs),
(214,556,o),
(380,706,o),
(580,706,cs),
(784,706,o),
(946,556,o),
(946,370,cs),
(946,184,o),
(784,34,o),
(580,34,cs)
);
},
{
closed = 1;
nodes = (
(398,766,o),
(252,900,o),
(252,1066,cs),
(252,1232,o),
(398,1366,o),
(580,1366,cs),
(762,1366,o),
(908,1232,o),
(908,1066,cs),
(908,900,o),
(762,766,o),
(580,766,cs)
);
}
);
width = 1160;
}
);
unicode = 56;
},
{
glyphname = nine;
kernLeft = nine;
kernRight = nine;
lastChange = "2023-12-23 06:42:03 +0000";
layers = (
{
hints = (
{
horizontal = 1;
origin = (0,14);
target = up;
type = BottomGhost;
},
{
horizontal = 1;
origin = (0,7);
target = (1,5);
type = Stem;
},
{
origin = (0,10);
target = (1,2);
type = Stem;
},
{
origin = (1,8);
target = (0,4);
type = Stem;
}
);
layerId = "10BC12B3-5274-42E3-B5BC-F74F362F0DF4";
shapes = (
{
closed = 1;
nodes = (
(624,0,l),
(1014,676,ls),
(1060,754,o),
(1080,840,o),
(1080,926,cs),
(1080,1202,o),
(854,1426,o),
(582,1426,cs),
(304,1426,o),
(80,1200,o),
(80,926,cs),
(80,670,o),
(270,458,o),
(524,428,c),
(276,0,l)
);
},
{
closed = 1;
nodes = (
(466,726,o),
(380,818,o),
(380,928,cs),
(380,1028,o),
(466,1126,o),
(582,1126,cs),
(684,1126,o),
(780,1042,o),
(780,928,cs),
(780,824,o),
(700,726,o),
(580,726,cs)
);
}
);
width = 1160;
},
{
hints = (
{
horizontal = 1;
origin = (0,14);
target = up;
type = BottomGhost;
},
{
horizontal = 1;
place = (525,57);
type = Stem;
},
{
horizontal = 1;
origin = (0,7);
target = (1,5);
type = Stem;
},
{
origin = (0,10);
target = (1,2);
type = Stem;
},
{
origin = (1,8);
target = (0,4);
type = Stem;
}
);
layerId = "9AF1F7D9-E035-453E-B2A8-46DE370997D0";
shapes = (
{
closed = 1;
nodes = (
(538,0,l),
(958,734,l),
(1004,824,o),
(1030,870,o),
(1030,974,cs),
(1030,1222,o),
(826,1426,o),
(580,1426,cs),
(332,1426,o),
(130,1222,o),
(130,974,cs),
(130,624,o),
(514,412,o),
(810,588,c),
(470,0,l)
);
},
{
closed = 1;
nodes = (
(362,582,o),
(186,756,o),
(186,972,cs),
(186,1182,o),
(350,1368,o),
(580,1368,cs),
(790,1368,o),
(972,1196,o),
(972,972,cs),
(972,764,o),
(802,582,o),
(578,582,cs)
);
}
);
width = 1160;
}
);
unicode = 57;
},
{
glyphname = fraction;
kernLeft = frac_digits;
kernRight = fraction;
lastChange = "2023-12-17 22:17:53 +0000";
layers = (
{
hints = (
{
horizontal = 1;
origin = (0,3);
target = up;
type = BottomGhost;
},
{
horizontal = 1;
origin = (0,2);
target = down;
type = TopGhost;
}
);
layerId = "10BC12B3-5274-42E3-B5BC-F74F362F0DF4";
shapes = (
{
closed = 1;
nodes = (
(-58,0,l),
(750,1400,l),
(508,1400,l),
(-300,0,l)
);
}
);
width = 450;
},
{
hints = (
{
horizontal = 1;
origin = (0,3);
target = up;
type = BottomGhost;
},
{
horizontal = 1;
origin = (0,2);
target = down;
type = TopGhost;
}
);
layerId = "9AF1F7D9-E035-453E-B2A8-46DE370997D0";
shapes = (
{
closed = 1;
nodes = (
(-144,0,l),
(664,1400,l),
(594,1400,l),
(-214,0,l)
);
}
);
width = 450;
}
);
unicode = (8260,8725);
},
{
glyphname = zeroinferior;
kernLeft = zero.dnom;
kernRight = zero.dnom;
lastChange = "2023-12-17 22:17:53 +0000";
layers = (
{
hints = (
{
horizontal = 1;
origin = (0,11);
target = (1,11);
type = Stem;
},
{
horizontal = 1;
origin = (1,5);
target = (0,5);
type = Stem;
},
{
origin = (0,8);
target = (1,2);
type = Stem;
},
{
origin = (1,8);
target = (0,2);
type = Stem;
}
);
layerId = "10BC12B3-5274-42E3-B5BC-F74F362F0DF4";
shapes = (
{
closed = 1;
nodes = (
(463,-31,o),
(576,125,o),
(576,317,cs),
(576,506,o),
(463,662,o),
(324,662,cs),
(185,662,o),
(72,506,o),
(72,317,cs),
(72,125,o),
(185,-31,o),
(324,-31,cs)
);
},
{
closed = 1;
nodes = (
(269,137,o),
(240,238,o),
(240,317,cs),
(240,386,o),
(264,494,o),
(324,494,cs),
(377,494,o),
(408,391,o),
(408,317,cs),
(408,252,o),
(379,137,o),
(324,137,cs)
);
}
);
width = 648;
},
{
hints = (
{
horizontal = 1;
origin = (0,11);
target = (1,11);
type = Stem;
},
{
horizontal = 1;
origin = (1,5);
target = (0,5);
type = Stem;
},
{
origin = (0,8);
target = (1,2);
type = Stem;
},
{
origin = (1,8);
target = (0,2);
type = Stem;
}
);
layerId = "9AF1F7D9-E035-453E-B2A8-46DE370997D0";
shapes = (
{
closed = 1;
nodes = (
(463,-31,o),
(576,109,o),
(576,301,cs),
(576,493,o),
(463,636,o),
(324,636,cs),
(185,636,o),
(72,493,o),
(72,301,cs),
(72,109,o),
(185,-31,o),
(324,-31,cs)
);
},
{
closed = 1;
nodes = (
(218,41,o),
(144,167,o),
(144,301,cs),
(144,431,o),
(214,564,o),
(324,564,cs),
(430,564,o),
(504,438,o),
(504,301,cs),
(504,174,o),
(434,41,o),
(324,41,cs)
);
}
);
width = 648;
}
);
unicode = 8320;
},
{
glyphname = oneinferior;
kernLeft = one.dnom;
kernRight = one.dnom;
lastChange = "2023-12-17 22:17:53 +0000";
layers = (
{
hints = (
{
horizontal = 1;
origin = (0,5);
target = up;
type = BottomGhost;
},
{
horizontal = 1;
origin = (0,3);
target = (0,2);
type = Stem;
},
{
origin = (0,5);
target = (0,0);
type = Stem;
}
);
layerId = "10BC12B3-5274-42E3-B5BC-F74F362F0DF4";
shapes = (
{
closed = 1;
nodes = (
(322,0,l),
(322,631,l),
(120,631,l),
(96,463,l),
(154,463,l),
(154,0,l)
);
}
);
width = 466;
},
{
hints = (
{
horizontal = 1;
origin = (0,5);
target = up;
type = BottomGhost;
},
{
horizontal = 1;
origin = (0,3);
target = (0,2);
type = Stem;
},
{
origin = (0,5);
target = (0,0);
type = Stem;
}
);
layerId = "9AF1F7D9-E035-453E-B2A8-46DE370997D0";
shapes = (
{
closed = 1;
nodes = (
(257,0,l),
(257,631,l),
(106,631,l),
(96,559,l),
(185,559,l),
(185,0,l)
);
}
);
width = 401;
}
);
unicode = 8321;
},
{
glyphname = twoinferior;
kernLeft = two.dnom;
kernRight = two.dnom;
lastChange = "2023-12-17 22:17:53 +0000";
layers = (
{
hints = (
{
horizontal = 1;
origin = (0,22);
target = (0,2);
type = Stem;
},
{
horizontal = 1;
origin = (0,11);
target = (0,8);
type = Stem;
},
{
horizontal = 1;
origin = (0,15);
target = (0,8);
type = Stem;
},
{
origin = (0,22);
target = (0,0);
type = Stem;
},
{
origin = (0,22);
target = (0,12);
type = Stem;
},
{
origin = (0,18);
target = (0,5);
type = Stem;
}
);
layerId = "10BC12B3-5274-42E3-B5BC-F74F362F0DF4";
shapes = (
{
closed = 1;
nodes = (
(571,0,l),
(571,168,l),
(403,168,l),
(490,245,o),
(583,314,o),
(583,418,cs),
(583,552,o),
(475,662,o),
(341,662,cs),
(206,662,o),
(96,552,o),
(96,418,c),
(264,418,l),
(264,461,o),
(298,494,o),
(341,494,cs),
(382,494,o),
(415,461,o),
(415,418,c),
(343,281,o),
(211,226,o),
(96,146,c),
(96,0,l)
);
}
);
width = 727;
},
{
hints = (
{
horizontal = 1;
origin = (0,22);
target = (0,2);
type = Stem;
},
{
horizontal = 1;
origin = (0,15);
target = (0,8);
type = Stem;
},
{
origin = (0,22);
target = (0,12);
type = Stem;
},
{
origin = (0,18);
target = (0,0);
type = Stem;
}
);
layerId = "9AF1F7D9-E035-453E-B2A8-46DE370997D0";
shapes = (
{
closed = 1;
nodes = (
(526,0,l),
(526,72,l),
(218,72,l),
(341,156,o),
(526,326,o),
(526,446,cs),
(526,564,o),
(430,650,o),
(312,650,cs),
(192,650,o),
(96,564,o),
(96,446,c),
(168,446,l),
(168,526,o),
(233,578,o),
(312,578,cs),
(391,578,o),
(454,526,o),
(454,446,cs),
(454,331,o),
(194,139,o),
(96,74,c),
(96,0,l)
);
}
);
width = 670;
}
);
unicode = 8322;
},
{
glyphname = threeinferior;
kernLeft = three.dnom;
kernRight = three.dnom;
lastChange = "2023-12-17 22:17:53 +0000";
layers = (
{
hints = (
{
horizontal = 1;
origin = (0,38);
target = (0,35);
type = Stem;
},
{
horizontal = 1;
origin = (0,25);
target = (0,24);
type = Stem;
},
{
horizontal = 1;
origin = (0,14);
target = (0,11);
type = Stem;
},
{
horizontal = 1;
origin = (0,18);
target = (0,11);
type = Stem;
},
{
horizontal = 1;
origin = (0,38);
target = (0,31);
type = Stem;
},
{
origin = (0,35);
target = (0,34);
type = Stem;
},
{
origin = (0,28);
target = (0,2);
type = Stem;
},
{
origin = (0,14);
target = (0,15);
type = Stem;
},
{
origin = (0,21);
target = (0,8);
type = Stem;
},
{
origin = (0,25);
target = (0,8);
type = Stem;
}
);
layerId = "10BC12B3-5274-42E3-B5BC-F74F362F0DF4";
shapes = (
{
closed = 1;
nodes = (
(415,-31,o),
(516,70,o),
(516,192,cs),
(516,242,o),
(499,295,o),
(463,334,c),
(487,370,o),
(499,410,o),
(499,454,cs),
(499,569,o),
(406,662,o),
(290,662,cs),
(175,662,o),
(82,569,o),
(82,454,c),
(250,454,l),
(250,475,o),
(269,494,o),
(290,494,cs),
(312,494,o),
(331,475,o),
(331,454,cs),
(331,425,o),
(314,382,o),
(238,382,c),
(238,276,l),
(312,276,o),
(348,230,o),
(348,192,cs),
(348,161,o),
(324,137,o),
(295,137,cs),
(264,137,o),
(240,161,o),
(240,192,c),
(72,192,l),
(72,70,o),
(173,-31,o),
(295,-31,cs)
);
}
);
width = 588;
},
{
hints = (
{
horizontal = 1;
origin = (0,38);
target = (0,31);
type = Stem;
},
{
horizontal = 1;
origin = (0,25);
target = (0,24);
type = Stem;
},
{
horizontal = 1;
origin = (0,18);
target = (0,11);
type = Stem;
},
{
origin = (0,35);
target = (0,34);
type = Stem;
},
{
origin = (0,28);
target = (0,2);
type = Stem;
},
{
origin = (0,14);
target = (0,15);
type = Stem;
},
{
origin = (0,5);
target = (0,8);
type = Stem;
}
);
layerId = "9AF1F7D9-E035-453E-B2A8-46DE370997D0";
shapes = (
{
closed = 1;
nodes = (
(379,-31,o),
(468,46,o),
(468,156,cs),
(468,238,o),
(437,276,o),
(377,322,c),
(415,341,o),
(449,403,o),
(449,466,cs),
(449,566,o),
(367,636,o),
(266,636,cs),
(166,636,o),
(84,566,o),
(84,466,c),
(156,466,l),
(156,526,o),
(206,564,o),
(266,564,cs),
(326,564,o),
(377,526,o),
(377,466,cs),
(377,394,o),
(324,355,o),
(233,355,c),
(233,283,l),
(336,283,o),
(396,235,o),
(396,156,cs),
(396,86,o),
(341,41,o),
(271,41,cs),
(199,41,o),
(144,86,o),
(144,156,c),
(72,156,l),
(72,46,o),
(161,-31,o),
(271,-31,cs)
);
}
);
width = 540;
}
);
unicode = 8323;
},
{
glyphname = fourinferior;
kernLeft = four.dnom;
kernRight = four.dnom;
lastChange = "2023-12-17 22:17:53 +0000";
layers = (
{
hints = (
{
horizontal = 1;
origin = (0,10);
target = (1,2);
type = Stem;
},
{
horizontal = 1;
origin = (0,8);
target = (1,2);
type = Stem;
},
{
origin = (1,1);
target = (0,0);
type = Stem;
}
);
layerId = "10BC12B3-5274-42E3-B5BC-F74F362F0DF4";
shapes = (
{
closed = 1;
nodes = (
(499,0,l),
(499,86,l),
(552,86,l),
(552,254,l),
(499,254,l),
(499,631,l),
(314,631,l),
(96,288,l),
(96,86,l),
(331,86,l),
(331,0,l)
);
},
{
closed = 1;
nodes = (
(348,396,l),
(348,254,l),
(259,254,l)
);
}
);
width = 696;
},
{
hints = (
{
horizontal = 1;
origin = (0,10);
target = up;
type = BottomGhost;
},
{
horizontal = 1;
origin = (0,8);
target = (1,2);
type = Stem;
},
{
origin = (0,10);
target = (0,0);
type = Stem;
}
);
layerId = "9AF1F7D9-E035-453E-B2A8-46DE370997D0";
shapes = (
{
closed = 1;
nodes = (
(451,0,l),
(451,139,l),
(530,139,l),
(530,211,l),
(451,211,l),
(451,631,l),
(353,631,l),
(96,226,l),
(96,139,l),
(379,139,l),
(379,0,l)
);
},
{
closed = 1;
nodes = (
(379,535,l),
(379,211,l),
(173,211,l)
);
}
);
width = 674;
}
);
unicode = 8324;
},
{
glyphname = fiveinferior;
kernLeft = five.dnom;
kernRight = five.dnom;
lastChange = "2023-12-17 22:17:53 +0000";
layers = (
{
hints = (
{
horizontal = 1;
origin = (0,25);
target = (0,22);
type = Stem;
},
{
horizontal = 1;
origin = (0,11);
target = (0,6);
type = Stem;
},
{
horizontal = 1;
origin = (0,7);
target = (0,10);
type = Stem;
},
{
horizontal = 1;
origin = (0,25);
target = (0,18);
type = Stem;
},
{
origin = (0,22);
target = (0,21);
type = Stem;
},
{
origin = (0,15);
target = (0,2);
type = Stem;
}
);
layerId = "10BC12B3-5274-42E3-B5BC-F74F362F0DF4";
shapes = (
{
closed = 1;
nodes = (
(454,-31,o),
(562,74,o),
(562,206,cs),
(562,341,o),
(482,444,o),
(326,444,cs),
(302,444,l),
(302,485,l),
(490,485,l),
(490,631,l),
(149,631,l),
(113,276,l),
(322,276,ls),
(362,276,o),
(394,245,o),
(394,206,cs),
(394,168,o),
(362,137,o),
(322,137,cs),
(283,137,o),
(252,168,o),
(252,206,c),
(84,206,l),
(84,74,o),
(192,-31,o),
(322,-31,cs)
);
}
);
width = 706;
},
{
hints = (
{
horizontal = 1;
origin = (0,25);
target = (0,18);
type = Stem;
},
{
horizontal = 1;
origin = (0,12);
target = (0,5);
type = Stem;
},
{
horizontal = 1;
origin = (0,7);
target = (0,10);
type = Stem;
},
{
origin = (0,22);
target = (0,21);
type = Stem;
},
{
origin = (0,15);
target = (0,2);
type = Stem;
}
);
layerId = "9AF1F7D9-E035-453E-B2A8-46DE370997D0";
shapes = (
{
closed = 1;
nodes = (
(427,-31,o),
(526,55,o),
(526,178,cs),
(526,298,o),
(427,396,o),
(305,396,c),
(209,389,l),
(221,545,l),
(504,545,l),
(504,617,l),
(156,617,l),
(127,290,l),
(305,324,l),
(386,324,o),
(454,259,o),
(454,178,cs),
(454,96,o),
(386,41,o),
(305,41,cs),
(223,41,o),
(156,96,o),
(156,178,c),
(84,178,l),
(84,55,o),
(182,-31,o),
(305,-31,cs)
);
}
);
width = 670;
}
);
unicode = 8325;
},
{
glyphname = sixinferior;
kernLeft = six.dnom;
kernRight = six.dnom;
lastChange = "2023-12-17 22:17:53 +0000";
layers = (
{
hints = (
{
horizontal = 1;
origin = (0,13);
target = (1,11);
type = Stem;
},
{
horizontal = 1;
origin = (1,5);
target = (0,7);
type = Stem;
},
{
origin = (0,10);
target = (1,2);
type = Stem;
},
{
origin = (0,10);
target = (0,2);
type = Stem;
}
);
layerId = "10BC12B3-5274-42E3-B5BC-F74F362F0DF4";
shapes = (
{
closed = 1;
nodes = (
(456,-31,o),
(562,70,o),
(562,199,cs),
(562,305,o),
(502,389,o),
(384,427,c),
(502,629,l),
(307,629,l),
(113,293,o),
(96,274,o),
(96,202,cs),
(96,70,o),
(199,-31,o),
(329,-31,cs)
);
},
{
closed = 1;
nodes = (
(305,137,o),
(274,146,o),
(266,185,cs),
(259,218,o),
(278,264,o),
(329,264,cs),
(360,264,o),
(384,245,o),
(391,216,cs),
(401,175,o),
(370,137,o),
(329,137,cs)
);
}
);
width = 682;
},
{
hints = (
{
horizontal = 1;
origin = (0,13);
target = (1,11);
type = Stem;
},
{
horizontal = 1;
place = (350,72);
type = Stem;
},
{
origin = (0,10);
target = (1,2);
type = Stem;
},
{
origin = (1,8);
target = (0,2);
type = Stem;
}
);
layerId = "9AF1F7D9-E035-453E-B2A8-46DE370997D0";
shapes = (
{
closed = 1;
nodes = (
(451,-31,o),
(562,53,o),
(562,190,cs),
(562,331,o),
(425,454,o),
(274,415,c),
(391,619,l),
(307,619,l),
(134,326,o),
(96,269,o),
(96,190,cs),
(96,67,o),
(192,-31,o),
(329,-31,cs)
);
},
{
closed = 1;
nodes = (
(240,41,o),
(168,101,o),
(168,187,cs),
(168,278,o),
(240,350,o),
(329,350,cs),
(408,350,o),
(490,288,o),
(490,190,cs),
(490,101,o),
(418,41,o),
(329,41,cs)
);
}
);
width = 682;
}
);
unicode = 8326;
},
{
glyphname = seveninferior;
kernLeft = seven.dnom;
kernRight = seven.dnom;
lastChange = "2023-12-17 22:17:53 +0000";
layers = (
{
hints = (
{
horizontal = 1;
origin = (0,6);
target = up;
type = BottomGhost;
},
{
horizontal = 1;
origin = (0,4);
target = (0,3);
type = Stem;
},
{
origin = (0,4);
target = (0,1);
type = Stem;
}
);
layerId = "10BC12B3-5274-42E3-B5BC-F74F362F0DF4";
shapes = (
{
closed = 1;
nodes = (
(345,0,l),
(614,468,l),
(614,631,l),
(120,631,l),
(120,463,l),
(420,463,l),
(153,0,l)
);
}
);
width = 686;
},
{
hints = (
{
horizontal = 1;
origin = (0,6);
target = up;
type = BottomGhost;
},
{
horizontal = 1;
origin = (0,4);
target = (0,3);
type = Stem;
}
);
layerId = "9AF1F7D9-E035-453E-B2A8-46DE370997D0";
shapes = (
{
closed = 1;
nodes = (
(218,0,l),
(540,559,l),
(540,631,l),
(120,631,l),
(120,559,l),
(456,559,l),
(134,0,l)
);
}
);
width = 612;
}
);
unicode = 8327;
},
{
glyphname = eightinferior;
kernLeft = eight.dnom;
kernRight = eight.dnom;
lastChange = "2023-12-17 22:17:53 +0000";
layers = (
{
hints = (
{
horizontal = 1;
origin = (0,23);
target = (1,11);
type = Stem;
},
{
horizontal = 1;
origin = (2,5);
target = (0,11);
type = Stem;
},
{
origin = (0,20);
target = (1,2);
type = Stem;
},
{
origin = (1,8);
target = (0,2);
type = Stem;
},
{
origin = (0,14);
target = (2,2);
type = Stem;
},
{
origin = (2,8);
target = (0,8);
type = Stem;
}
);
layerId = "10BC12B3-5274-42E3-B5BC-F74F362F0DF4";
shapes = (
{
closed = 1;
nodes = (
(442,-31,o),
(540,65,o),
(540,187,cs),
(540,242,o),
(521,293,o),
(490,331,c),
(514,365,o),
(528,408,o),
(528,451,cs),
(528,569,o),
(432,662,o),
(317,662,cs),
(202,662,o),
(108,569,o),
(108,451,cs),
(108,408,o),
(122,365,o),
(146,331,c),
(115,293,o),
(96,242,o),
(96,187,cs),
(96,65,o),
(194,-31,o),
(317,-31,cs)
);
},
{
closed = 1;
nodes = (
(288,134,o),
(264,158,o),
(264,187,cs),
(264,218,o),
(288,242,o),
(317,242,cs),
(348,242,o),
(372,218,o),
(372,187,cs),
(372,158,o),
(348,134,o),
(317,134,cs)
);
},
{
closed = 1;
nodes = (
(295,410,o),
(276,430,o),
(276,451,cs),
(276,475,o),
(295,494,o),
(317,494,cs),
(341,494,o),
(360,475,o),
(360,451,cs),
(360,430,o),
(341,410,o),
(317,410,cs)
);
}
);
width = 636;
},
{
hints = (
{
horizontal = 1;
origin = (0,23);
target = (1,11);
type = Stem;
},
{
horizontal = 1;
origin = (1,5);
target = (2,11);
type = Stem;
},
{
horizontal = 1;
origin = (2,5);
target = (0,11);
type = Stem;
},
{
origin = (0,20);
target = (1,2);
type = Stem;
},
{
origin = (1,8);
target = (0,2);
type = Stem;
},
{
origin = (0,14);
target = (0,17);
type = Stem;
},
{
origin = (0,5);
target = (0,8);
type = Stem;
}
);
layerId = "9AF1F7D9-E035-453E-B2A8-46DE370997D0";
shapes = (
{
closed = 1;
nodes = (
(406,-31,o),
(497,46,o),
(497,156,cs),
(497,226,o),
(461,286,o),
(408,322,c),
(451,355,o),
(480,408,o),
(480,466,cs),
(480,569,o),
(398,638,o),
(295,638,cs),
(194,638,o),
(113,569,o),
(113,466,cs),
(113,408,o),
(142,355,o),
(185,322,c),
(132,286,o),
(96,226,o),
(96,156,cs),
(96,46,o),
(187,-31,o),
(295,-31,cs)
);
},
{
closed = 1;
nodes = (
(226,41,o),
(168,86,o),
(168,156,cs),
(168,226,o),
(226,283,o),
(295,283,cs),
(367,283,o),
(425,226,o),
(425,156,cs),
(425,86,o),
(367,41,o),
(295,41,cs)
);
},
{
closed = 1;
nodes = (
(235,355,o),
(185,406,o),
(185,466,cs),
(185,528,o),
(235,566,o),
(295,566,cs),
(358,566,o),
(408,528,o),
(408,466,cs),
(408,406,o),
(358,355,o),
(295,355,cs)
);
}
);
width = 593;
}
);
unicode = 8328;
},
{
glyphname = nineinferior;
kernLeft = nine.dnom;
kernRight = nine.dnom;
lastChange = "2023-12-17 22:17:53 +0000";
layers = (
{
hints = (
{
horizontal = 1;
origin = (0,11);
target = up;
type = BottomGhost;
},
{
horizontal = 1;
origin = (1,5);
target = (0,4);
type = Stem;
},
{
horizontal = 1;
origin = (0,11);
target = (1,11);
type = Stem;
},
{
origin = (0,7);
target = (1,2);
type = Stem;
},
{
place = (370,167);
type = Stem;
}
);
layerId = "10BC12B3-5274-42E3-B5BC-F74F362F0DF4";
shapes = (
{
closed = 1;
nodes = (
(324,0,l),
(506,314,ls),
(595,472,o),
(482,662,o),
(305,662,cs),
(175,662,o),
(72,557,o),
(72,430,cs),
(72,329,o),
(137,230,o),
(247,204,c),
(130,0,l)
);
},
{
closed = 1;
nodes = (
(281,365,o),
(240,379,o),
(240,427,cs),
(240,458,o),
(262,494,o),
(305,494,cs),
(336,494,o),
(370,463,o),
(370,432,cs),
(370,396,o),
(341,365,o),
(305,365,cs)
);
}
);
width = 658;
},
{
hints = (
{
horizontal = 1;
origin = (0,11);
target = up;
type = BottomGhost;
},
{
horizontal = 1;
place = (197,72);
type = Stem;
},
{
horizontal = 1;
origin = (1,5);
target = (0,4);
type = Stem;
},
{
place = (72,74);
type = Stem;
},
{
place = (466,73);
type = Stem;
}
);
layerId = "9AF1F7D9-E035-453E-B2A8-46DE370997D0";
shapes = (
{
closed = 1;
nodes = (
(325,0,l),
(507,314,ls),
(599,468,o),
(483,650,o),
(306,650,cs),
(227,650,o),
(147,622,o),
(104,545,cs),
(1,370,o),
(162,154,o),
(361,204,c),
(243,0,l)
);
},
{
closed = 1;
nodes = (
(241,269,o),
(171,312,o),
(150,389,cs),
(126,492,o),
(203,578,o),
(306,578,cs),
(371,578,o),
(440,547,o),
(462,470,c),
(486,365,o),
(409,269,o),
(306,269,cs)
);
}
);
width = 660;
}
);
unicode = 8329;
},
{
glyphname = zerosuperior;
kernLeft = zero.numr;
kernRight = zero.numr;
lastChange = "2023-12-17 22:17:53 +0000";
layers = (
{
hints = (
{
horizontal = 1;
origin = (0,11);
target = (1,11);
type = Stem;
},
{
horizontal = 1;
origin = (1,5);
target = (0,5);
type = Stem;
},
{
origin = (0,8);
target = (1,2);
type = Stem;
},
{
origin = (1,8);
target = (0,2);
type = Stem;
}
);
layerId = "10BC12B3-5274-42E3-B5BC-F74F362F0DF4";
shapes = (
{
closed = 1;
nodes = (
(463,798,o),
(576,942,o),
(576,1134,cs),
(576,1324,o),
(463,1468,o),
(324,1468,cs),
(185,1468,o),
(72,1324,o),
(72,1134,cs),
(72,942,o),
(185,798,o),
(324,798,cs)
);
},
{
closed = 1;
nodes = (
(269,954,o),
(240,1055,o),
(240,1134,cs),
(240,1204,o),
(264,1312,o),
(324,1312,cs),
(377,1312,o),
(408,1209,o),
(408,1134,cs),
(408,1070,o),
(379,954,o),
(324,954,cs)
);
}
);
width = 648;
},
{
hints = (
{
horizontal = 1;
origin = (0,11);
target = (1,11);
type = Stem;
},
{
horizontal = 1;
origin = (1,5);
target = (0,5);
type = Stem;
},
{
origin = (0,8);
target = (1,2);
type = Stem;
},
{
origin = (1,8);
target = (0,2);
type = Stem;
}
);
layerId = "9AF1F7D9-E035-453E-B2A8-46DE370997D0";
shapes = (
{
closed = 1;
nodes = (
(463,798,o),
(576,940,o),
(576,1132,cs),
(576,1324,o),
(463,1468,o),
(324,1468,cs),
(185,1468,o),
(72,1324,o),
(72,1132,cs),
(72,940,o),
(185,798,o),
(324,798,cs)
);
},
{
closed = 1;
nodes = (
(218,870,o),
(144,998,o),
(144,1132,cs),
(144,1262,o),
(214,1396,o),
(324,1396,cs),
(430,1396,o),
(504,1269,o),
(504,1132,cs),
(504,1005,o),
(434,870,o),
(324,870,cs)
);
}
);
width = 648;
}
);
unicode = 8304;
},
{
glyphname = onesuperior;
kernLeft = one.numr;
kernRight = one.numr;
lastChange = "2023-12-17 22:17:53 +0000";
layers = (
{
hints = (
{
horizontal = 1;
origin = (0,3);
target = (0,2);
type = Stem;
},
{
origin = (0,5);
target = (0,0);
type = Stem;
}
);
layerId = "10BC12B3-5274-42E3-B5BC-F74F362F0DF4";
shapes = (
{
closed = 1;
nodes = (
(322,818,l),
(322,1449,l),
(120,1449,l),
(96,1281,l),
(154,1281,l),
(154,818,l)
);
}
);
width = 466;
},
{
hints = (
{
horizontal = 1;
origin = (0,3);
target = (0,2);
type = Stem;
},
{
origin = (0,5);
target = (0,0);
type = Stem;
}
);
layerId = "9AF1F7D9-E035-453E-B2A8-46DE370997D0";
shapes = (
{
closed = 1;
nodes = (
(257,818,l),
(257,1449,l),
(106,1449,l),
(96,1377,l),
(185,1377,l),
(185,818,l)
);
}
);
width = 401;
}
);
unicode = 185;
},
{
glyphname = twosuperior;
kernLeft = two.numr;
kernRight = two.numr;
lastChange = "2023-12-17 22:17:53 +0000";
layers = (
{
hints = (
{
horizontal = 1;
origin = (0,22);
target = (0,2);
type = Stem;
},
{
horizontal = 1;
origin = (0,11);
target = (0,8);
type = Stem;
},
{
horizontal = 1;
origin = (0,15);
target = (0,8);
type = Stem;
},
{
origin = (0,22);
target = (0,0);
type = Stem;
},
{
origin = (0,22);
target = (0,12);
type = Stem;
},
{
origin = (0,18);
target = (0,5);
type = Stem;
}
);
layerId = "10BC12B3-5274-42E3-B5BC-F74F362F0DF4";
shapes = (
{
closed = 1;
nodes = (
(571,818,l),
(571,986,l),
(403,986,l),
(490,1062,o),
(583,1132,o),
(583,1235,cs),
(583,1370,o),
(475,1468,o),
(341,1468,cs),
(206,1468,o),
(96,1370,o),
(96,1235,c),
(264,1235,l),
(264,1278,o),
(298,1312,o),
(341,1312,cs),
(382,1312,o),
(415,1278,o),
(415,1235,c),
(343,1098,o),
(211,1043,o),
(96,964,c),
(96,818,l)
);
}
);
width = 727;
},
{
hints = (
{
horizontal = 1;
origin = (0,22);
target = (0,2);
type = Stem;
},
{
horizontal = 1;
origin = (0,15);
target = (0,8);
type = Stem;
},
{
origin = (0,22);
target = (0,12);
type = Stem;
},
{
origin = (0,18);
target = (0,0);
type = Stem;
}
);
layerId = "9AF1F7D9-E035-453E-B2A8-46DE370997D0";
shapes = (
{
closed = 1;
nodes = (
(526,818,l),
(526,890,l),
(218,890,l),
(341,974,o),
(526,1144,o),
(526,1264,cs),
(526,1382,o),
(430,1468,o),
(312,1468,cs),
(192,1468,o),
(96,1382,o),
(96,1264,c),
(168,1264,l),
(168,1343,o),
(233,1396,o),
(312,1396,cs),
(391,1396,o),
(454,1343,o),
(454,1264,cs),
(454,1149,o),
(194,957,o),
(96,892,c),
(96,818,l)
);
}
);
width = 670;
}
);
unicode = 178;
},
{
glyphname = threesuperior;
kernLeft = three.numr;
kernRight = three.numr;
lastChange = "2023-12-17 22:17:53 +0000";
layers = (
{
hints = (
{
horizontal = 1;
origin = (0,35);
target = (0,38);
type = Stem;
},
{
horizontal = 1;
origin = (0,25);
target = (0,24);
type = Stem;
},
{
horizontal = 1;
origin = (0,14);
target = (0,11);
type = Stem;
},
{
horizontal = 1;
origin = (0,18);
target = (0,11);
type = Stem;
},
{
horizontal = 1;
origin = (0,38);
target = (0,31);
type = Stem;
},
{
origin = (0,35);
target = (0,34);
type = Stem;
},
{
origin = (0,28);
target = (0,2);
type = Stem;
},
{
origin = (0,14);
target = (0,15);
type = Stem;
},
{
origin = (0,21);
target = (0,8);
type = Stem;
},
{
origin = (0,25);
target = (0,8);
type = Stem;
}
);
layerId = "10BC12B3-5274-42E3-B5BC-F74F362F0DF4";
shapes = (
{
closed = 1;
nodes = (
(415,798,o),
(516,887,o),
(516,1010,cs),
(516,1060,o),
(499,1113,o),
(463,1151,c),
(487,1187,o),
(499,1228,o),
(499,1271,cs),
(499,1386,o),
(406,1468,o),
(290,1468,cs),
(175,1468,o),
(82,1386,o),
(82,1271,c),
(250,1271,l),
(250,1293,o),
(269,1312,o),
(290,1312,cs),
(312,1312,o),
(331,1293,o),
(331,1271,cs),
(331,1242,o),
(314,1199,o),
(238,1199,c),
(238,1094,l),
(312,1094,o),
(348,1048,o),
(348,1010,cs),
(348,978,o),
(324,954,o),
(295,954,cs),
(264,954,o),
(240,978,o),
(240,1010,c),
(72,1010,l),
(72,887,o),
(173,798,o),
(295,798,cs)
);
}
);
width = 588;
},
{
hints = (
{
horizontal = 1;
origin = (0,38);
target = (0,31);
type = Stem;
},
{
horizontal = 1;
origin = (0,25);
target = (0,24);
type = Stem;
},
{
horizontal = 1;
origin = (0,18);
target = (0,11);
type = Stem;
},
{
origin = (0,35);
target = (0,34);
type = Stem;
},
{
origin = (0,28);
target = (0,2);
type = Stem;
},
{
origin = (0,14);
target = (0,15);
type = Stem;
},
{
origin = (0,5);
target = (0,8);
type = Stem;
}
);
layerId = "9AF1F7D9-E035-453E-B2A8-46DE370997D0";
shapes = (
{
closed = 1;
nodes = (
(379,798,o),
(468,875,o),
(468,986,cs),
(468,1067,o),
(437,1106,o),
(377,1151,c),
(415,1170,o),
(449,1233,o),
(449,1295,cs),
(449,1396,o),
(367,1466,o),
(266,1466,cs),
(166,1466,o),
(84,1396,o),
(84,1295,c),
(156,1295,l),
(156,1355,o),
(206,1394,o),
(266,1394,cs),
(326,1394,o),
(377,1355,o),
(377,1295,cs),
(377,1223,o),
(324,1185,o),
(233,1185,c),
(233,1113,l),
(336,1113,o),
(396,1065,o),
(396,986,cs),
(396,916,o),
(341,870,o),
(271,870,cs),
(199,870,o),
(144,916,o),
(144,986,c),
(72,986,l),
(72,875,o),
(161,798,o),
(271,798,cs)
);
}
);
width = 540;
}
);
unicode = 179;
},
{
glyphname = foursuperior;
kernLeft = four.numr;
kernRight = four.numr;
lastChange = "2023-12-17 22:17:53 +0000";
layers = (
{
hints = (
{
horizontal = 1;
origin = (0,8);
target = (1,2);
type = Stem;
},
{
origin = (1,1);
target = (0,0);
type = Stem;
}
);
layerId = "10BC12B3-5274-42E3-B5BC-F74F362F0DF4";
shapes = (
{
closed = 1;
nodes = (
(499,818,l),
(499,904,l),
(552,904,l),
(552,1072,l),
(499,1072,l),
(499,1449,l),
(314,1449,l),
(96,1106,l),
(96,904,l),
(331,904,l),
(331,818,l)
);
},
{
closed = 1;
nodes = (
(348,1214,l),
(348,1072,l),
(259,1072,l)
);
}
);
width = 696;
},
{
hints = (
{
horizontal = 1;
origin = (1,2);
target = (0,8);
type = Stem;
},
{
origin = (0,10);
target = (0,0);
type = Stem;
}
);
layerId = "9AF1F7D9-E035-453E-B2A8-46DE370997D0";
shapes = (
{
closed = 1;
nodes = (
(451,818,l),
(451,957,l),
(530,957,l),
(530,1029,l),
(451,1029,l),
(451,1449,l),
(353,1449,l),
(96,1043,l),
(96,957,l),
(379,957,l),
(379,818,l)
);
},
{
closed = 1;
nodes = (
(379,1353,l),
(379,1029,l),
(173,1029,l)
);
}
);
width = 674;
}
);
unicode = 8308;
},
{
glyphname = fivesuperior;
kernLeft = five.numr;
kernRight = five.numr;
lastChange = "2023-12-17 22:17:53 +0000";
layers = (
{
hints = (
{
horizontal = 1;
origin = (0,23);
target = (0,26);
type = Stem;
},
{
horizontal = 1;
origin = (0,10);
target = (0,5);
type = Stem;
},
{
horizontal = 1;
origin = (0,6);
target = (0,9);
type = Stem;
},
{
horizontal = 1;
origin = (0,26);
target = (0,19);
type = Stem;
},
{
origin = (0,23);
target = (0,22);
type = Stem;
},
{
origin = (0,16);
target = (0,2);
type = Stem;
}
);
layerId = "10BC12B3-5274-42E3-B5BC-F74F362F0DF4";
shapes = (
{
closed = 1;
nodes = (
(454,798,o),
(562,892,o),
(562,1024,cs),
(562,1162,o),
(463,1262,o),
(302,1262,c),
(302,1305,l),
(490,1305,l),
(490,1449,l),
(149,1449,l),
(115,1086,l),
(180,1094,o),
(288,1098,o),
(322,1094,cs),
(362,1089,o),
(394,1062,o),
(394,1024,cs),
(394,986,o),
(362,954,o),
(322,954,cs),
(283,954,o),
(252,986,o),
(252,1024,c),
(84,1024,l),
(84,892,o),
(192,798,o),
(322,798,cs)
);
}
);
width = 706;
},
{
hints = (
{
horizontal = 1;
origin = (0,26);
target = (0,19);
type = Stem;
},
{
horizontal = 1;
origin = (0,23);
target = down;
type = TopGhost;
},
{
horizontal = 1;
place = (1154,70);
type = Stem;
},
{
horizontal = 1;
origin = (0,6);
target = (0,9);
type = Stem;
},
{
origin = (0,23);
target = (0,22);
type = Stem;
},
{
origin = (0,16);
target = (0,2);
type = Stem;
}
);
layerId = "9AF1F7D9-E035-453E-B2A8-46DE370997D0";
shapes = (
{
closed = 1;
nodes = (
(427,798,o),
(526,885,o),
(526,1007,cs),
(526,1169,o),
(388,1246,o),
(209,1218,c),
(221,1377,l),
(504,1377,l),
(504,1449,l),
(156,1449,l),
(127,1120,l),
(209,1146,o),
(233,1154,o),
(305,1154,cs),
(386,1154,o),
(454,1089,o),
(454,1007,cs),
(454,926,o),
(386,870,o),
(305,870,cs),
(223,870,o),
(156,926,o),
(156,1007,c),
(84,1007,l),
(84,885,o),
(182,798,o),
(305,798,cs)
);
}
);
width = 670;
}
);
unicode = 8309;
},
{
glyphname = sixsuperior;
kernLeft = six.numr;
kernRight = six.numr;
lastChange = "2023-12-17 22:17:53 +0000";
layers = (
{
hints = (
{
horizontal = 1;
origin = (0,13);
target = (1,11);
type = Stem;
},
{
horizontal = 1;
origin = (1,5);
target = (0,7);
type = Stem;
},
{
origin = (0,10);
target = (0,2);
type = Stem;
}
);
layerId = "10BC12B3-5274-42E3-B5BC-F74F362F0DF4";
shapes = (
{
closed = 1;
nodes = (
(456,798,o),
(562,887,o),
(562,1017,cs),
(562,1122,o),
(502,1206,o),
(384,1245,c),
(502,1446,l),
(307,1446,l),
(113,1110,o),
(96,1091,o),
(96,1019,cs),
(96,887,o),
(199,798,o),
(329,798,cs)
);
},
{
closed = 1;
nodes = (
(305,954,o),
(274,964,o),
(266,1002,cs),
(257,1036,o),
(278,1082,o),
(329,1082,cs),
(360,1082,o),
(384,1062,o),
(391,1034,cs),
(401,993,o),
(370,954,o),
(329,954,cs)
);
}
);
width = 706;
},
{
hints = (
{
horizontal = 1;
origin = (0,13);
target = (1,11);
type = Stem;
},
{
horizontal = 1;
place = (1180,72);
type = Stem;
},
{
origin = (0,10);
target = (1,2);
type = Stem;
},
{
origin = (1,8);
target = (0,2);
type = Stem;
}
);
layerId = "9AF1F7D9-E035-453E-B2A8-46DE370997D0";
shapes = (
{
closed = 1;
nodes = (
(451,798,o),
(562,882,o),
(562,1019,cs),
(562,1161,o),
(425,1283,o),
(274,1245,c),
(390,1446,l),
(306,1446,l),
(133,1154,o),
(96,1098,o),
(96,1019,cs),
(96,897,o),
(192,798,o),
(329,798,cs)
);
},
{
closed = 1;
nodes = (
(240,870,o),
(168,930,o),
(168,1017,cs),
(168,1108,o),
(240,1180,o),
(329,1180,cs),
(408,1180,o),
(490,1118,o),
(490,1019,cs),
(490,930,o),
(418,870,o),
(329,870,cs)
);
}
);
width = 706;
}
);
unicode = 8310;
},
{
glyphname = sevensuperior;
kernLeft = seven.numr;
kernRight = seven.numr;
lastChange = "2023-12-17 22:17:53 +0000";
layers = (
{
hints = (
{
horizontal = 1;
origin = (0,4);
target = (0,3);
type = Stem;
},
{
origin = (0,4);
target = (0,1);
type = Stem;
}
);
layerId = "10BC12B3-5274-42E3-B5BC-F74F362F0DF4";
shapes = (
{
closed = 1;
nodes = (
(348,818,l),
(614,1283,l),
(614,1446,l),
(120,1446,l),
(120,1278,l),
(420,1278,l),
(156,818,l)
);
}
);
width = 686;
},
{
hints = (
{
horizontal = 1;
origin = (0,4);
target = (0,3);
type = Stem;
}
);
layerId = "9AF1F7D9-E035-453E-B2A8-46DE370997D0";
shapes = (
{
closed = 1;
nodes = (
(220,818,l),
(540,1377,l),
(540,1449,l),
(120,1449,l),
(120,1377,l),
(456,1377,l),
(136,818,l)
);
}
);
width = 612;
}
);
unicode = 8311;
},
{
glyphname = eightsuperior;
kernLeft = eight.numr;
kernRight = eight.numr;
lastChange = "2023-12-17 22:17:53 +0000";
layers = (
{
hints = (
{
horizontal = 1;
origin = (0,23);
target = (1,11);
type = Stem;
},
{
horizontal = 1;
origin = (2,5);
target = (0,11);
type = Stem;
},
{
origin = (0,20);
target = (1,2);
type = Stem;
},
{
origin = (1,8);
target = (0,2);
type = Stem;
},
{
origin = (0,14);
target = (2,2);
type = Stem;
},
{
origin = (2,8);
target = (0,8);
type = Stem;
}
);
layerId = "10BC12B3-5274-42E3-B5BC-F74F362F0DF4";
shapes = (
{
closed = 1;
nodes = (
(442,798,o),
(540,882,o),
(540,1005,cs),
(540,1060,o),
(521,1110,o),
(490,1149,c),
(514,1182,o),
(528,1226,o),
(528,1269,cs),
(528,1386,o),
(432,1470,o),
(317,1470,cs),
(202,1470,o),
(108,1386,o),
(108,1269,cs),
(108,1226,o),
(122,1182,o),
(146,1149,c),
(115,1110,o),
(96,1060,o),
(96,1005,cs),
(96,882,o),
(194,798,o),
(317,798,cs)
);
},
{
closed = 1;
nodes = (
(288,952,o),
(264,976,o),
(264,1005,cs),
(264,1036,o),
(288,1060,o),
(317,1060,cs),
(348,1060,o),
(372,1036,o),
(372,1005,cs),
(372,976,o),
(348,952,o),
(317,952,cs)
);
},
{
closed = 1;
nodes = (
(295,1228,o),
(276,1247,o),
(276,1269,cs),
(276,1293,o),
(295,1312,o),
(317,1312,cs),
(341,1312,o),
(360,1293,o),
(360,1269,cs),
(360,1247,o),
(341,1228,o),
(317,1228,cs)
);
}
);
width = 636;
},
{
hints = (
{
horizontal = 1;
origin = (0,23);
target = (1,11);
type = Stem;
},
{
horizontal = 1;
origin = (1,5);
target = (2,11);
type = Stem;
},
{
horizontal = 1;
origin = (2,5);
target = (0,11);
type = Stem;
},
{
origin = (0,20);
target = (1,2);
type = Stem;
},
{
origin = (1,8);
target = (0,2);
type = Stem;
},
{
origin = (0,14);
target = (0,17);
type = Stem;
},
{
origin = (0,5);
target = (0,8);
type = Stem;
}
);
layerId = "9AF1F7D9-E035-453E-B2A8-46DE370997D0";
shapes = (
{
closed = 1;
nodes = (
(406,798,o),
(497,875,o),
(497,986,cs),
(497,1055,o),
(461,1115,o),
(408,1151,c),
(451,1185,o),
(480,1238,o),
(480,1295,cs),
(480,1398,o),
(398,1468,o),
(295,1468,cs),
(194,1468,o),
(113,1398,o),
(113,1295,cs),
(113,1238,o),
(142,1185,o),
(185,1151,c),
(132,1115,o),
(96,1055,o),
(96,986,cs),
(96,875,o),
(187,798,o),
(295,798,cs)
);
},
{
closed = 1;
nodes = (
(226,870,o),
(168,916,o),
(168,986,cs),
(168,1055,o),
(226,1113,o),
(295,1113,cs),
(367,1113,o),
(425,1055,o),
(425,986,cs),
(425,916,o),
(367,870,o),
(295,870,cs)
);
},
{
closed = 1;
nodes = (
(235,1185,o),
(185,1235,o),
(185,1295,cs),
(185,1358,o),
(235,1396,o),
(295,1396,cs),
(358,1396,o),
(408,1358,o),
(408,1295,cs),
(408,1235,o),
(358,1185,o),
(295,1185,cs)
);
}
);
width = 593;
}
);
unicode = 8312;
},
{
glyphname = ninesuperior;
kernLeft = nine.numr;
kernRight = nine.numr;
lastChange = "2023-12-17 22:17:53 +0000";
layers = (
{
hints = (
{
horizontal = 1;
origin = (0,14);
target = (1,11);
type = Stem;
},
{
horizontal = 1;
origin = (1,5);
target = (0,7);
type = Stem;
},
{
origin = (0,10);
target = (1,2);
type = Stem;
},
{
origin = (1,8);
target = (0,4);
type = Stem;
}
);
layerId = "10BC12B3-5274-42E3-B5BC-F74F362F0DF4";
shapes = (
{
closed = 1;
nodes = (
(324,818,l),
(506,1132,ls),
(528,1170,o),
(538,1209,o),
(538,1247,cs),
(538,1370,o),
(439,1468,o),
(305,1468,cs),
(175,1468,o),
(72,1374,o),
(72,1247,cs),
(72,1146,o),
(137,1048,o),
(247,1022,c),
(130,818,l)
);
},
{
closed = 1;
nodes = (
(281,1182,o),
(240,1197,o),
(240,1245,cs),
(240,1276,o),
(262,1312,o),
(305,1312,cs),
(336,1312,o),
(370,1281,o),
(370,1250,cs),
(370,1214,o),
(341,1182,o),
(305,1182,cs)
);
}
);
width = 658;
},
{
hints = (
{
horizontal = 1;
place = (1015,71);
type = Stem;
},
{
horizontal = 1;
origin = (1,5);
target = (0,7);
type = Stem;
},
{
place = (72,74);
type = Stem;
},
{
place = (466,73);
type = Stem;
},
{
place = (466,37);
type = Stem;
}
);
layerId = "9AF1F7D9-E035-453E-B2A8-46DE370997D0";
shapes = (
{
closed = 1;
nodes = (
(325,818,l),
(503,1122,l),
(503,1125,o),
(505,1127,o),
(507,1132,c),
(599,1286,o),
(483,1468,o),
(306,1468,cs),
(227,1468,o),
(147,1439,o),
(104,1362,cs),
(1,1187,o),
(162,971,o),
(361,1022,c),
(243,818,l)
);
},
{
closed = 1;
nodes = (
(241,1086,o),
(171,1130,o),
(150,1206,cs),
(126,1310,o),
(203,1396,o),
(306,1396,cs),
(371,1396,o),
(440,1365,o),
(462,1288,c),
(486,1182,o),
(409,1086,o),
(306,1086,cs)
);
}
);
width = 659;
}
);
unicode = 8313;
},
{
glyphname = period;
kernLeft = period;
kernRight = period;
lastChange = "2023-12-28 01:09:53 +0000";
layers = (
{
hints = (
{
horizontal = 1;
origin = (0,11);
target = (0,5);
type = Stem;
},
{
origin = (0,8);
target = (0,2);
type = Stem;
}
);
layerId = "10BC12B3-5274-42E3-B5BC-F74F362F0DF4";
shapes = (
{
closed = 1;
nodes = (
(312,-26,o),
(380,40,o),
(380,124,cs),
(380,206,o),
(312,274,o),
(230,274,cs),
(146,274,o),
(80,206,o),
(80,124,cs),
(80,40,o),
(146,-26,o),
(230,-26,cs)
);
}
);
width = 500;
},
{
hints = (
{
horizontal = 1;
origin = (0,11);
target = (0,5);
type = Stem;
},
{
origin = (0,8);
target = (0,2);
type = Stem;
}
);
layerId = "9AF1F7D9-E035-453E-B2A8-46DE370997D0";
shapes = (
{
closed = 1;
nodes = (
(150,-26,o),
(170,-6,o),
(170,20,cs),
(170,44,o),
(150,64,o),
(124,64,cs),
(100,64,o),
(80,44,o),
(80,20,cs),
(80,-6,o),
(100,-26,o),
(124,-26,cs)
);
}
);
width = 290;
}
);
unicode = 46;
},
{
glyphname = comma;
kernLeft = period;
kernRight = period;
lastChange = "2023-12-17 22:17:53 +0000";
layers = (
{
hints = (
{
horizontal = 1;
origin = (0,3);
target = (0,2);
type = Stem;
},
{
origin = (0,3);
target = (0,1);
type = Stem;
}
);
layerId = "10BC12B3-5274-42E3-B5BC-F74F362F0DF4";
shapes = (
{
closed = 1;
nodes = (
(280,-112,l),
(442,226,l),
(142,226,l),
(80,-112,l)
);
}
);
width = 562;
},
{
hints = (
{
origin = (0,3);
target = (0,1);
type = Stem;
}
);
layerId = "9AF1F7D9-E035-453E-B2A8-46DE370997D0";
shapes = (
{
closed = 1;
nodes = (
(120,-112,l),
(202,226,l),
(142,226,l),
(80,-112,l)
);
}
);
width = 322;
}
);
unicode = 44;
},
{
glyphname = colon;
kernLeft = colon;
kernRight = colon;
lastChange = "2023-12-17 22:17:53 +0000";
layers = (
{
hints = (
{
horizontal = 1;
origin = (1,11);
target = (1,5);
type = Stem;
},
{
horizontal = 1;
origin = (0,5);
target = (0,11);
type = Stem;
},
{
origin = (1,8);
target = (1,2);
type = Stem;
}
);
layerId = "10BC12B3-5274-42E3-B5BC-F74F362F0DF4";
shapes = (
{
closed = 1;
nodes = (
(312,700,o),
(380,766,o),
(380,850,cs),
(380,932,o),
(312,1000,o),
(230,1000,cs),
(146,1000,o),
(80,932,o),
(80,850,cs),
(80,766,o),
(146,700,o),
(230,700,cs)
);
},
{
closed = 1;
nodes = (
(312,-26,o),
(380,40,o),
(380,124,cs),
(380,206,o),
(312,274,o),
(230,274,cs),
(146,274,o),
(80,206,o),
(80,124,cs),
(80,40,o),
(146,-26,o),
(230,-26,cs)
);
}
);
width = 500;
},
{
hints = (
{
horizontal = 1;
origin = (1,11);
target = (1,5);
type = Stem;
},
{
horizontal = 1;
origin = (0,5);
target = (0,11);
type = Stem;
},
{
origin = (1,8);
target = (1,2);
type = Stem;
}
);
layerId = "9AF1F7D9-E035-453E-B2A8-46DE370997D0";
shapes = (
{
closed = 1;
nodes = (
(150,910,o),
(170,930,o),
(170,956,cs),
(170,980,o),
(150,1000,o),
(124,1000,cs),
(100,1000,o),
(80,980,o),
(80,956,cs),
(80,930,o),
(100,910,o),
(124,910,cs)
);
},
{
closed = 1;
nodes = (
(150,-26,o),
(170,-6,o),
(170,20,cs),
(170,44,o),
(150,64,o),
(124,64,cs),
(100,64,o),
(80,44,o),
(80,20,cs),
(80,-6,o),
(100,-26,o),
(124,-26,cs)
);
}
);
width = 290;
}
);
unicode = 58;
},
{
glyphname = semicolon;
kernLeft = colon;
kernRight = colon;
lastChange = "2023-12-17 22:17:53 +0000";
layers = (
{
hints = (
{
horizontal = 1;
origin = (0,3);
target = (0,2);
type = Stem;
},
{
horizontal = 1;
origin = (1,5);
target = (1,11);
type = Stem;
},
{
origin = (0,2);
target = (0,1);
type = Stem;
}
);
layerId = "10BC12B3-5274-42E3-B5BC-F74F362F0DF4";
shapes = (
{
closed = 1;
nodes = (
(280,-112,l),
(442,226,l),
(142,226,l),
(80,-112,l)
);
},
{
closed = 1;
nodes = (
(374,700,o),
(442,766,o),
(442,850,cs),
(442,932,o),
(374,1000,o),
(292,1000,cs),
(208,1000,o),
(142,932,o),
(142,850,cs),
(142,766,o),
(208,700,o),
(292,700,cs)
);
}
);
width = 562;
},
{
hints = (
{
horizontal = 1;
origin = (1,5);
target = (1,11);
type = Stem;
},
{
origin = (1,8);
target = (1,2);
type = Stem;
}
);
layerId = "9AF1F7D9-E035-453E-B2A8-46DE370997D0";
shapes = (
{
closed = 1;
nodes = (
(120,-112,l),
(202,226,l),
(142,226,l),
(80,-112,l)
);
},
{
closed = 1;
nodes = (
(194,910,o),
(214,930,o),
(214,954,cs),
(214,980,o),
(194,1000,o),
(170,1000,cs),
(144,1000,o),
(124,980,o),
(124,954,cs),
(124,930,o),
(144,910,o),
(170,910,cs)
);
}
);
width = 334;
}
);
unicode = 59;
},
{
glyphname = exclam;
kernLeft = exclam;
kernRight = exclam;
lastChange = "2023-12-28 00:48:26 +0000";
layers = (
{
hints = (
{
horizontal = 1;
origin = (1,11);
target = (1,5);
type = Stem;
},
{
horizontal = 1;
origin = (0,2);
target = down;
type = TopGhost;
},
{
origin = (0,3);
target = (0,0);
type = Stem;
},
{
origin = (1,8);
target = (1,2);
type = Stem;
}
);
layerId = "10BC12B3-5274-42E3-B5BC-F74F362F0DF4";
shapes = (
{
closed = 1;
nodes = (
(354,420,l),
(354,1400,l),
(104,1400,l),
(104,420,l)
);
},
{
closed = 1;
nodes = (
(312,-26,o),
(378,40,o),
(378,126,cs),
(378,208,o),
(312,274,o),
(230,274,cs),
(146,274,o),
(80,208,o),
(80,126,cs),
(80,40,o),
(146,-26,o),
(230,-26,cs)
);
}
);
width = 498;
},
{
hints = (
{
horizontal = 1;
origin = (1,11);
target = (1,5);
type = Stem;
},
{
horizontal = 1;
origin = (0,2);
target = down;
type = TopGhost;
},
{
origin = (0,3);
target = (0,0);
type = Stem;
},
{
origin = (1,8);
target = (1,2);
type = Stem;
}
);
layerId = "9AF1F7D9-E035-453E-B2A8-46DE370997D0";
shapes = (
{
closed = 1;
nodes = (
(156,420,l),
(156,1400,l),
(96,1400,l),
(96,420,l)
);
},
{
closed = 1;
nodes = (
(150,-26,o),
(170,-6,o),
(170,20,cs),
(170,44,o),
(150,64,o),
(126,64,cs),
(100,64,o),
(80,44,o),
(80,20,cs),
(80,-6,o),
(100,-26,o),
(126,-26,cs)
);
}
);
width = 290;
}
);
unicode = 33;
},
{
glyphname = exclamdown;
kernLeft = exclamdown;
kernRight = exclamdown;
lastChange = "2023-12-17 22:17:53 +0000";
layers = (
{
hints = (
{
horizontal = 1;
origin = (0,11);
target = (0,5);
type = Stem;
},
{
origin = (0,2);
target = (0,8);
type = Stem;
},
{
origin = (1,1);
target = (1,2);
type = Stem;
}
);
layerId = "10BC12B3-5274-42E3-B5BC-F74F362F0DF4";
shapes = (
{
closed = 1;
nodes = (
(146,1026,o),
(80,960,o),
(80,874,cs),
(80,792,o),
(146,726,o),
(228,726,cs),
(312,726,o),
(378,792,o),
(378,874,cs),
(378,960,o),
(312,1026,o),
(228,1026,cs)
);
},
{
closed = 1;
nodes = (
(104,580,l),
(104,-400,l),
(354,-400,l),
(354,580,l)
);
}
);
width = 498;
},
{
hints = (
{
horizontal = 1;
origin = (0,11);
target = (0,5);
type = Stem;
},
{
origin = (0,2);
target = (0,8);
type = Stem;
},
{
origin = (1,1);
target = (1,2);
type = Stem;
}
);
layerId = "9AF1F7D9-E035-453E-B2A8-46DE370997D0";
shapes = (
{
closed = 1;
nodes = (
(100,1026,o),
(80,1006,o),
(80,980,cs),
(80,956,o),
(100,936,o),
(124,936,cs),
(150,936,o),
(170,956,o),
(170,980,cs),
(170,1006,o),
(150,1026,o),
(124,1026,cs)
);
},
{
closed = 1;
nodes = (
(94,580,l),
(94,-400,l),
(154,-400,l),
(154,580,l)
);
}
);
width = 250;
}
);
unicode = 161;
},
{
glyphname = question;
kernLeft = question;
kernRight = question;
lastChange = "2023-12-25 06:28:17 +0000";
layers = (
{
hints = (
{
horizontal = 1;
origin = (1,11);
target = (1,5);
type = Stem;
},
{
horizontal = 1;
origin = (0,9);
target = (0,16);
type = Stem;
},
{
origin = (0,12);
target = (0,13);
type = Stem;
},
{
origin = (0,25);
target = (0,0);
type = Stem;
},
{
origin = (0,19);
target = (0,6);
type = Stem;
},
{
origin = (1,8);
target = (1,2);
type = Stem;
}
);
layerId = "10BC12B3-5274-42E3-B5BC-F74F362F0DF4";
shapes = (
{
closed = 1;
nodes = (
(726,400,l),
(726,451,o),
(752,495,o),
(796,518,cs),
(950,600,o),
(1044,764,o),
(1044,946,cs),
(1044,1210,o),
(828,1426,o),
(562,1426,cs),
(296,1426,o),
(80,1210,o),
(80,946,c),
(380,946,l),
(380,1046,o),
(462,1126,o),
(562,1126,cs),
(662,1126,o),
(744,1046,o),
(744,946,cs),
(744,874,o),
(710,812,o),
(654,782,cs),
(512,705,o),
(426,561,o),
(426,400,c)
);
},
{
closed = 1;
nodes = (
(674,-26,o),
(740,40,o),
(740,126,cs),
(740,208,o),
(674,274,o),
(592,274,cs),
(508,274,o),
(442,208,o),
(442,126,cs),
(442,40,o),
(508,-26,o),
(592,-26,cs)
);
}
);
width = 1164;
},
{
hints = (
{
horizontal = 1;
origin = (1,11);
target = (1,5);
type = Stem;
},
{
horizontal = 1;
origin = (0,16);
target = (0,9);
type = Stem;
},
{
origin = (0,12);
target = (0,13);
type = Stem;
},
{
origin = (0,25);
target = (0,0);
type = Stem;
},
{
origin = (0,19);
target = (0,6);
type = Stem;
},
{
origin = (1,8);
target = (1,2);
type = Stem;
}
);
layerId = "9AF1F7D9-E035-453E-B2A8-46DE370997D0";
shapes = (
{
closed = 1;
nodes = (
(484,522,l),
(484,617,o),
(534,701,o),
(618,746,cs),
(732,808,o),
(802,930,o),
(802,1066,cs),
(802,1266,o),
(640,1428,o),
(440,1428,cs),
(242,1428,o),
(80,1266,o),
(80,1066,c),
(140,1066,l),
(140,1234,o),
(274,1368,o),
(440,1368,cs),
(606,1368,o),
(742,1234,o),
(742,1066,cs),
(742,952,o),
(684,850,o),
(590,800,cs),
(486,743,o),
(424,639,o),
(424,522,c)
);
},
{
closed = 1;
nodes = (
(466,-26,o),
(486,-4,o),
(486,20,cs),
(486,44,o),
(466,64,o),
(440,64,cs),
(416,64,o),
(396,44,o),
(396,20,cs),
(396,-4,o),
(416,-26,o),
(440,-26,cs)
);
}
);
width = 922;
}
);
unicode = 63;
},
{
glyphname = questiondown;
kernLeft = questiondown;
kernRight = questiondown;
lastChange = "2023-12-17 22:17:53 +0000";
layers = (
{
hints = (
{
horizontal = 1;
origin = (0,25);
target = (0,6);
type = Stem;
},
{
horizontal = 1;
origin = (1,5);
target = (1,11);
type = Stem;
},
{
origin = (0,22);
target = (0,9);
type = Stem;
},
{
origin = (0,3);
target = (0,2);
type = Stem;
},
{
origin = (0,16);
target = (0,15);
type = Stem;
},
{
origin = (1,8);
target = (1,2);
type = Stem;
}
);
layerId = "10BC12B3-5274-42E3-B5BC-F74F362F0DF4";
shapes = (
{
closed = 1;
nodes = (
(828,-426,o),
(1044,-210,o),
(1044,54,c),
(744,54,l),
(744,-46,o),
(662,-126,o),
(562,-126,cs),
(462,-126,o),
(380,-46,o),
(380,54,cs),
(380,126,o),
(414,188,o),
(470,218,cs),
(612,295,o),
(698,439,o),
(698,600,c),
(398,600,l),
(398,549,o),
(372,505,o),
(328,482,cs),
(174,400,o),
(80,236,o),
(80,54,cs),
(80,-210,o),
(296,-426,o),
(562,-426,cs)
);
},
{
closed = 1;
nodes = (
(616,726,o),
(682,792,o),
(682,874,cs),
(682,960,o),
(616,1026,o),
(532,1026,cs),
(450,1026,o),
(384,960,o),
(384,874,cs),
(384,792,o),
(450,726,o),
(532,726,cs)
);
}
);
width = 1164;
},
{
hints = (
{
horizontal = 1;
origin = (0,25);
target = (0,6);
type = Stem;
},
{
horizontal = 1;
origin = (1,5);
target = (1,11);
type = Stem;
},
{
origin = (0,22);
target = (0,9);
type = Stem;
},
{
origin = (0,16);
target = (0,15);
type = Stem;
},
{
origin = (0,3);
target = (0,2);
type = Stem;
},
{
origin = (1,8);
target = (1,2);
type = Stem;
}
);
layerId = "9AF1F7D9-E035-453E-B2A8-46DE370997D0";
shapes = (
{
closed = 1;
nodes = (
(642,-428,o),
(804,-266,o),
(804,-66,c),
(744,-66,l),
(744,-232,o),
(608,-368,o),
(442,-368,cs),
(276,-368,o),
(140,-232,o),
(140,-66,cs),
(140,48,o),
(198,150,o),
(292,202,cs),
(396,260,o),
(458,365,o),
(458,480,c),
(398,480,l),
(398,384,o),
(347,299,o),
(264,254,cs),
(150,194,o),
(80,70,o),
(80,-66,cs),
(80,-266,o),
(242,-428,o),
(442,-428,cs)
);
},
{
closed = 1;
nodes = (
(466,936,o),
(486,956,o),
(486,980,cs),
(486,1006,o),
(466,1026,o),
(442,1026,cs),
(416,1026,o),
(396,1006,o),
(396,980,cs),
(396,956,o),
(416,936,o),
(442,936,cs)
);
}
);
width = 884;
}
);
unicode = 191;
},
{
glyphname = periodcentered;
kernLeft = anoteleia;
kernRight = anoteleia;
lastChange = "2023-12-17 22:17:53 +0000";
layers = (
{
hints = (
{
horizontal = 1;
origin = (0,11);
target = (0,5);
type = Stem;
},
{
origin = (0,8);
target = (0,2);
type = Stem;
}
);
layerId = "10BC12B3-5274-42E3-B5BC-F74F362F0DF4";
shapes = (
{
closed = 1;
nodes = (
(312,450,o),
(380,516,o),
(380,600,cs),
(380,682,o),
(312,750,o),
(230,750,cs),
(146,750,o),
(80,682,o),
(80,600,cs),
(80,516,o),
(146,450,o),
(230,450,cs)
);
}
);
width = 460;
},
{
hints = (
{
horizontal = 1;
origin = (0,11);
target = (0,5);
type = Stem;
},
{
origin = (0,8);
target = (0,2);
type = Stem;
}
);
layerId = "9AF1F7D9-E035-453E-B2A8-46DE370997D0";
shapes = (
{
closed = 1;
nodes = (
(150,555,o),
(170,575,o),
(170,601,cs),
(170,625,o),
(150,645,o),
(124,645,cs),
(100,645,o),
(80,625,o),
(80,601,cs),
(80,575,o),
(100,555,o),
(124,555,cs)
);
}
);
width = 250;
}
);
unicode = 183;
},
{
glyphname = periodcentered.loclCAT;
lastChange = "2023-12-17 22:17:53 +0000";
layers = (
{
layerId = "9AF1F7D9-E035-453E-B2A8-46DE370997D0";
shapes = (
{
closed = 1;
nodes = (
(60,935,o),
(33,908,o),
(0,908,c),
(-33,908,o),
(-60,935,o),
(-60,968,c),
(-60,1001,o),
(-33,1028,o),
(0,1028,c),
(33,1028,o),
(60,1001,o),
(60,968,c)
);
}
);
width = 0;
},
{
layerId = "10BC12B3-5274-42E3-B5BC-F74F362F0DF4";
shapes = (
{
closed = 1;
nodes = (
(125,834,o),
(69,778,o),
(0,778,c),
(-69,778,o),
(-125,834,o),
(-125,903,c),
(-125,972,o),
(-69,1028,o),
(0,1028,c),
(69,1028,o),
(125,972,o),
(125,903,c)
);
}
);
width = 0;
}
);
},
{
glyphname = periodcentered.loclCAT.case;
lastChange = "2023-12-17 22:17:53 +0000";
layers = (
{
layerId = "9AF1F7D9-E035-453E-B2A8-46DE370997D0";
shapes = (
{
closed = 1;
nodes = (
(-260,935,o),
(-287,908,o),
(-320,908,c),
(-353,908,o),
(-380,935,o),
(-380,968,c),
(-380,1001,o),
(-353,1028,o),
(-320,1028,c),
(-287,1028,o),
(-260,1001,o),
(-260,968,c)
);
}
);
width = 0;
},
{
layerId = "10BC12B3-5274-42E3-B5BC-F74F362F0DF4";
shapes = (
{
closed = 1;
nodes = (
(-105,834,o),
(-161,778,o),
(-230,778,c),
(-299,778,o),
(-355,834,o),
(-355,903,c),
(-355,972,o),
(-299,1028,o),
(-230,1028,c),
(-161,1028,o),
(-105,972,o),
(-105,903,c)
);
}
);
width = 0;
}
);
},
{
glyphname = bullet;
kernLeft = bullet;
kernRight = bullet;
lastChange = "2023-12-17 22:17:53 +0000";
layers = (
{
hints = (
{
horizontal = 1;
origin = (0,11);
target = (0,5);
type = Stem;
},
{
origin = (0,8);
target = (0,2);
type = Stem;
}
);
layerId = "10BC12B3-5274-42E3-B5BC-F74F362F0DF4";
shapes = (
{
closed = 1;
nodes = (
(390,400,o),
(480,488,o),
(480,600,cs),
(480,710,o),
(390,800,o),
(280,800,cs),
(168,800,o),
(80,710,o),
(80,600,cs),
(80,488,o),
(168,400,o),
(280,400,cs)
);
}
);
width = 560;
},
{
hints = (
{
horizontal = 1;
origin = (0,11);
target = (0,5);
type = Stem;
},
{
origin = (0,8);
target = (0,2);
type = Stem;
}
);
layerId = "9AF1F7D9-E035-453E-B2A8-46DE370997D0";
shapes = (
{
closed = 1;
nodes = (
(174,540,o),
(200,566,o),
(200,602,cs),
(200,634,o),
(174,660,o),
(138,660,cs),
(106,660,o),
(80,634,o),
(80,602,cs),
(80,566,o),
(106,540,o),
(138,540,cs)
);
}
);
width = 280;
}
);
unicode = 8226;
},
{
glyphname = asterisk;
kernLeft = asterisk;
kernRight = asterisk;
lastChange = "2023-12-28 00:48:19 +0000";
layers = (
{
hints = (
{
horizontal = 1;
origin = (0,8);
target = down;
type = TopGhost;
},
{
origin = (0,9);
target = (0,6);
type = Stem;
}
);
layerId = "10BC12B3-5274-42E3-B5BC-F74F362F0DF4";
shapes = (
{
closed = 1;
nodes = (
(352,946,l),
(438,826,l),
(600,944,l),
(512,1064,l),
(654,1108,l),
(592,1300,l),
(452,1254,l),
(452,1400,l),
(252,1400,l),
(252,1254,l),
(110,1300,l),
(50,1108,l),
(190,1064,l),
(102,944,l),
(264,826,l)
);
}
);
width = 734;
},
{
hints = (
{
horizontal = 1;
origin = (0,8);
target = down;
type = TopGhost;
},
{
origin = (0,9);
target = (0,6);
type = Stem;
}
);
layerId = "9AF1F7D9-E035-453E-B2A8-46DE370997D0";
shapes = (
{
closed = 1;
nodes = (
(330,1064,l),
(472,866,l),
(522,902,l),
(378,1098,l),
(610,1174,l),
(592,1230,l),
(360,1156,l),
(360,1400,l),
(300,1400,l),
(300,1156,l),
(68,1230,l),
(50,1174,l),
(280,1098,l),
(138,902,l),
(186,866,l)
);
}
);
width = 690;
}
);
unicode = 42;
},
{
glyphname = numbersign;
kernLeft = numbersign;
kernRight = numbersign;
lastChange = "2023-12-17 22:17:53 +0000";
layers = (
{
hints = (
{
horizontal = 1;
origin = (0,16);
target = up;
type = BottomGhost;
},
{
horizontal = 1;
origin = (0,14);
target = (0,13);
type = Stem;
},
{
horizontal = 1;
origin = (0,10);
target = (0,9);
type = Stem;
},
{
horizontal = 1;
origin = (0,7);
target = down;
type = TopGhost;
}
);
layerId = "10BC12B3-5274-42E3-B5BC-F74F362F0DF4";
shapes = (
{
closed = 1;
nodes = (
(1526,1140,l),
(1378,1140,l),
(1446,1400,l),
(1146,1400,l),
(1078,1140,l),
(764,1140,l),
(834,1400,l),
(534,1400,l),
(464,1140,l),
(316,1140,l),
(238,850,l),
(388,850,l),
(306,550,l),
(158,550,l),
(80,260,l),
(228,260,l),
(160,0,l),
(460,0,l),
(528,260,l),
(842,260,l),
(772,0,l),
(1072,0,l),
(1142,260,l),
(1290,260,l),
(1368,550,l),
(1218,550,l),
(1300,850,l),
(1448,850,l)
);
},
{
closed = 1;
nodes = (
(606,550,l),
(688,850,l),
(1000,850,l),
(918,550,l)
);
}
);
width = 1606;
},
{
hints = (
{
horizontal = 1;
origin = (0,16);
target = up;
type = BottomGhost;
},
{
horizontal = 1;
origin = (0,14);
target = (0,13);
type = Stem;
},
{
horizontal = 1;
origin = (0,9);
target = (0,10);
type = Stem;
},
{
horizontal = 1;
origin = (0,7);
target = down;
type = TopGhost;
}
);
layerId = "9AF1F7D9-E035-453E-B2A8-46DE370997D0";
shapes = (
{
closed = 1;
nodes = (
(1384,1026,l),
(1156,1026,l),
(1256,1400,l),
(1196,1400,l),
(1096,1026,l),
(544,1026,l),
(644,1400,l),
(584,1400,l),
(484,1026,l),
(254,1026,l),
(238,968,l),
(468,968,l),
(324,434,l),
(96,434,l),
(80,376,l),
(310,376,l),
(208,0,l),
(268,0,l),
(370,376,l),
(922,376,l),
(820,0,l),
(880,0,l),
(982,376,l),
(1210,376,l),
(1226,434,l),
(996,434,l),
(1140,968,l),
(1368,968,l)
);
},
{
closed = 1;
nodes = (
(384,434,l),
(528,968,l),
(1080,968,l),
(936,434,l)
);
}
);
width = 1464;
}
);
unicode = 35;
},
{
glyphname = slash;
kernLeft = slash;
kernRight = slash;
lastChange = "2023-12-17 22:17:53 +0000";
layers = (
{
hints = (
{
horizontal = 1;
origin = (0,0);
target = down;
type = TopGhost;
},
{
origin = (0,1);
target = (0,3);
type = Stem;
}
);
layerId = "10BC12B3-5274-42E3-B5BC-F74F362F0DF4";
shapes = (
{
closed = 1;
nodes = (
(486,1400,l),
(80,-112,l),
(380,-112,l),
(786,1400,l)
);
}
);
width = 866;
},
{
hints = (
{
horizontal = 1;
origin = (0,0);
target = down;
type = TopGhost;
}
);
layerId = "9AF1F7D9-E035-453E-B2A8-46DE370997D0";
shapes = (
{
closed = 1;
nodes = (
(484,1400,l),
(80,-112,l),
(140,-112,l),
(544,1400,l)
);
}
);
width = 624;
}
);
unicode = 47;
},
{
glyphname = backslash;
kernLeft = backslash;
kernRight = backslash;
lastChange = "2023-12-17 22:17:53 +0000";
layers = (
{
hints = (
{
horizontal = 1;
origin = (0,2);
target = down;
type = TopGhost;
},
{
origin = (0,2);
target = (0,0);
type = Stem;
}
);
layerId = "10BC12B3-5274-42E3-B5BC-F74F362F0DF4";
shapes = (
{
closed = 1;
nodes = (
(784,-112,l),
(380,1400,l),
(80,1400,l),
(484,-112,l)
);
}
);
width = 864;
},
{
hints = (
{
horizontal = 1;
origin = (0,2);
target = down;
type = TopGhost;
}
);
layerId = "9AF1F7D9-E035-453E-B2A8-46DE370997D0";
shapes = (
{
closed = 1;
nodes = (
(546,-112,l),
(140,1400,l),
(80,1400,l),
(486,-112,l)
);
}
);
width = 626;
}
);
unicode = 92;
},
{
glyphname = hyphen;
kernLeft = hyphen;
kernRight = hyphen;
lastChange = "2023-12-28 01:09:41 +0000";
layers = (
{
hints = (
{
horizontal = 1;
origin = (0,0);
target = (0,3);
type = Stem;
},
{
origin = (0,0);
target = (0,1);
type = Stem;
}
);
layerId = "10BC12B3-5274-42E3-B5BC-F74F362F0DF4";
shapes = (
{
closed = 1;
nodes = (
(120,450,l),
(760,450,l),
(760,750,l),
(120,750,l)
);
}
);
width = 880;
},
{
hints = (
{
horizontal = 1;
origin = (0,0);
target = (0,3);
type = Stem;
}
);
layerId = "9AF1F7D9-E035-453E-B2A8-46DE370997D0";
shapes = (
{
closed = 1;
nodes = (
(60,570,l),
(700,570,l),
(700,630,l),
(60,630,l)
);
}
);
width = 760;
}
);
unicode = 45;
},
{
glyphname = endash;
kernLeft = hyphen;
kernRight = hyphen;
lastChange = "2023-12-17 22:17:53 +0000";
layers = (
{
hints = (
{
horizontal = 1;
origin = (0,0);
target = (0,3);
type = Stem;
}
);
layerId = "10BC12B3-5274-42E3-B5BC-F74F362F0DF4";
shapes = (
{
closed = 1;
nodes = (
(120,450,l),
(1120,450,l),
(1120,750,l),
(120,750,l)
);
}
);
width = 1240;
},
{
hints = (
{
horizontal = 1;
origin = (0,0);
target = (0,3);
type = Stem;
}
);
layerId = "9AF1F7D9-E035-453E-B2A8-46DE370997D0";
shapes = (
{
closed = 1;
nodes = (
(120,570,l),
(1120,570,l),
(1120,630,l),
(120,630,l)
);
}
);
width = 1240;
}
);
unicode = 8211;
},
{
glyphname = emdash;
kernLeft = hyphen;
kernRight = hyphen;
lastChange = "2023-12-17 22:17:53 +0000";
layers = (
{
hints = (
{
horizontal = 1;
origin = (0,0);
target = (0,3);
type = Stem;
}
);
layerId = "10BC12B3-5274-42E3-B5BC-F74F362F0DF4";
shapes = (
{
closed = 1;
nodes = (
(120,450,l),
(1920,450,l),
(1920,750,l),
(120,750,l)
);
}
);
width = 2040;
},
{
hints = (
{
horizontal = 1;
origin = (0,0);
target = (0,3);
type = Stem;
}
);
layerId = "9AF1F7D9-E035-453E-B2A8-46DE370997D0";
shapes = (
{
closed = 1;
nodes = (
(120,570,l),
(1920,570,l),
(1920,630,l),
(120,630,l)
);
}
);
width = 2040;
}
);
unicode = 8212;
},
{
glyphname = underscore;
kernLeft = underscore;
kernRight = underscore;
lastChange = "2023-12-17 22:17:53 +0000";
layers = (
{
hints = (
{
horizontal = 1;
origin = (0,0);
target = (0,3);
type = Stem;
}
);
layerId = "10BC12B3-5274-42E3-B5BC-F74F362F0DF4";
shapes = (
{
closed = 1;
nodes = (
(120,-112,l),
(1120,-112,l),
(1120,188,l),
(120,188,l)
);
}
);
width = 1240;
},
{
hints = (
{
horizontal = 1;
origin = (0,0);
target = (0,3);
type = Stem;
}
);
layerId = "9AF1F7D9-E035-453E-B2A8-46DE370997D0";
shapes = (
{
closed = 1;
nodes = (
(120,-112,l),
(1120,-112,l),
(1120,-52,l),
(120,-52,l)
);
}
);
width = 1240;
}
);
unicode = 95;
},
{
glyphname = parenleft;
kernLeft = parenleft;
kernRight = parenleft;
lastChange = "2023-12-17 22:17:53 +0000";
layers = (
{
hints = (
{
horizontal = 1;
origin = (0,7);
target = down;
type = TopGhost;
},
{
origin = (0,10);
target = (0,13);
type = Stem;
}
);
layerId = "10BC12B3-5274-42E3-B5BC-F74F362F0DF4";
shapes = (
{
closed = 1;
nodes = (
(720,-112,l),
(588,40,o),
(420,332,o),
(420,644,cs),
(420,882,o),
(598,1338,o),
(720,1400,c),
(420,1400,l),
(256,1340,o),
(120,872,o),
(120,644,cs),
(120,326,o),
(210,98,o),
(420,-112,c)
);
}
);
width = 820;
},
{
hints = (
{
horizontal = 1;
origin = (0,7);
target = down;
type = TopGhost;
},
{
origin = (0,10);
target = (0,3);
type = Stem;
}
);
layerId = "9AF1F7D9-E035-453E-B2A8-46DE370997D0";
shapes = (
{
closed = 1;
nodes = (
(454,-112,l),
(268,86,o),
(192,328,o),
(180,644,c),
(192,954,o),
(262,1188,o),
(454,1400,c),
(394,1400,l),
(198,1226,o),
(120,932,o),
(120,644,cs),
(120,364,o),
(196,66,o),
(394,-112,c)
);
}
);
width = 554;
}
);
unicode = 40;
},
{
glyphname = parenright;
kernLeft = parenright;
kernRight = parenright;
lastChange = "2023-12-17 22:17:53 +0000";
layers = (
{
hints = (
{
horizontal = 1;
origin = (0,7);
target = down;
type = TopGhost;
},
{
origin = (0,0);
target = (0,3);
type = Stem;
}
);
layerId = "10BC12B3-5274-42E3-B5BC-F74F362F0DF4";
shapes = (
{
closed = 1;
nodes = (
(400,-112,l),
(610,98,o),
(700,326,o),
(700,644,cs),
(700,872,o),
(564,1340,o),
(400,1400,c),
(100,1400,l),
(222,1338,o),
(400,882,o),
(400,644,cs),
(400,332,o),
(232,40,o),
(100,-112,c)
);
}
);
width = 820;
},
{
hints = (
{
horizontal = 1;
origin = (0,7);
target = down;
type = TopGhost;
},
{
origin = (0,10);
target = (0,3);
type = Stem;
}
);
layerId = "9AF1F7D9-E035-453E-B2A8-46DE370997D0";
shapes = (
{
closed = 1;
nodes = (
(160,-112,l),
(358,66,o),
(434,364,o),
(434,644,cs),
(434,932,o),
(356,1226,o),
(160,1400,c),
(100,1400,l),
(292,1188,o),
(362,954,o),
(374,644,c),
(362,328,o),
(286,86,o),
(100,-112,c)
);
}
);
width = 554;
}
);
unicode = 41;
},
{
glyphname = braceleft;
kernLeft = braceleft;
kernRight = braceleft;
lastChange = "2023-12-17 22:17:53 +0000";
layers = (
{
hints = (
{
horizontal = 1;
origin = (0,33);
target = (0,2);
type = Stem;
},
{
horizontal = 1;
origin = (0,19);
target = (0,16);
type = Stem;
},
{
origin = (0,30);
target = (0,5);
type = Stem;
},
{
origin = (0,30);
target = (0,9);
type = Stem;
}
);
layerId = "10BC12B3-5274-42E3-B5BC-F74F362F0DF4";
shapes = (
{
closed = 1;
nodes = (
(730,-112,l),
(730,188,l),
(604,188,ls),
(576,188,o),
(554,210,o),
(554,238,cs),
(554,494,l),
(550,558,o),
(472,584,o),
(472,644,cs),
(472,698,o),
(550,732,o),
(554,794,c),
(554,1050,ls),
(554,1078,o),
(576,1100,o),
(604,1100,cs),
(730,1100,l),
(730,1400,l),
(604,1400,ls),
(410,1400,o),
(254,1242,o),
(254,1050,cs),
(254,804,ls),
(254,750,o),
(120,720,o),
(120,644,cs),
(120,560,o),
(254,546,o),
(254,482,cs),
(254,238,ls),
(254,44,o),
(410,-112,o),
(604,-112,cs)
);
}
);
width = 830;
},
{
hints = (
{
horizontal = 1;
origin = (0,33);
target = (0,2);
type = Stem;
},
{
horizontal = 1;
origin = (0,19);
target = (0,16);
type = Stem;
},
{
origin = (0,30);
target = (0,5);
type = Stem;
}
);
layerId = "9AF1F7D9-E035-453E-B2A8-46DE370997D0";
shapes = (
{
closed = 1;
nodes = (
(690,-114,l),
(690,-54,l),
(642,-54,ls),
(482,-54,o),
(352,76,o),
(352,236,cs),
(352,484,l),
(348,570,o),
(328,574,o),
(212,642,c),
(324,708,o),
(348,716,o),
(352,802,c),
(352,1050,ls),
(352,1210,o),
(484,1340,o),
(642,1340,cs),
(690,1340,l),
(690,1400,l),
(642,1400,ls),
(448,1400,o),
(292,1242,o),
(292,1050,cs),
(292,804,l),
(286,704,o),
(120,734,o),
(120,642,cs),
(120,558,o),
(286,582,o),
(292,482,c),
(292,236,ls),
(292,44,o),
(448,-114,o),
(642,-114,cs)
);
}
);
width = 790;
}
);
unicode = 123;
},
{
glyphname = braceright;
kernLeft = braceright;
kernRight = braceright;
lastChange = "2023-12-17 22:17:53 +0000";
layers = (
{
hints = (
{
horizontal = 1;
origin = (0,33);
target = (0,32);
type = Stem;
},
{
horizontal = 1;
origin = (0,15);
target = (0,16);
type = Stem;
},
{
origin = (0,28);
target = (0,3);
type = Stem;
},
{
origin = (0,24);
target = (0,3);
type = Stem;
}
);
layerId = "10BC12B3-5274-42E3-B5BC-F74F362F0DF4";
shapes = (
{
closed = 1;
nodes = (
(226,-112,ls),
(420,-112,o),
(576,44,o),
(576,238,cs),
(576,482,ls),
(576,546,o),
(710,560,o),
(710,644,cs),
(710,720,o),
(576,750,o),
(576,804,cs),
(576,1050,ls),
(576,1242,o),
(420,1400,o),
(226,1400,cs),
(100,1400,l),
(100,1100,l),
(226,1100,ls),
(254,1100,o),
(276,1078,o),
(276,1050,cs),
(276,794,l),
(280,732,o),
(358,698,o),
(358,644,cs),
(358,584,o),
(280,558,o),
(276,494,c),
(276,238,ls),
(276,210,o),
(254,188,o),
(226,188,cs),
(100,188,l),
(100,-112,l)
);
}
);
width = 830;
},
{
hints = (
{
horizontal = 1;
origin = (0,33);
target = (0,32);
type = Stem;
},
{
horizontal = 1;
origin = (0,15);
target = (0,16);
type = Stem;
},
{
origin = (0,28);
target = (0,3);
type = Stem;
}
);
layerId = "9AF1F7D9-E035-453E-B2A8-46DE370997D0";
shapes = (
{
closed = 1;
nodes = (
(148,-114,ls),
(342,-114,o),
(498,44,o),
(498,236,cs),
(498,482,l),
(504,582,o),
(670,558,o),
(670,642,cs),
(670,734,o),
(504,704,o),
(498,804,c),
(498,1050,ls),
(498,1242,o),
(342,1400,o),
(148,1400,cs),
(100,1400,l),
(100,1340,l),
(148,1340,ls),
(306,1340,o),
(438,1210,o),
(438,1050,cs),
(438,802,l),
(442,716,o),
(466,708,o),
(578,642,c),
(462,574,o),
(442,570,o),
(438,484,c),
(438,236,ls),
(438,76,o),
(308,-54,o),
(148,-54,cs),
(100,-54,l),
(100,-114,l)
);
}
);
width = 790;
}
);
unicode = 125;
},
{
glyphname = bracketleft;
kernLeft = bracketleft;
kernRight = bracketleft;
lastChange = "2023-12-17 22:17:53 +0000";
layers = (
{
hints = (
{
horizontal = 1;
origin = (0,5);
target = (0,0);
type = Stem;
},
{
horizontal = 1;
origin = (0,4);
target = (0,1);
type = Stem;
},
{
origin = (0,5);
target = (0,6);
type = Stem;
},
{
origin = (0,5);
target = (0,0);
type = Stem;
}
);
layerId = "10BC12B3-5274-42E3-B5BC-F74F362F0DF4";
shapes = (
{
closed = 1;
nodes = (
(420,188,l),
(420,1100,l),
(596,1100,l),
(596,1400,l),
(120,1400,l),
(120,-112,l),
(596,-112,l),
(596,188,l)
);
}
);
width = 696;
},
{
hints = (
{
horizontal = 1;
origin = (0,5);
target = (0,0);
type = Stem;
},
{
horizontal = 1;
origin = (0,4);
target = (0,1);
type = Stem;
},
{
origin = (0,5);
target = (0,0);
type = Stem;
}
);
layerId = "9AF1F7D9-E035-453E-B2A8-46DE370997D0";
shapes = (
{
closed = 1;
nodes = (
(180,-52,l),
(180,1340,l),
(360,1340,l),
(360,1400,l),
(120,1400,l),
(120,-112,l),
(360,-112,l),
(360,-52,l)
);
}
);
width = 460;
}
);
unicode = 91;
},
{
glyphname = bracketright;
kernLeft = bracketright;
kernRight = bracketright;
lastChange = "2023-12-17 22:17:53 +0000";
layers = (
{
hints = (
{
horizontal = 1;
origin = (0,7);
target = (0,6);
type = Stem;
},
{
horizontal = 1;
origin = (0,2);
target = (0,3);
type = Stem;
},
{
origin = (0,7);
target = (0,0);
type = Stem;
},
{
origin = (0,5);
target = (0,0);
type = Stem;
}
);
layerId = "10BC12B3-5274-42E3-B5BC-F74F362F0DF4";
shapes = (
{
closed = 1;
nodes = (
(578,-112,l),
(578,1400,l),
(100,1400,l),
(100,1100,l),
(278,1100,l),
(278,188,l),
(100,188,l),
(100,-112,l)
);
}
);
width = 698;
},
{
hints = (
{
horizontal = 1;
origin = (0,7);
target = (0,6);
type = Stem;
},
{
horizontal = 1;
origin = (0,2);
target = (0,3);
type = Stem;
},
{
origin = (0,5);
target = (0,0);
type = Stem;
}
);
layerId = "9AF1F7D9-E035-453E-B2A8-46DE370997D0";
shapes = (
{
closed = 1;
nodes = (
(340,-112,l),
(340,1400,l),
(100,1400,l),
(100,1340,l),
(280,1340,l),
(280,-52,l),
(100,-52,l),
(100,-112,l)
);
}
);
width = 460;
}
);
unicode = 93;
},
{
glyphname = quoteleft;
kernLeft = quoteleft;
kernRight = quoteleft;
lastChange = "2023-12-17 22:17:53 +0000";
layers = (
{
hints = (
{
horizontal = 1;
origin = (0,2);
target = (0,3);
type = Stem;
},
{
origin = (0,3);
target = (0,1);
type = Stem;
}
);
layerId = "10BC12B3-5274-42E3-B5BC-F74F362F0DF4";
shapes = (
{
closed = 1;
nodes = (
(360,878,l),
(422,1400,l),
(222,1400,l),
(60,878,l)
);
}
);
width = 462;
},
{
hints = (
{
horizontal = 1;
origin = (0,2);
target = down;
type = TopGhost;
},
{
origin = (0,3);
target = (0,1);
type = Stem;
}
);
layerId = "9AF1F7D9-E035-453E-B2A8-46DE370997D0";
shapes = (
{
closed = 1;
nodes = (
(120,878,l),
(182,1400,l),
(142,1400,l),
(60,878,l)
);
}
);
width = 222;
}
);
unicode = (8216,699);
},
{
glyphname = quoteright;
kernLeft = quoteright;
kernRight = quoteright;
lastChange = "2023-12-28 00:48:34 +0000";
layers = (
{
hints = (
{
horizontal = 1;
origin = (0,2);
target = (0,3);
type = Stem;
},
{
origin = (0,3);
target = (0,1);
type = Stem;
}
);
layerId = "10BC12B3-5274-42E3-B5BC-F74F362F0DF4";
shapes = (
{
closed = 1;
nodes = (
(240,878,l),
(402,1400,l),
(102,1400,l),
(40,878,l)
);
}
);
width = 462;
},
{
hints = (
{
horizontal = 1;
origin = (0,2);
target = down;
type = TopGhost;
},
{
origin = (0,3);
target = (0,1);
type = Stem;
}
);
layerId = "9AF1F7D9-E035-453E-B2A8-46DE370997D0";
shapes = (
{
closed = 1;
nodes = (
(80,878,l),
(162,1400,l),
(102,1400,l),
(40,878,l)
);
}
);
width = 222;
}
);
unicode = (8217,8242);
},
{
glyphname = guilsinglleft;
kernLeft = guillemotleft;
kernRight = guillemotleft;
lastChange = "2023-12-17 22:17:53 +0000";
layers = (
{
hints = (
{
horizontal = 1;
origin = (0,5);
target = (0,3);
type = Stem;
},
{
origin = (0,4);
target = (0,0);
type = Stem;
}
);
layerId = "10BC12B3-5274-42E3-B5BC-F74F362F0DF4";
shapes = (
{
closed = 1;
nodes = (
(720,261,l),
(422,601,l),
(720,939,l),
(420,939,l),
(120,601,l),
(420,261,l)
);
}
);
width = 820;
},
{
layerId = "9AF1F7D9-E035-453E-B2A8-46DE370997D0";
shapes = (
{
closed = 1;
nodes = (
(500,261,l),
(200,601,l),
(500,939,l),
(420,939,l),
(120,601,l),
(420,261,l)
);
}
);
width = 600;
}
);
unicode = 8249;
},
{
glyphname = guilsinglright;
kernLeft = guillemotright;
kernRight = guillemotright;
lastChange = "2023-12-17 22:17:53 +0000";
layers = (
{
hints = (
{
horizontal = 1;
origin = (0,5);
target = (0,3);
type = Stem;
},
{
origin = (0,5);
target = (0,1);
type = Stem;
}
);
layerId = "10BC12B3-5274-42E3-B5BC-F74F362F0DF4";
shapes = (
{
closed = 1;
nodes = (
(400,261,l),
(700,601,l),
(400,939,l),
(100,939,l),
(398,601,l),
(100,261,l)
);
}
);
width = 820;
},
{
layerId = "9AF1F7D9-E035-453E-B2A8-46DE370997D0";
shapes = (
{
closed = 1;
nodes = (
(180,261,l),
(480,601,l),
(180,939,l),
(100,939,l),
(400,601,l),
(100,261,l)
);
}
);
width = 600;
}
);
unicode = 8250;
},
{
glyphname = primeReversed;
kernLeft = primeReversed;
kernRight = primeReversed;
lastChange = "2023-12-17 22:17:53 +0000";
layers = (
{
hints = (
{
horizontal = 1;
origin = (0,2);
target = (0,3);
type = Stem;
},
{
origin = (0,2);
target = (0,0);
type = Stem;
}
);
layerId = "10BC12B3-5274-42E3-B5BC-F74F362F0DF4";
shapes = (
{
closed = 1;
nodes = (
(482,878,l),
(420,1400,l),
(120,1400,l),
(282,878,l)
);
}
);
width = 602;
},
{
hints = (
{
horizontal = 1;
origin = (0,2);
target = down;
type = TopGhost;
},
{
origin = (0,2);
target = (0,0);
type = Stem;
}
);
layerId = "9AF1F7D9-E035-453E-B2A8-46DE370997D0";
shapes = (
{
closed = 1;
nodes = (
(242,878,l),
(180,1400,l),
(120,1400,l),
(202,878,l)
);
}
);
width = 362;
}
);
unicode = 8245;
},
